SplineFontDB: 3.0
FontName: Berenika-Bold
FullName: Berenika Bold
FamilyName: Berenika
Weight: Bold
Copyright: Copyright (c) 2011, wmk69 (wmk69@o2.pl)\nwith Reserved Font Names 'Berenika' and 'Berenika Bold'.\n\nThis Font Software is licensed under the SIL Open Font License, Version 1.1.\nThis license is available with a FAQ at:\nhttp://scripts.sil.org/OFL
Version: 2.000
ItalicAngle: 0
UnderlinePosition: -81
UnderlineWidth: 122
Ascent: 1638
Descent: 410
LayerCount: 2
Layer: 0 1 "Warstwa t+AUIA-a"  1
Layer: 1 1 "Plan pierwszy"  0
XUID: [1021 783 23647091 10727182]
FSType: 0
OS2Version: 3
OS2_WeightWidthSlopeOnly: 0
OS2_UseTypoMetrics: 1
CreationTime: 1260698820
ModificationTime: 1314985061
PfmFamily: 17
TTFWeight: 700
TTFWidth: 5
LineGap: 0
VLineGap: 0
Panose: 2 1 8 3 2 4 4 6 2 4
OS2TypoAscent: 1991
OS2TypoAOffset: 0
OS2TypoDescent: -471
OS2TypoDOffset: 0
OS2TypoLinegap: 0
OS2WinAscent: 1991
OS2WinAOffset: 0
OS2WinDescent: 471
OS2WinDOffset: 0
HheadAscent: 1991
HheadAOffset: 0
HheadDescent: -471
HheadDOffset: 0
OS2SubXSize: 1434
OS2SubYSize: 1331
OS2SubXOff: 0
OS2SubYOff: 287
OS2SupXSize: 1434
OS2SupYSize: 1331
OS2SupXOff: 0
OS2SupYOff: 977
OS2StrikeYSize: 102
OS2StrikeYPos: 512
OS2Vendor: '    '
OS2CodePages: 20000093.00000000
OS2UnicodeRanges: 8000002f.4000204b.00000000.00000000
Lookup: 258 0 0 "'kern' Kerning poziomy w tablicy 0"  {"Podtablica 'kern' Kerning poziomy w tablicy 0"  } ['kern' ('DFLT' <'dflt' > 'grek' <'dflt' > 'latn' <'dflt' > ) ]
DEI: 91125
KernClass2: 21 16 "Podtablica 'kern' Kerning poziomy w tablicy 0" 
 79 A Agrave Aacute Acircumflex Atilde Adieresis Aring Amacron Abreve Aogonek Delta
 17 F uni0191 uni1E1E
 43 K R Kcommaaccent Racute Rcommaaccent Rcaron
 40 L Lacute Lcommaaccent Lcaron Ldot Lslash
 42 T Tcommaaccent Tcaron Tbar uni021A uni1E6A
 1 V
 37 Y Yacute Ycircumflex Ydieresis Ygrave
 93 a g q u w y agrave ugrave aogonek uogonek wcircumflex uni01E5 aeacute wgrave wacute wdieresis

StartChar: .notdef
Encoding: 65536 -1 0
Width: 1044
Flags: W
HStem: 0 268<418 626> 1243 268<418 626>
VStem: 150 268<268 1243> 626 268<268 1243>
LayerCount: 2
Fore
SplineSet
150 0 m 1,0,-1
 150 1511 l 1,1,-1
 894 1511 l 1,2,-1
 894 0 l 1,3,-1
 150 0 l 1,0,-1
626 1243 m 1,4,-1
 418 1243 l 1,5,-1
 418 268 l 1,6,-1
 626 268 l 1,7,-1
 626 1243 l 1,4,-1
EndSplineSet
Validated: 3073
EndChar

StartChar: exclam
Encoding: 33 33 4
Width: 862
GlyphClass: 2
Flags: W
HStem: -20 405<304.108 556.67> 1491 20G<254 608>
VStem: 230 402<56.1094 308.875> 254 354<1066.58 1511> 288 287<457 901.416>
LayerCount: 2
Fore
SplineSet
632 177 m 0,0,1
 632 100 632 100 576 40 c 128,-1,2
 520 -20 520 -20 431 -20 c 0,3,4
 346 -20 346 -20 287 41 c 0,5,6
 230 100 230 100 230 182 c 0,7,8
 230 265 230 265 287 324 c 0,9,10
 346 385 346 385 431 385 c 0,11,12
 514 385 514 385 574 326 c 0,13,14
 632 268 632 268 632 177 c 0,0,1
288 457 m 1,15,-1
 254 1511 l 1,16,-1
 608 1511 l 1,17,-1
 575 457 l 1,18,-1
 288 457 l 1,15,-1
EndSplineSet
Validated: 1
EndChar

StartChar: quotedbl
Encoding: 34 34 5
Width: 1164
GlyphClass: 2
Flags: W
HStem: 844 667<200 500 664 964>
VStem: 200 300<844 1511> 664 300<844 1511>
LayerCount: 2
Fore
SplineSet
664 844 m 1,0,-1
 664 1511 l 1,1,-1
 964 1511 l 1,2,-1
 964 844 l 1,3,-1
 664 844 l 1,0,-1
200 844 m 1,4,-1
 200 1511 l 1,5,-1
 500 1511 l 1,6,-1
 500 844 l 1,7,-1
 200 844 l 1,4,-1
EndSplineSet
Validated: 1
EndChar

StartChar: numbersign
Encoding: 35 35 6
Width: 1693
GlyphClass: 2
Flags: W
HStem: 411 300<150 490 790 904 1204 1543> 825 300<150 490 790 904 1204 1543>
VStem: 490 300<71 411 711 825 1125 1465> 904 300<71 411 711 825 1125 1465>
LayerCount: 2
Fore
SplineSet
490 71 m 1,0,-1
 490 411 l 1,1,-1
 150 411 l 1,2,-1
 150 711 l 1,3,-1
 490 711 l 1,4,-1
 490 825 l 1,5,-1
 150 825 l 1,6,-1
 150 1125 l 1,7,-1
 490 1125 l 1,8,-1
 490 1465 l 1,9,-1
 790 1465 l 1,10,-1
 790 1125 l 1,11,-1
 904 1125 l 1,12,-1
 904 1465 l 1,13,-1
 1204 1465 l 1,14,-1
 1204 1125 l 1,15,-1
 1543 1125 l 1,16,-1
 1543 825 l 1,17,-1
 1204 825 l 1,18,-1
 1204 711 l 1,19,-1
 1543 711 l 1,20,-1
 1543 411 l 1,21,-1
 1204 411 l 1,22,-1
 1204 71 l 1,23,-1
 904 71 l 1,24,-1
 904 411 l 1,25,-1
 790 411 l 1,26,-1
 790 71 l 1,27,-1
 490 71 l 1,0,-1
790 825 m 1,28,-1
 790 711 l 1,29,-1
 904 711 l 1,30,-1
 904 825 l 1,31,-1
 790 825 l 1,28,-1
EndSplineSet
Validated: 1
EndChar

StartChar: dollar
Encoding: 36 36 7
Width: 1698
GlyphClass: 2
Flags: W
HStem: -20 273<583.637 763> 1114 21G<1137 1185.87>
VStem: 337 341<997.403 1188.11> 763 270<-186 -20 329 654 1051 1215 1520.97 1695> 1240 358<472.484 621.552>
LayerCount: 2
Fore
SplineSet
80 362 m 1,0,-1
 375 525 l 1,1,2
 520 253 520 253 763 253 c 1,3,-1
 763 706 l 1,4,-1
 678 722 l 2,5,6
 512 754 512 754 423 846 c 0,7,8
 337 935 337 935 337 1063 c 0,9,10
 337 1253 337 1253 510 1387 c 0,11,12
 624 1475 624 1475 763 1509 c 1,13,-1
 763 1695 l 1,14,-1
 1034 1695 l 1,15,-1
 1034 1526 l 1,16,17
 1278 1500 1278 1500 1429 1315 c 1,18,-1
 1159 1114 l 1,19,20
 1115 1205 1115 1205 1034 1238 c 1,21,-1
 1034 1000 l 1,22,-1
 1249 959 l 2,23,24
 1598 893 1598 893 1598 611 c 0,25,26
 1598 360 1598 360 1310 150 c 0,27,28
 1184 58 1184 58 1033 15 c 1,29,-1
 1033 -186 l 1,30,-1
 763 -186 l 1,31,-1
 763 -20 l 1,32,33
 296 -20 296 -20 80 362 c 1,0,-1
763 1051 m 1,34,-1
 763 1215 l 1,35,36
 678 1171 678 1171 678 1114 c 0,37,38
 678 1067 678 1067 738 1056 c 2,39,-1
 763 1051 l 1,34,-1
1033 654 m 1,40,-1
 1033 329 l 1,41,42
 1071 352 1071 352 1106 382 c 0,43,44
 1240 497 1240 497 1240 572 c 0,45,46
 1240 618 1240 618 1186 625 c 1,47,-1
 1033 654 l 1,40,-1
EndSplineSet
Validated: 1
EndChar

StartChar: percent
Encoding: 37 37 8
Width: 2221
GlyphClass: 2
Flags: W
HStem: 0 266<1518.88 1714.78> 554 266<1552.27 1746.26> 691 266<475.88 671.778> 1245 266<509.272 703.26>
VStem: 150 302<987.413 1195.75> 473 348<0 348> 728 300<1006.94 1212.69> 1193 302<296.413 504.749> 1401 348<1163 1511> 1771 300<315.938 521.693>
DStem2: 473 0 821 0 0.523342 0.852123<182.123 1773.22>
LayerCount: 2
Fore
SplineSet
552 691 m 0,0,1
 355 691 355 691 252 812 c 0,2,3
 150 932 150 932 150 1069 c 0,4,5
 150 1260 150 1260 309 1399 c 0,6,7
 437 1511 437 1511 628 1511 c 0,8,9
 820 1511 820 1511 927 1393 c 0,10,11
 1028 1282 1028 1282 1028 1135 c 0,12,13
 1028 939 1028 939 863 800 c 0,14,15
 734 691 734 691 552 691 c 0,0,1
559 957 m 0,16,17
 624 957 624 957 669 993 c 0,18,19
 728 1040 728 1040 728 1121 c 0,20,21
 728 1172 728 1172 705 1203 c 24,22,23
 674 1245 674 1245 624 1245 c 0,24,25
 558 1245 558 1245 513 1211 c 0,26,27
 452 1165 452 1165 452 1082 c 0,28,29
 452 1029 452 1029 475 997 c 0,30,31
 504 957 504 957 559 957 c 0,16,17
473 0 m 1,32,-1
 1401 1511 l 1,33,-1
 1749 1511 l 1,34,-1
 821 0 l 1,35,-1
 473 0 l 1,32,-1
1595 0 m 0,36,37
 1398 0 1398 0 1295 121 c 0,38,39
 1193 241 1193 241 1193 378 c 0,40,41
 1193 569 1193 569 1352 708 c 0,42,43
 1480 820 1480 820 1671 820 c 0,44,45
 1863 820 1863 820 1970 702 c 0,46,47
 2071 591 2071 591 2071 444 c 0,48,49
 2071 248 2071 248 1906 109 c 0,50,51
 1777 0 1777 0 1595 0 c 0,36,37
1602 266 m 0,52,53
 1667 266 1667 266 1712 302 c 0,54,55
 1771 349 1771 349 1771 430 c 0,56,57
 1771 481 1771 481 1748 512 c 24,58,59
 1717 554 1717 554 1667 554 c 0,60,61
 1601 554 1601 554 1556 520 c 0,62,63
 1495 474 1495 474 1495 391 c 0,64,65
 1495 338 1495 338 1518 306 c 0,66,67
 1547 266 1547 266 1602 266 c 0,52,53
EndSplineSet
Validated: 3073
EndChar

StartChar: ampersand
Encoding: 38 38 9
Width: 1966
GlyphClass: 2
Flags: W
HStem: -20 263<595.053 968.706> 0 21G<1404.66 1866> 1100 20G<1229 1310.5> 1266 265<749.935 1001.75>
VStem: 150 346<339.979 660.979> 377 338<1095.61 1234.47> 1395 341<575.361 925.055>
DStem2: 928 1084 722 809 0.654346 -0.756195<57.3685 664.104 991.01 1142.31>
LayerCount: 2
Fore
SplineSet
1112 365 m 1,0,1
 722 809 l 1,2,3
 637 783 637 783 581 720 c 0,4,5
 496 623 496 623 496 491 c 0,6,7
 496 387 496 387 559 317 c 0,8,9
 627 243 627 243 741 243 c 0,10,11
 866 243 866 243 992 296 c 0,12,13
 1048 320 1048 320 1112 365 c 1,0,1
1866 0 m 1,14,-1
 1421 0 l 1,15,-1
 1314 131 l 1,16,17
 1063 -20 1063 -20 722 -20 c 0,18,19
 439 -20 439 -20 290 125 c 0,20,21
 150 261 150 261 150 469 c 0,22,23
 150 661 150 661 299 824 c 0,24,25
 364 895 364 895 446 943 c 1,26,27
 377 1017 377 1017 377 1123 c 0,28,29
 377 1319 377 1319 578 1454 c 0,30,31
 693 1531 693 1531 885 1531 c 0,32,33
 1046 1531 1046 1531 1162 1440 c 16,34,35
 1223 1392 1223 1392 1252 1332 c 1,36,-1
 943 1197 l 1,37,38
 943 1232 943 1232 915 1252 c 0,39,40
 894 1266 894 1266 856 1266 c 0,41,42
 794 1266 794 1266 757 1236 c 0,43,44
 715 1202 715 1202 715 1150 c 0,45,46
 715 1118 715 1118 740 1100 c 0,47,48
 763 1084 763 1084 806 1084 c 1,49,-1
 928 1084 l 1,50,-1
 1370 573 l 1,51,52
 1395 645 1395 645 1395 731 c 0,53,54
 1395 831 1395 831 1353 920 c 0,55,56
 1294 1045 1294 1045 1164 1120 c 1,57,58
 1457 1120 1457 1120 1578 1058 c 0,59,60
 1736 977 1736 977 1736 734 c 0,61,62
 1736 517 1736 517 1582 330 c 1,63,-1
 1866 0 l 1,14,-1
EndSplineSet
Validated: 1
EndChar

StartChar: quotesingle
Encoding: 39 39 10
Width: 700
GlyphClass: 2
Flags: W
HStem: 844 667<200 500>
VStem: 200 300<844 1511>
LayerCount: 2
Fore
SplineSet
200 844 m 1,0,-1
 200 1511 l 1,1,-1
 500 1511 l 1,2,-1
 500 844 l 1,3,-1
 200 844 l 1,0,-1
EndSplineSet
Validated: 1
EndChar

StartChar: parenleft
Encoding: 40 40 11
Width: 1049
GlyphClass: 2
Flags: W
VStem: 200 349<401.732 1148.15>
LayerCount: 2
Fore
SplineSet
577 1797 m 1,0,-1
 899 1797 l 1,1,2
 715 1531 715 1531 636 1300 c 0,3,4
 549 1045 549 1045 549 788 c 0,5,6
 549 473 549 473 636 229 c 0,7,8
 730 -36 730 -36 898 -267 c 1,9,-1
 579 -267 l 1,10,11
 429 -81 429 -81 327 153 c 0,12,13
 200 446 200 446 200 783 c 0,14,15
 200 1106 200 1106 327 1376 c 0,16,17
 443 1622 443 1622 577 1797 c 1,0,-1
EndSplineSet
Validated: 1
EndChar

StartChar: parenright
Encoding: 41 41 12
Width: 1049
GlyphClass: 2
Flags: W
VStem: 500 349<401.732 1148.15>
LayerCount: 2
Fore
SplineSet
150 1797 m 1,0,-1
 472 1797 l 1,1,2
 606 1622 606 1622 722 1376 c 0,3,4
 849 1106 849 1106 849 783 c 0,5,6
 849 446 849 446 722 153 c 0,7,8
 620 -81 620 -81 470 -267 c 1,9,-1
 151 -267 l 1,10,11
 319 -36 319 -36 413 229 c 0,12,13
 500 473 500 473 500 788 c 0,14,15
 500 1045 500 1045 413 1300 c 0,16,17
 334 1531 334 1531 150 1797 c 1,0,-1
EndSplineSet
Validated: 1
EndChar

StartChar: asterisk
Encoding: 42 42 13
Width: 1345
GlyphClass: 2
Flags: W
HStem: 1491 20G<522 822>
VStem: 522 300<478 754 1234 1511>
LayerCount: 2
Fore
SplineSet
522 1511 m 1,0,-1
 822 1511 l 1,1,-1
 822 1234 l 1,2,-1
 1045 1383 l 1,3,-1
 1195 1123 l 1,4,-1
 953 994 l 1,5,-1
 1195 866 l 1,6,-1
 1045 606 l 1,7,-1
 822 754 l 1,8,-1
 822 478 l 1,9,-1
 522 478 l 1,10,-1
 522 754 l 1,11,-1
 300 606 l 1,12,-1
 150 866 l 1,13,-1
 392 994 l 1,14,-1
 150 1123 l 1,15,-1
 300 1383 l 1,16,-1
 522 1234 l 1,17,-1
 522 1511 l 1,0,-1
EndSplineSet
Validated: 1
EndChar

StartChar: plus
Encoding: 43 43 14
Width: 1333
GlyphClass: 2
Flags: W
HStem: 621 300<150 516 816 1183>
VStem: 516 300<254 621 921 1288>
LayerCount: 2
Fore
SplineSet
150 621 m 1,0,-1
 150 921 l 1,1,-1
 516 921 l 1,2,-1
 516 1288 l 1,3,-1
 816 1288 l 1,4,-1
 816 921 l 1,5,-1
 1183 921 l 1,6,-1
 1183 621 l 1,7,-1
 816 621 l 1,8,-1
 816 254 l 1,9,-1
 516 254 l 1,10,-1
 516 621 l 1,11,-1
 150 621 l 1,0,-1
EndSplineSet
Validated: 1
EndChar

StartChar: comma
Encoding: 44 44 15
Width: 756
GlyphClass: 2
Flags: W
HStem: -410 21G<332.579 478.5>
VStem: 271 335<-180.598 88.4692>
LayerCount: 2
Fore
SplineSet
150 147 m 1,0,-1
 437 366 l 1,1,2
 606 207 606 207 606 -12 c 0,3,4
 606 -266 606 -266 351 -410 c 1,5,-1
 176 -220 l 1,6,7
 271 -170 271 -170 271 -39 c 0,8,9
 271 86 271 86 150 147 c 1,0,-1
EndSplineSet
Validated: 1
EndChar

StartChar: hyphen
Encoding: 45 45 16
Width: 1333
GlyphClass: 2
Flags: W
HStem: 621 300<150 1183>
LayerCount: 2
Fore
SplineSet
150 621 m 1,0,-1
 150 921 l 1,1,-1
 1183 921 l 1,2,-1
 1183 621 l 1,3,-1
 150 621 l 1,0,-1
EndSplineSet
Validated: 1
EndChar

StartChar: period
Encoding: 46 46 17
Width: 702
GlyphClass: 2
Flags: W
HStem: -20 405<224.108 476.67>
VStem: 150 402<56.1094 308.875>
LayerCount: 2
Fore
SplineSet
552 177 m 0,0,1
 552 100 552 100 496 40 c 128,-1,2
 440 -20 440 -20 351 -20 c 0,3,4
 266 -20 266 -20 207 41 c 0,5,6
 150 100 150 100 150 182 c 0,7,8
 150 265 150 265 207 324 c 0,9,10
 266 385 266 385 351 385 c 0,11,12
 434 385 434 385 494 326 c 0,13,14
 552 268 552 268 552 177 c 0,0,1
EndSplineSet
Validated: 1
EndChar

StartChar: slash
Encoding: 47 47 18
Width: 1418
GlyphClass: 2
Flags: W
VStem: 10 345<-183 162> 1063 345<1342 1687>
DStem2: 10 -183 355 -183 0.490659 0.871351<169.277 2146.09>
LayerCount: 2
Fore
SplineSet
10 -183 m 1,0,-1
 1063 1687 l 1,1,-1
 1408 1687 l 1,2,-1
 355 -183 l 1,3,-1
 10 -183 l 1,0,-1
EndSplineSet
Validated: 1
EndChar

StartChar: zero
Encoding: 48 48 19
Width: 1909
GlyphClass: 2
Flags: W
HStem: -20 273<672.469 1104.25> 1258 273<796.174 1236.29>
VStem: 100 360<463.768 917.395> 1449 360<584.163 1042.03>
LayerCount: 2
Fore
SplineSet
863 -20 m 0,0,1
 513 -20 513 -20 292 188 c 0,2,3
 100 369 100 369 100 676 c 0,4,5
 100 1066 100 1066 426 1328 c 0,6,7
 679 1531 679 1531 1046 1531 c 0,8,9
 1396 1531 1396 1531 1617 1323 c 0,10,11
 1809 1142 1809 1142 1809 835 c 0,12,13
 1809 446 1809 446 1483 183 c 0,14,15
 1231 -20 1231 -20 863 -20 c 0,0,1
863 253 m 0,16,17
 1100 253 1100 253 1263 391 c 0,18,19
 1449 548 1449 548 1449 829 c 0,20,21
 1449 1022 1449 1022 1340 1138 c 0,22,23
 1224 1258 1224 1258 1046 1258 c 0,24,25
 794 1258 794 1258 646 1120 c 0,26,27
 460 946 460 946 460 682 c 0,28,29
 460 485 460 485 569 372 c 0,30,31
 684 253 684 253 863 253 c 0,16,17
EndSplineSet
Validated: 1
EndChar

StartChar: one
Encoding: 49 49 20
Width: 855
GlyphClass: 2
Flags: W
HStem: 0 21G<255 605> 1211 300<5 255>
VStem: 255 350<0 1211>
LayerCount: 2
Fore
SplineSet
255 0 m 1,0,-1
 255 1211 l 1,1,-1
 5 1211 l 1,2,-1
 5 1511 l 1,3,-1
 469 1511 l 1,4,5
 605 1430 605 1430 605 1250 c 2,6,-1
 605 0 l 1,7,-1
 255 0 l 1,0,-1
EndSplineSet
Validated: 1
EndChar

StartChar: two
Encoding: 50 50 21
Width: 1513
GlyphClass: 2
Flags: W
HStem: 0 300<583 1251.25> 1257 274<616.412 912.57>
VStem: 1005 358<938.132 1173.96> 1342 20<449.414 470>
LayerCount: 2
Fore
SplineSet
203 0 m 1,0,1
 120 64 120 64 120 161 c 0,2,3
 120 311 120 311 227 390 c 9,4,-1
 881 862 l 17,5,6
 1005 953 1005 953 1005 1058 c 0,7,8
 1005 1135 1005 1135 950 1185 c 0,9,10
 872 1257 872 1257 765 1257 c 0,11,12
 647 1257 647 1257 563 1169 c 0,13,14
 494 1097 494 1097 446 969 c 1,15,-1
 150 1132 l 1,16,17
 245 1293 245 1293 383 1394 c 0,18,19
 571 1531 571 1531 772 1531 c 0,20,21
 1048 1531 1048 1531 1211 1372 c 0,22,23
 1363 1224 1363 1224 1363 1029 c 0,24,25
 1363 777 1363 777 1118 625 c 0,26,27
 881 478 881 478 583 300 c 1,28,-1
 1101 300 l 2,29,30
 1281 300 1281 300 1342 470 c 1,31,-1
 1362 470 l 1,32,-1
 1362 136 l 1,33,34
 1281 0 1281 0 1101 0 c 2,35,-1
 203 0 l 1,0,1
EndSplineSet
Validated: 1
EndChar

StartChar: three
Encoding: 51 51 22
Width: 1552
GlyphClass: 2
Flags: W
HStem: -20 266<559.26 866.026> 831 278<646 866.734> 1260 271<718.997 885.944>
VStem: 1042 360<419.023 742.205>
LayerCount: 2
Fore
SplineSet
100 419 m 9,0,1
 440 544 l 1,2,3
 477 246 477 246 693 246 c 0,4,5
 841 246 841 246 938 344 c 0,6,7
 1042 449 1042 449 1042 577 c 0,8,9
 1042 698 1042 698 981 763 c 0,10,11
 917 831 917 831 809 831 c 2,12,-1
 646 831 l 1,13,-1
 646 1109 l 1,14,-1
 721 1109 l 2,15,16
 828 1109 828 1109 868 1140 c 0,17,18
 902 1166 902 1166 902 1202 c 0,19,20
 902 1230 902 1230 876 1246 c 0,21,22
 854 1260 854 1260 815 1260 c 0,23,24
 772 1260 772 1260 734 1230 c 0,25,26
 700 1203 700 1203 675 1143 c 1,27,-1
 408 1301 l 1,28,29
 586 1531 586 1531 843 1531 c 0,30,31
 1020 1531 1020 1531 1126 1449 c 0,32,33
 1238 1362 1238 1362 1238 1225 c 0,34,35
 1238 1102 1238 1102 1129 1015 c 1,36,37
 1219 982 1219 982 1285 911 c 0,38,39
 1402 784 1402 784 1402 602 c 0,40,41
 1402 346 1402 346 1172 155 c 0,42,43
 960 -20 960 -20 695 -20 c 0,44,45
 247 -20 247 -20 100 419 c 9,0,1
EndSplineSet
Validated: 1
EndChar

StartChar: four
Encoding: 52 52 23
Width: 1518
GlyphClass: 2
Flags: W
HStem: 0 21G<918 1268> 218 300<512 918> 1491 20G<812 1200>
VStem: 918 350<0 218 518 1205>
LayerCount: 2
Fore
SplineSet
918 0 m 1,0,-1
 918 218 l 1,1,-1
 80 218 l 1,2,3
 197 724 197 724 449 1056 c 0,4,5
 652 1324 652 1324 972 1511 c 1,6,-1
 1132 1511 l 1,7,8
 1268 1430 1268 1430 1268 1250 c 2,9,-1
 1268 0 l 1,10,-1
 918 0 l 1,0,-1
512 518 m 1,11,-1
 918 518 l 1,12,-1
 918 1205 l 1,13,14
 779 1076 779 1076 682 923 c 0,15,16
 572 750 572 750 512 518 c 1,11,-1
EndSplineSet
Validated: 1
EndChar

StartChar: five
Encoding: 53 53 24
Width: 1552
GlyphClass: 2
Flags: W
HStem: -20 266<559.036 870.56> 839 267<652.707 953.032> 1211 300<680 1265>
VStem: 1042 360<423.548 751.272>
LayerCount: 2
Fore
SplineSet
100 419 m 0,0,1
 440 544 l 1,2,3
 477 246 477 246 693 246 c 0,4,5
 844 246 844 246 938 344 c 0,6,7
 1042 454 1042 454 1042 577 c 0,8,9
 1042 710 1042 710 982 771 c 0,10,11
 917 839 917 839 810 839 c 0,12,13
 645 839 645 839 554 712 c 1,14,-1
 244 712 l 1,15,-1
 384 1511 l 1,16,-1
 1265 1511 l 1,17,-1
 1265 1211 l 1,18,-1
 680 1211 l 1,19,-1
 651 1083 l 1,20,21
 739 1106 739 1106 830 1106 c 0,22,23
 1117 1106 1117 1106 1286 919 c 0,24,25
 1402 790 1402 790 1402 602 c 0,26,27
 1402 345 1402 345 1172 155 c 0,28,29
 961 -20 961 -20 694 -20 c 0,30,31
 248 -20 248 -20 100 419 c 0,0,1
EndSplineSet
Validated: 1
EndChar

StartChar: six
Encoding: 54 54 25
Width: 1643
GlyphClass: 2
Flags: W
HStem: -20 270<631.929 971.534> 834 272<719.667 1039.11> 1257 274<811.202 1237.83>
VStem: 150 374<361.671 662.528> 1138 355<414.525 737.418>
LayerCount: 2
Fore
SplineSet
1415 1489 m 1,0,1
 1216 1242 l 1,2,3
 1139 1257 1139 1257 1085 1257 c 0,4,5
 964 1257 964 1257 851 1226 c 0,6,7
 706 1184 706 1184 602 1056 c 0,8,9
 566 1011 566 1011 542 957 c 1,10,11
 741 1106 741 1106 921 1106 c 0,12,13
 1182 1106 1182 1106 1339 958 c 0,14,15
 1493 813 1493 813 1493 598 c 0,16,17
 1493 395 1493 395 1341 224 c 0,18,19
 1124 -20 1124 -20 771 -20 c 0,20,21
 508 -20 508 -20 348 130 c 0,22,23
 150 316 150 316 150 628 c 0,24,25
 150 979 150 979 351 1199 c 0,26,27
 522 1386 522 1386 723 1464 c 0,28,29
 896 1531 896 1531 1099 1531 c 0,30,31
 1287 1531 1287 1531 1415 1489 c 1,0,1
780 250 m 0,32,33
 959 250 959 250 1053 357 c 0,34,35
 1138 454 1138 454 1138 586 c 0,36,37
 1138 690 1138 690 1075 760 c 0,38,39
 1007 834 1007 834 893 834 c 0,40,41
 740 834 740 834 636 743 c 0,42,43
 524 645 524 645 524 511 c 0,44,45
 524 393 524 393 598.5 321.5 c 128,-1,46
 673 250 673 250 780 250 c 0,32,33
EndSplineSet
Validated: 1
EndChar

StartChar: seven
Encoding: 55 55 26
Width: 1313
GlyphClass: 2
Flags: W
HStem: 0 21G<150 628.5> 1211 300<160.75 847.71>
VStem: 50 20<1041 1061.59> 150 382<0 382> 851 362<906.478 1209.12>
LayerCount: 2
Fore
SplineSet
150 0 m 1,0,1
 457 336 457 336 671 631 c 0,2,3
 851 880 851 880 851 1116 c 0,4,5
 851 1160 851 1160 840 1211 c 1,6,-1
 311 1211 l 2,7,8
 131 1211 131 1211 70 1041 c 1,9,-1
 50 1041 l 1,10,-1
 50 1375 l 1,11,12
 131 1511 131 1511 311 1511 c 2,13,-1
 1110 1511 l 1,14,15
 1213 1380 1213 1380 1213 1185 c 0,16,17
 1213 845 1213 845 944 488 c 0,18,19
 725 199 725 199 532 0 c 1,20,-1
 150 0 l 1,0,1
EndSplineSet
Validated: 1
EndChar

StartChar: eight
Encoding: 56 56 27
Width: 1494
GlyphClass: 2
Flags: W
HStem: -20 263<545.053 870.377> 827 257<690.724 851.838> 1266 265<699.935 874.54>
VStem: 100 346<339.979 660.979> 327 338<1095.61 1234.47> 893 336<1113.86 1253.93> 1050 344<413.626 718.998>
LayerCount: 2
Fore
SplineSet
804 827 m 0,0,1
 625 827 625 827 531 720 c 0,2,3
 446 623 446 623 446 491 c 0,4,5
 446 387 446 387 509 317 c 0,6,7
 577 243 577 243 691 243 c 0,8,9
 834 243 834 243 938 334 c 0,10,11
 1050 432 1050 432 1050 566 c 0,12,13
 1050 684 1050 684 975.5 755.5 c 128,-1,14
 901 827 901 827 804 827 c 0,0,1
672 -20 m 0,15,16
 389 -20 389 -20 240 125 c 0,17,18
 100 261 100 261 100 469 c 0,19,20
 100 661 100 661 249 824 c 0,21,22
 314 895 314 895 396 943 c 1,23,24
 327 1017 327 1017 327 1123 c 0,25,26
 327 1319 327 1319 528 1454 c 0,27,28
 643 1531 643 1531 835 1531 c 0,29,30
 998 1531 998 1531 1112 1440 c 24,31,32
 1229 1347 1229 1347 1229 1211 c 0,33,34
 1229 1081 1229 1081 1140 989 c 1,35,36
 1237 940 1237 940 1301 864 c 0,37,38
 1394 754 1394 754 1394 560 c 0,39,40
 1394 351 1394 351 1206 180 c 0,41,42
 986 -20 986 -20 672 -20 c 0,15,16
865 1252 m 0,43,44
 844 1266 844 1266 806 1266 c 0,45,46
 744 1266 744 1266 707 1236 c 0,47,48
 665 1202 665 1202 665 1150 c 0,49,50
 665 1118 665 1118 690 1100 c 0,51,52
 713 1084 713 1084 756 1084 c 0,53,54
 816 1084 816 1084 853 1115 c 0,55,56
 893 1149 893 1149 893 1197 c 0,57,58
 893 1232 893 1232 865 1252 c 0,43,44
EndSplineSet
Validated: 1
EndChar

StartChar: nine
Encoding: 57 57 28
Width: 1643
GlyphClass: 2
Flags: W
HStem: -20 274<405.167 831.798> 405 272<603.885 923.333> 1261 270<671.466 1011.07>
VStem: 150 355<773.582 1096.48> 1119 374<848.472 1149.33>
LayerCount: 2
Fore
SplineSet
228 22 m 1,0,1
 427 269 l 1,2,3
 504 254 504 254 558 254 c 0,4,5
 679 254 679 254 792 285 c 0,6,7
 937 327 937 327 1041 455 c 0,8,9
 1077 500 1077 500 1101 554 c 1,10,11
 902 405 902 405 722 405 c 0,12,13
 461 405 461 405 304 553 c 0,14,15
 150 698 150 698 150 913 c 0,16,17
 150 1116 150 1116 302 1287 c 0,18,19
 519 1531 519 1531 872 1531 c 0,20,21
 1135 1531 1135 1531 1295 1381 c 0,22,23
 1493 1195 1493 1195 1493 883 c 0,24,25
 1493 532 1493 532 1292 312 c 0,26,27
 1121 125 1121 125 920 47 c 0,28,29
 747 -20 747 -20 544 -20 c 0,30,31
 356 -20 356 -20 228 22 c 1,0,1
863 1261 m 0,32,33
 684 1261 684 1261 590 1154 c 0,34,35
 505 1057 505 1057 505 925 c 0,36,37
 505 821 505 821 568 751 c 0,38,39
 636 677 636 677 750 677 c 0,40,41
 903 677 903 677 1007 768 c 0,42,43
 1119 866 1119 866 1119 1000 c 0,44,45
 1119 1118 1119 1118 1044.5 1189.5 c 128,-1,46
 970 1261 970 1261 863 1261 c 0,32,33
EndSplineSet
Validated: 1
EndChar

StartChar: colon
Encoding: 58 58 29
Width: 702
GlyphClass: 2
Flags: W
HStem: -20 405<224.108 476.67> 567 405<224.108 475.69>
VStem: 150 402<56.1094 308.875 643.109 895.875>
LayerCount: 2
Fore
SplineSet
552 764 m 0,0,1
 552 687 552 687 496 627 c 128,-1,2
 440 567 440 567 351 567 c 0,3,4
 266 567 266 567 207 628 c 0,5,6
 150 687 150 687 150 769 c 0,7,8
 150 852 150 852 207 911 c 0,9,10
 266 972 266 972 351 972 c 0,11,12
 433 972 433 972 493 913 c 0,13,14
 552 855 552 855 552 764 c 0,0,1
552 177 m 0,15,16
 552 100 552 100 496 40 c 128,-1,17
 440 -20 440 -20 351 -20 c 0,18,19
 266 -20 266 -20 207 41 c 0,20,21
 150 100 150 100 150 182 c 0,22,23
 150 265 150 265 207 324 c 0,24,25
 266 385 266 385 351 385 c 0,26,27
 434 385 434 385 494 326 c 0,28,29
 552 268 552 268 552 177 c 0,15,16
EndSplineSet
Validated: 1
EndChar

StartChar: semicolon
Encoding: 59 59 30
Width: 756
GlyphClass: 2
Flags: W
HStem: -410 21G<332.579 478.5> 567 405<224.108 475.69>
VStem: 150 402<643.109 895.875> 271 335<-180.598 88.4692>
LayerCount: 2
Fore
SplineSet
552 764 m 0,0,1
 552 687 552 687 496 627 c 128,-1,2
 440 567 440 567 351 567 c 0,3,4
 266 567 266 567 207 628 c 0,5,6
 150 687 150 687 150 769 c 0,7,8
 150 852 150 852 207 911 c 0,9,10
 266 972 266 972 351 972 c 0,11,12
 433 972 433 972 493 913 c 0,13,14
 552 855 552 855 552 764 c 0,0,1
150 147 m 1,15,-1
 437 366 l 1,16,17
 606 207 606 207 606 -12 c 0,18,19
 606 -266 606 -266 351 -410 c 1,20,-1
 176 -220 l 1,21,22
 271 -170 271 -170 271 -39 c 0,23,24
 271 86 271 86 150 147 c 1,15,-1
EndSplineSet
Validated: 1
EndChar

StartChar: less
Encoding: 60 60 31
Width: 1356
GlyphClass: 2
Flags: W
HStem: 49 396<760 1156> 1157 328<828 1156>
DStem2: 150 897 541 806 0.863343 0.504618<291.647 999.724> 541 806 150 638 0.862969 -0.505257<0 713.124>
LayerCount: 2
Fore
SplineSet
150 638 m 1,0,-1
 150 897 l 1,1,-1
 1156 1485 l 1,2,-1
 1156 1157 l 1,3,-1
 541 806 l 1,4,-1
 1156 445 l 1,5,-1
 1156 49 l 1,6,-1
 150 638 l 1,0,-1
EndSplineSet
Validated: 1
EndChar

StartChar: equal
Encoding: 61 61 32
Width: 1333
GlyphClass: 2
Flags: W
HStem: 370 300<150 1183> 864 300<150 1183>
LayerCount: 2
Fore
SplineSet
150 370 m 1,0,-1
 150 670 l 1,1,-1
 1183 670 l 1,2,-1
 1183 370 l 1,3,-1
 150 370 l 1,0,-1
150 864 m 1,4,-1
 150 1164 l 1,5,-1
 1183 1164 l 1,6,-1
 1183 864 l 1,7,-1
 150 864 l 1,4,-1
EndSplineSet
Validated: 1
EndChar

StartChar: greater
Encoding: 62 62 33
Width: 1356
GlyphClass: 2
Flags: W
HStem: 49 328<200 528> 1089 396<200 596>
DStem2: 200 1485 200 1089 0.862969 -0.505257<200.082 913.206> 200 377 200 49 0.863343 0.504618<0 708.077>
LayerCount: 2
Fore
SplineSet
1206 896 m 1,0,-1
 1206 637 l 1,1,-1
 200 49 l 1,2,-1
 200 377 l 1,3,-1
 815 728 l 1,4,-1
 200 1089 l 1,5,-1
 200 1485 l 1,6,-1
 1206 896 l 1,0,-1
EndSplineSet
Validated: 1
EndChar

StartChar: question
Encoding: 63 63 34
Width: 1546
GlyphClass: 2
Flags: W
HStem: -20 405<589.108 841.912> 1257 274<650.173 952.156>
VStem: 515 402<56.1094 308.875> 1043 353<899.752 1168.38>
LayerCount: 2
Fore
SplineSet
917 177 m 0,0,1
 917 100 917 100 861 40 c 128,-1,2
 805 -20 805 -20 716 -20 c 0,3,4
 631 -20 631 -20 572 41 c 0,5,6
 515 100 515 100 515 182 c 0,7,8
 515 265 515 265 572 324 c 0,9,10
 631 385 631 385 716 385 c 0,11,12
 800 385 800 385 859 326 c 0,13,14
 917 268 917 268 917 177 c 0,0,1
150 1063 m 1,15,16
 261 1286 261 1286 428 1407 c 0,17,18
 600 1531 600 1531 820 1531 c 0,19,20
 1097 1531 1097 1531 1256 1372 c 0,21,22
 1396 1231 1396 1231 1396 1031 c 0,23,24
 1396 793 1396 793 1116 607 c 1,25,-1
 870 437 l 1,26,-1
 567 437 l 1,27,28
 567 490 567 490 594 531 c 0,29,30
 611 557 611 557 683 617 c 2,31,-1
 932 825 l 2,32,33
 1043 918 1043 918 1043 1036 c 0,34,35
 1043 1120 1043 1120 991 1179 c 0,36,37
 922 1257 922 1257 800 1257 c 0,38,39
 690 1257 690 1257 598 1173 c 0,40,41
 489 1073 489 1073 446 900 c 1,42,-1
 150 1063 l 1,15,16
EndSplineSet
Validated: 1
EndChar

StartChar: at
Encoding: 64 64 35
Width: 1867
GlyphClass: 2
Flags: W
HStem: -410 264<716.266 1139.15> -20 255<1032.68 1237.17> 0 20<1816.41 1837> 597 128<1052.28 1143.91> 846 274<848.905 1231.63>
VStem: 150 352<76.9536 512.959> 672 318<278.055 520.828> 1318 349<332.467 751.586>
LayerCount: 2
Fore
SplineSet
1837 0 m 1,0,-1
 1453 0 l 1,1,2
 1371 49 1371 49 1339 132 c 1,3,4
 1283 39 1283 39 1222 12 c 0,5,6
 1150 -20 1150 -20 1035 -20 c 0,7,8
 886 -20 886 -20 784 71 c 0,9,10
 672 171 672 171 672 347 c 0,11,12
 672 516 672 516 809 630 c 0,13,14
 923 725 923 725 1065 725 c 0,15,16
 1201 725 1201 725 1241 599 c 1,17,18
 1174 599 1174 599 1148 597 c 0,19,20
 1083 592 1083 592 1033 532 c 0,21,22
 990 480 990 480 990 392 c 0,23,24
 990 323 990 323 1034 276 c 0,25,26
 1072 235 1072 235 1140 235 c 0,27,28
 1220 235 1220 235 1269 324 c 128,-1,29
 1318 413 1318 413 1318 558 c 0,30,31
 1318 699 1318 699 1260 775 c 0,32,33
 1206 846 1206 846 1067 846 c 24,34,35
 846 846 846 846 679 694 c 0,36,37
 502 533 502 533 502 302 c 0,38,39
 502 87 502 87 623 -36 c 0,40,41
 732 -146 732 -146 923 -146 c 0,42,43
 1066 -146 1066 -146 1186 -79 c 1,44,-1
 1418 -244 l 1,45,46
 1224 -410 1224 -410 913 -410 c 0,47,48
 561 -410 561 -410 348 -210 c 0,49,50
 150 -24 150 -24 150 268 c 0,51,52
 150 639 150 639 479 903 c 0,53,54
 749 1120 749 1120 1081 1120 c 0,55,56
 1366 1120 1366 1120 1520 952 c 0,57,58
 1667 791 1667 791 1667 526 c 2,59,-1
 1667 261 l 2,60,61
 1667 81 1667 81 1837 20 c 1,62,-1
 1837 0 l 1,0,-1
EndSplineSet
Validated: 1
EndChar

StartChar: A
Encoding: 65 65 36
Width: 1767
GlyphClass: 2
Flags: W
HStem: 0 21G<5 349.469 1369.24 1762> 621 300<761 946> 1491 20G<727.311 1039.69>
VStem: 5 335<0 335> 1379 383<0 383>
DStem2: 5 0 340 0 0.435981 0.899956<146.054 833.105 1158.46 1296.79> 1030 1511 852 1136 0.435981 -0.899956<259.879 494.351>
LayerCount: 2
Fore
SplineSet
5 0 m 1,0,-1
 737 1511 l 1,1,-1
 1030 1511 l 1,2,-1
 1762 0 l 1,3,-1
 1379 0 l 1,4,-1
 1076 621 l 1,5,-1
 634 621 l 1,6,-1
 340 0 l 1,7,-1
 5 0 l 1,0,-1
852 1136 m 1,8,-1
 761 921 l 1,9,-1
 946 921 l 1,10,-1
 852 1136 l 1,8,-1
EndSplineSet
Validated: 1
EndChar

StartChar: B
Encoding: 66 66 37
Width: 1602
GlyphClass: 2
Flags: W
HStem: -20 258<654.883 932.346> 0 21G<200 550> 1258 273<634.224 851.355> 1491 20<30 50.5859>
VStem: 200 350<0 1167.58> 875 325<1059.8 1230.29> 1150 352<437.46 768.503>
LayerCount: 2
Fore
SplineSet
200 0 m 1,0,-1
 200 1250 l 2,1,2
 200 1430 200 1430 30 1491 c 1,3,-1
 30 1511 l 1,4,-1
 414 1511 l 1,5,6
 456 1486 456 1486 484 1452 c 1,7,8
 613 1531 613 1531 805 1531 c 0,9,10
 949 1531 949 1531 1060 1457 c 0,11,12
 1200 1364 1200 1364 1200 1226 c 0,13,14
 1200 1142 1200 1142 1153 1067 c 1,15,16
 1284 1034 1284 1034 1374 939 c 0,17,18
 1502 804 1502 804 1502 622 c 0,19,20
 1502 394 1502 394 1333 210 c 1,21,22
 1120 -20 1120 -20 778 -20 c 0,23,24
 669 -20 669 -20 628 63 c 0,25,26
 607 106 607 106 607 153 c 0,27,28
 607 202 607 202 631 258 c 1,29,30
 677 238 677 238 742 238 c 0,31,32
 916 238 916 238 1047 363 c 0,33,34
 1150 461 1150 461 1150 619 c 0,35,36
 1150 732 1150 732 1085 792 c 128,-1,37
 1020 852 1020 852 920 852 c 0,38,39
 782 852 782 852 611 838 c 1,40,41
 702 896 702 896 817 1031 c 0,42,43
 875 1099 875 1099 875 1161 c 0,44,45
 875 1199 875 1199 846 1226 c 0,46,47
 810 1258 810 1258 751 1258 c 0,48,49
 666 1258 666 1258 608 1186 c 128,-1,50
 550 1114 550 1114 550 1015 c 2,51,-1
 550 0 l 1,52,-1
 200 0 l 1,0,-1
EndSplineSet
Validated: 1
EndChar

StartChar: C
Encoding: 67 67 38
Width: 1781
GlyphClass: 2
Flags: W
HStem: -20 273<672.469 1104.25> 1258 273<796.174 1236.57>
VStem: 100 360<463.768 917.395>
LayerCount: 2
Fore
SplineSet
1690 411 m 1,0,1
 1612 287 1612 287 1483 183 c 0,2,3
 1231 -20 1231 -20 863 -20 c 0,4,5
 513 -20 513 -20 292 188 c 0,6,7
 100 369 100 369 100 676 c 0,8,9
 100 1066 100 1066 426 1328 c 0,10,11
 679 1531 679 1531 1046 1531 c 0,12,13
 1395 1531 1395 1531 1617 1323 c 0,14,15
 1665 1278 1665 1278 1701 1225 c 9,16,-1
 1403 1048 l 17,17,18
 1378 1098 1378 1098 1340 1138 c 0,19,20
 1226 1258 1226 1258 1046 1258 c 0,21,22
 794 1258 794 1258 646 1120 c 0,23,24
 460 946 460 946 460 682 c 0,25,26
 460 485 460 485 569 372 c 0,27,28
 684 253 684 253 863 253 c 0,29,30
 1100 253 1100 253 1263 391 c 0,31,32
 1368 480 1368 480 1414 608 c 1,33,-1
 1690 411 l 1,0,1
EndSplineSet
Validated: 1
EndChar

StartChar: D
Encoding: 68 68 39
Width: 1792
GlyphClass: 2
Flags: W
HStem: -20 258<654.883 961.008> 0 21G<200 550> 1257 274<704.33 1133.84> 1491 20<30 50.5859>
VStem: 200 350<0 1123> 1342 350<611.223 1048.55>
LayerCount: 2
Fore
SplineSet
200 0 m 1,0,-1
 200 1250 l 2,1,2
 200 1430 200 1430 30 1491 c 1,3,-1
 30 1511 l 1,4,-1
 414 1511 l 1,5,6
 476 1474 476 1474 510 1417 c 1,7,8
 538 1434 538 1434 571 1447 c 0,9,10
 784 1531 784 1531 949 1531 c 0,11,12
 1293 1531 1293 1531 1503 1320 c 0,13,14
 1692 1130 1692 1130 1692 835 c 0,15,16
 1692 495 1692 495 1406 236 c 0,17,18
 1123 -20 1123 -20 778 -20 c 0,19,20
 669 -20 669 -20 628 63 c 0,21,22
 607 106 607 106 607 153 c 0,23,24
 607 202 607 202 631 258 c 1,25,26
 677 238 677 238 742 238 c 0,27,28
 965 238 965 238 1139 397 c 0,29,30
 1342 582 1342 582 1342 831 c 0,31,32
 1342 1021 1342 1021 1240 1135 c 0,33,34
 1130 1257 1130 1257 930 1257 c 0,35,36
 771 1257 771 1257 679 1199 c 0,37,38
 550 1118 550 1118 550 994 c 2,39,-1
 550 0 l 1,40,-1
 200 0 l 1,0,-1
EndSplineSet
Validated: 1
EndChar

StartChar: E
Encoding: 69 69 40
Width: 1781
GlyphClass: 2
Flags: W
HStem: -20 273<672.469 1104.25> 621 300<505 1267> 1258 273<795.928 1236.57>
VStem: 100 1167<628.8 918.156>
LayerCount: 2
Fore
SplineSet
1690 411 m 1,0,1
 1612 287 1612 287 1483 183 c 0,2,3
 1231 -20 1231 -20 863 -20 c 0,4,5
 513 -20 513 -20 292 188 c 0,6,7
 100 369 100 369 100 676 c 0,8,9
 100 1066 100 1066 426 1328 c 0,10,11
 679 1531 679 1531 1046 1531 c 0,12,13
 1395 1531 1395 1531 1617 1323 c 0,14,15
 1665 1278 1665 1278 1701 1225 c 1,16,-1
 1403 1048 l 1,17,18
 1378 1098 1378 1098 1340 1138 c 0,19,20
 1226 1258 1226 1258 1046 1258 c 0,21,22
 793 1258 793 1258 646 1120 c 0,23,24
 552 1032 552 1032 505 921 c 1,25,-1
 1267 921 l 1,26,-1
 1267 621 l 1,27,-1
 463 621 l 1,28,29
 477 467 477 467 569 372 c 0,30,31
 684 253 684 253 863 253 c 0,32,33
 1100 253 1100 253 1263 391 c 0,34,35
 1368 480 1368 480 1414 608 c 1,36,-1
 1690 411 l 1,0,1
EndSplineSet
Validated: 1
EndChar

StartChar: F
Encoding: 70 70 41
Width: 1514
GlyphClass: 2
Flags: W
HStem: 0 21G<200 550> 621 300<550 1120> 1255 276<712.029 1042.87> 1491 20<30 50.5859>
VStem: 200 350<0 621 921 1107.65>
LayerCount: 2
Fore
SplineSet
200 0 m 1,0,-1
 200 1250 l 2,1,2
 200 1430 200 1430 30 1491 c 1,3,-1
 30 1511 l 1,4,-1
 414 1511 l 1,5,6
 484 1469 484 1469 518 1402 c 1,7,8
 571 1435 571 1435 641 1468 c 0,9,10
 775 1531 775 1531 922 1531 c 0,11,12
 1083 1531 1083 1531 1211 1455 c 0,13,14
 1362 1365 1362 1365 1464 1195 c 1,15,-1
 1158 1012 l 1,16,17
 1131 1141 1131 1141 1043 1210 c 0,18,19
 985 1255 985 1255 896 1255 c 0,20,21
 774 1255 774 1255 672 1187 c 0,22,23
 550 1106 550 1106 550 943 c 2,24,-1
 550 921 l 1,25,-1
 1120 921 l 1,26,-1
 1120 621 l 1,27,-1
 550 621 l 1,28,-1
 550 0 l 1,29,-1
 200 0 l 1,0,-1
EndSplineSet
Validated: 1
EndChar

StartChar: G
Encoding: 71 71 42
Width: 1909
GlyphClass: 2
Flags: W
HStem: -20 273<672.469 1104.25> 621 300<1015 1418> 1258 273<796.174 1236.57>
VStem: 100 360<463.768 917.395>
LayerCount: 2
Fore
SplineSet
1809 921 m 1,0,-1
 1809 835 l 2,1,2
 1809 446 1809 446 1483 183 c 0,3,4
 1231 -20 1231 -20 863 -20 c 0,5,6
 513 -20 513 -20 292 188 c 0,7,8
 100 369 100 369 100 676 c 0,9,10
 100 1066 100 1066 426 1328 c 0,11,12
 679 1531 679 1531 1046 1531 c 0,13,14
 1395 1531 1395 1531 1617 1323 c 0,15,16
 1665 1278 1665 1278 1701 1225 c 9,17,-1
 1403 1048 l 17,18,19
 1378 1098 1378 1098 1340 1138 c 0,20,21
 1226 1258 1226 1258 1046 1258 c 0,22,23
 794 1258 794 1258 646 1120 c 0,24,25
 460 946 460 946 460 682 c 0,26,27
 460 485 460 485 569 372 c 0,28,29
 684 253 684 253 863 253 c 0,30,31
 1100 253 1100 253 1263 391 c 0,32,33
 1373 484 1373 484 1418 621 c 1,34,-1
 1015 621 l 1,35,-1
 1015 921 l 1,36,-1
 1809 921 l 1,0,-1
EndSplineSet
Validated: 1
EndChar

StartChar: H
Encoding: 72 72 43
Width: 1722
GlyphClass: 2
Flags: W
HStem: 0 20<1671.41 1692> 621 300<550 1172> 1491 20<30 50.5859>
VStem: 200 350<0 621 921 1400.25> 1172 350<110.75 621 921 1511>
LayerCount: 2
Fore
SplineSet
200 0 m 1,0,-1
 200 1250 l 2,1,2
 200 1430 200 1430 30 1491 c 1,3,-1
 30 1511 l 1,4,-1
 414 1511 l 1,5,6
 550 1430 550 1430 550 1250 c 2,7,-1
 550 921 l 1,8,-1
 1172 921 l 1,9,-1
 1172 1511 l 1,10,-1
 1522 1511 l 1,11,-1
 1522 261 l 2,12,13
 1522 81 1522 81 1692 20 c 1,14,-1
 1692 0 l 1,15,-1
 1308 0 l 1,16,17
 1172 81 1172 81 1172 261 c 2,18,-1
 1172 621 l 1,19,-1
 550 621 l 1,20,-1
 550 0 l 1,21,-1
 200 0 l 1,0,-1
EndSplineSet
Validated: 1
EndChar

StartChar: I
Encoding: 73 73 44
Width: 750
GlyphClass: 2
Flags: W
HStem: 0 21G<200 550> 1491 20<30 50.5859>
VStem: 200 350<0 1400.25>
LayerCount: 2
Fore
SplineSet
200 0 m 1,0,-1
 200 1250 l 2,1,2
 200 1430 200 1430 30 1491 c 1,3,-1
 30 1511 l 1,4,-1
 414 1511 l 1,5,6
 550 1430 550 1430 550 1250 c 2,7,-1
 550 0 l 1,8,-1
 200 0 l 1,0,-1
EndSplineSet
Validated: 1
EndChar

StartChar: J
Encoding: 74 74 45
Width: 1410
GlyphClass: 2
Flags: W
HStem: -20 273<384.422 678.435> 1211 300<530.75 860>
VStem: 420 20<1041 1061.59> 860 350<444.075 1211>
LayerCount: 2
Fore
SplineSet
20 193 m 1,0,-1
 279 414 l 1,1,2
 380 253 380 253 514 253 c 0,3,4
 656 253 656 253 751 354 c 0,5,6
 860 470 860 470 860 627 c 2,7,-1
 860 1211 l 1,8,-1
 681 1211 l 2,9,10
 501 1211 501 1211 440 1041 c 1,11,-1
 420 1041 l 1,12,-1
 420 1375 l 1,13,14
 501 1511 501 1511 681 1511 c 2,15,-1
 1209 1511 l 1,16,-1
 1210 674 l 2,17,18
 1210 377 1210 377 966 149 c 0,19,20
 785 -20 785 -20 502 -20 c 0,21,22
 225 -20 225 -20 20 193 c 1,0,-1
EndSplineSet
Validated: 1
EndChar

StartChar: K
Encoding: 75 75 46
Width: 1642
GlyphClass: 2
Flags: W
HStem: 0 21G<200 550 1100.17 1637> 1491 20<30 50.5859>
VStem: 200 350<0 278.957 540 1400.25> 1068 360<888.149 1249.66>
LayerCount: 2
Fore
SplineSet
200 0 m 1,0,-1
 200 1250 l 2,1,2
 200 1430 200 1430 30 1491 c 1,3,-1
 30 1511 l 1,4,-1
 414 1511 l 1,5,6
 550 1430 550 1430 550 1250 c 2,7,-1
 550 540 l 1,8,9
 794 636 794 636 910 744 c 0,10,11
 1068 891 1068 891 1068 1063 c 0,12,13
 1068 1199 1068 1199 986 1310 c 0,14,15
 900 1430 900 1430 802 1511 c 1,16,-1
 1214 1511 l 1,17,18
 1280 1447 1280 1447 1349 1338 c 0,19,20
 1428 1213 1428 1213 1428 1071 c 0,21,22
 1428 871 1428 871 1288 696 c 0,23,24
 1197 584 1197 584 1050 492 c 1,25,-1
 1637 0 l 1,26,-1
 1124 0 l 1,27,-1
 726 334 l 1,28,29
 614 284 614 284 550 263 c 1,30,-1
 550 0 l 1,31,-1
 200 0 l 1,0,-1
EndSplineSet
Validated: 1
EndChar

StartChar: L
Encoding: 76 76 47
Width: 1198
GlyphClass: 2
Flags: W
HStem: 0 300<550 1067.25> 1491 20<30 50.5859>
VStem: 200 350<300 1400.25> 1158 20<449.414 470>
LayerCount: 2
Fore
SplineSet
200 0 m 1,0,-1
 200 1250 l 2,1,2
 200 1430 200 1430 30 1491 c 1,3,-1
 30 1511 l 1,4,-1
 414 1511 l 1,5,6
 550 1430 550 1430 550 1250 c 2,7,-1
 550 300 l 1,8,-1
 917 300 l 2,9,10
 1097 300 1097 300 1158 470 c 1,11,-1
 1178 470 l 1,12,-1
 1178 136 l 1,13,14
 1097 0 1097 0 917 0 c 2,15,-1
 200 0 l 1,0,-1
EndSplineSet
Validated: 1
EndChar

StartChar: M
Encoding: 77 77 48
Width: 2622
GlyphClass: 2
Flags: W
HStem: 0 21G<200 550 1136 1486 1731 2229.5> 1257 274<741.173 1068.87 1652.95 1966.03> 1491 20<30 50.5859>
VStem: 200 350<0 1082.09> 1136 350<0 1100.91> 2162 360<528.76 1035.74>
LayerCount: 2
Fore
SplineSet
200 0 m 1,0,-1
 200 1250 l 2,1,2
 200 1430 200 1430 30 1491 c 1,3,-1
 30 1511 l 1,4,-1
 414 1511 l 1,5,6
 485 1469 485 1469 519 1399 c 1,7,8
 584 1439 584 1439 663 1469 c 0,9,10
 826 1531 826 1531 963 1531 c 0,11,12
 1193 1531 1193 1531 1348 1388 c 0,13,14
 1373 1365 1373 1365 1392 1339 c 1,15,16
 1458 1402 1458 1402 1538 1455 c 0,17,18
 1653 1531 1653 1531 1818 1531 c 0,19,20
 2128 1531 2128 1531 2333 1317 c 0,21,22
 2522 1120 2522 1120 2522 824 c 0,23,24
 2522 559 2522 559 2394 333 c 0,25,26
 2308 181 2308 181 2151 0 c 1,27,-1
 1731 0 l 1,28,29
 1952 160 1952 160 2080 414 c 0,30,31
 2162 577 2162 577 2162 795 c 0,32,33
 2162 1003 2162 1003 2067 1123 c 0,34,35
 1966 1251 1966 1251 1817 1251 c 0,36,37
 1686 1251 1686 1251 1590 1171 c 0,38,39
 1486 1084 1486 1084 1486 910 c 2,40,-1
 1486 0 l 1,41,-1
 1136 0 l 1,42,-1
 1136 1052 l 2,43,44
 1136 1151 1136 1151 1084 1201 c 0,45,46
 1026 1257 1026 1257 946 1257 c 0,47,48
 784 1257 784 1257 673 1171 c 0,49,50
 550 1076 550 1076 550 910 c 2,51,-1
 550 0 l 1,52,-1
 200 0 l 1,0,-1
EndSplineSet
Validated: 1
EndChar

StartChar: N
Encoding: 78 78 49
Width: 1746
GlyphClass: 2
Flags: W
HStem: 0 21G<200 550 855 1354> 1251 280<733.104 1097.81> 1491 20<30 50.5859>
VStem: 200 350<0 1081.26> 1286 360<528.76 1035.74>
LayerCount: 2
Fore
SplineSet
200 0 m 1,0,-1
 200 1250 l 2,1,2
 200 1430 200 1430 30 1491 c 1,3,-1
 30 1511 l 1,4,-1
 414 1511 l 1,5,6
 488 1467 488 1467 522 1393 c 1,7,8
 586 1437 586 1437 661 1469 c 0,9,10
 808 1531 808 1531 942 1531 c 0,11,12
 1252 1531 1252 1531 1457 1317 c 0,13,14
 1646 1120 1646 1120 1646 824 c 0,15,16
 1646 559 1646 559 1518 333 c 0,17,18
 1432 181 1432 181 1276 0 c 1,19,-1
 855 0 l 1,20,21
 1076 160 1076 160 1204 414 c 0,22,23
 1286 577 1286 577 1286 795 c 0,24,25
 1286 1003 1286 1003 1191 1123 c 0,26,27
 1090 1251 1090 1251 936 1251 c 0,28,29
 778 1251 778 1251 673 1170 c 0,30,31
 550 1075 550 1075 550 910 c 2,32,-1
 550 0 l 1,33,-1
 200 0 l 1,0,-1
EndSplineSet
Validated: 1
EndChar

StartChar: O
Encoding: 79 79 50
Width: 1909
GlyphClass: 2
Flags: W
HStem: -20 273<672.469 1104.25> 1258 273<796.174 1236.29>
VStem: 100 360<463.768 917.395> 1449 360<584.163 1042.03>
LayerCount: 2
Fore
SplineSet
863 -20 m 0,0,1
 513 -20 513 -20 292 188 c 0,2,3
 100 369 100 369 100 676 c 0,4,5
 100 1066 100 1066 426 1328 c 0,6,7
 679 1531 679 1531 1046 1531 c 0,8,9
 1396 1531 1396 1531 1617 1323 c 0,10,11
 1809 1142 1809 1142 1809 835 c 0,12,13
 1809 446 1809 446 1483 183 c 0,14,15
 1231 -20 1231 -20 863 -20 c 0,0,1
863 253 m 0,16,17
 1100 253 1100 253 1263 391 c 0,18,19
 1449 548 1449 548 1449 829 c 0,20,21
 1449 1022 1449 1022 1340 1138 c 0,22,23
 1224 1258 1224 1258 1046 1258 c 0,24,25
 794 1258 794 1258 646 1120 c 0,26,27
 460 946 460 946 460 682 c 0,28,29
 460 485 460 485 569 372 c 0,30,31
 684 253 684 253 863 253 c 0,16,17
EndSplineSet
Validated: 1
EndChar

StartChar: P
Encoding: 80 80 51
Width: 1600
GlyphClass: 2
Flags: W
HStem: 0 21G<200 550> 318 259<679.24 935.465> 1257 274<744.267 1042.32> 1491 20<30 50.5859>
VStem: 200 350<0 1058.31> 1139 361<784.678 1155.94>
LayerCount: 2
Fore
SplineSet
200 0 m 1,0,-1
 200 1250 l 2,1,2
 200 1430 200 1430 30 1491 c 1,3,-1
 30 1511 l 1,4,-1
 414 1511 l 1,5,6
 484 1469 484 1469 518 1402 c 1,7,8
 576 1436 576 1436 642 1468 c 0,9,10
 772 1531 772 1531 928 1531 c 0,11,12
 1177 1531 1177 1531 1353 1366 c 0,13,14
 1500 1228 1500 1228 1500 1009 c 0,15,16
 1500 673 1500 673 1227 464 c 0,17,18
 1036 318 1036 318 802 318 c 0,19,20
 694 318 694 318 652 401 c 0,21,22
 631 443 631 443 631 491 c 0,23,24
 631 540 631 540 655 596 c 1,25,26
 706 577 706 577 768 577 c 0,27,28
 907 577 907 577 1016 682 c 0,29,30
 1139 801 1139 801 1139 961 c 0,31,32
 1139 1093 1139 1093 1086 1168 c 0,33,34
 1023 1257 1023 1257 907 1257 c 0,35,36
 775 1257 775 1257 670 1157 c 0,37,38
 550 1042 550 1042 550 869 c 2,39,-1
 550 0 l 1,40,-1
 200 0 l 1,0,-1
EndSplineSet
Validated: 1
EndChar

StartChar: Q
Encoding: 81 81 52
Width: 1909
GlyphClass: 2
Flags: W
HStem: -20 273<672.469 1036.58> 0 21G<1345 1882> 1258 273<796.174 1236.29>
VStem: 100 360<463.768 917.395> 1449 360<587.532 1042.72>
LayerCount: 2
Fore
SplineSet
1882 0 m 1,0,-1
 1369 0 l 1,1,-1
 1291 65 l 1,2,3
 1101 -20 1101 -20 863 -20 c 0,4,5
 513 -20 513 -20 292 188 c 0,6,7
 100 369 100 369 100 676 c 0,8,9
 100 1066 100 1066 426 1328 c 0,10,11
 679 1531 679 1531 1046 1531 c 0,12,13
 1396 1531 1396 1531 1617 1323 c 0,14,15
 1809 1142 1809 1142 1809 835 c 0,16,17
 1809 502 1809 502 1570 261 c 1,18,-1
 1882 0 l 1,0,-1
622 626 m 1,19,-1
 1135 626 l 1,20,-1
 1332 461 l 1,21,22
 1449 606 1449 606 1449 829 c 0,23,24
 1449 1025 1449 1025 1340 1138 c 24,25,26
 1224 1258 1224 1258 1046 1258 c 0,27,28
 794 1258 794 1258 646 1120 c 0,29,30
 460 946 460 946 460 682 c 0,31,32
 460 485 460 485 569 372 c 0,33,34
 684 253 684 253 863 253 c 0,35,36
 958 253 958 253 1041 275 c 1,37,-1
 622 626 l 1,19,-1
EndSplineSet
Validated: 1
EndChar

StartChar: R
Encoding: 82 82 53
Width: 1687
GlyphClass: 2
Flags: W
HStem: 0 21G<200 550 1148.57 1637> 1257 274<744.267 1042.32> 1491 20<30 50.5859>
VStem: 200 350<0 1058.31> 1139 361<781.233 1155.94>
LayerCount: 2
Fore
SplineSet
200 0 m 1,0,-1
 200 1250 l 2,1,2
 200 1430 200 1430 30 1491 c 1,3,-1
 30 1511 l 1,4,-1
 414 1511 l 1,5,6
 484 1469 484 1469 518 1402 c 1,7,8
 576 1436 576 1436 642 1468 c 0,9,10
 772 1531 772 1531 928 1531 c 0,11,12
 1177 1531 1177 1531 1353 1366 c 0,13,14
 1500 1228 1500 1228 1500 1009 c 0,15,16
 1500 654 1500 654 1194 441 c 1,17,-1
 1637 0 l 1,18,-1
 1168 0 l 1,19,-1
 589 596 l 1,20,21
 640 577 640 577 768 577 c 0,22,23
 912 577 912 577 1019 682 c 0,24,25
 1139 800 1139 800 1139 961 c 0,26,27
 1139 1093 1139 1093 1086 1168 c 0,28,29
 1023 1257 1023 1257 907 1257 c 0,30,31
 775 1257 775 1257 670 1157 c 0,32,33
 550 1042 550 1042 550 869 c 2,34,-1
 550 0 l 1,35,-1
 200 0 l 1,0,-1
EndSplineSet
Validated: 1
EndChar

StartChar: S
Encoding: 83 83 54
Width: 1698
GlyphClass: 2
Flags: W
HStem: -20 273<583.055 971.02> 1114 21G<1124.5 1185.87> 1257 274<759.551 1076.45>
VStem: 337 341<997.403 1187.95> 1240 358<472.644 621.568>
DStem2: 738 1056 678 722 0.982456 -0.186494<-67.1363 573.749>
LayerCount: 2
Fore
SplineSet
80 362 m 1,0,-1
 375 525 l 1,1,2
 520 253 520 253 758 253 c 0,3,4
 954 253 954 253 1106 382 c 0,5,6
 1240 496 1240 496 1240 572 c 0,7,8
 1240 618 1240 618 1186 625 c 9,9,-1
 678 722 l 1,10,11
 513 753 513 753 423 846 c 0,12,13
 337 935 337 935 337 1063 c 0,14,15
 337 1254 337 1254 510 1387 c 0,16,17
 696 1531 696 1531 949 1531 c 0,18,19
 1252 1531 1252 1531 1429 1315 c 1,20,-1
 1159 1114 l 1,21,22
 1090 1257 1090 1257 928 1257 c 0,23,24
 836 1257 836 1257 755 1211 c 0,25,26
 678 1167 678 1167 678 1114 c 0,27,28
 678 1067 678 1067 738 1056 c 2,29,-1
 1249 959 l 17,30,31
 1598 894 1598 894 1598 611 c 0,32,33
 1598 362 1598 362 1310 150 c 0,34,35
 1078 -20 1078 -20 747 -20 c 0,36,37
 296 -20 296 -20 80 362 c 1,0,-1
EndSplineSet
Validated: 1
EndChar

StartChar: T
Encoding: 84 84 55
Width: 1310
GlyphClass: 2
Flags: W
HStem: 0 21G<480 830> 1211 300<130.75 480 830 1290>
VStem: 20 20<1041 1061.59> 480 350<0 1211>
LayerCount: 2
Fore
SplineSet
480 0 m 1,0,-1
 480 1211 l 1,1,-1
 281 1211 l 2,2,3
 101 1211 101 1211 40 1041 c 1,4,-1
 20 1041 l 1,5,-1
 20 1375 l 1,6,7
 101 1511 101 1511 281 1511 c 2,8,-1
 1290 1511 l 1,9,-1
 1290 1211 l 1,10,-1
 830 1211 l 1,11,-1
 830 0 l 1,12,-1
 480 0 l 1,0,-1
EndSplineSet
Validated: 1
EndChar

StartChar: U
Encoding: 85 85 56
Width: 1746
GlyphClass: 2
Flags: W
HStem: -20 280<648.186 1012.9> 0 20<1695.41 1716> 1491 20G<392 891 1196 1546>
VStem: 100 360<475.258 982.24> 1196 350<429.74 1511>
LayerCount: 2
Fore
SplineSet
1716 0 m 1,0,-1
 1332 0 l 1,1,2
 1258 44 1258 44 1224 118 c 1,3,4
 1160 74 1160 74 1085 42 c 0,5,6
 938 -20 938 -20 804 -20 c 0,7,8
 494 -20 494 -20 289 194 c 0,9,10
 100 391 100 391 100 687 c 0,11,12
 100 952 100 952 228 1178 c 0,13,14
 314 1330 314 1330 470 1511 c 1,15,-1
 891 1511 l 1,16,17
 670 1351 670 1351 542 1097 c 0,18,19
 460 934 460 934 460 716 c 0,20,21
 460 508 460 508 555 388 c 0,22,23
 656 260 656 260 810 260 c 0,24,25
 968 260 968 260 1073 341 c 0,26,27
 1196 436 1196 436 1196 601 c 2,28,-1
 1196 1511 l 1,29,-1
 1546 1511 l 1,30,-1
 1546 261 l 2,31,32
 1546 81 1546 81 1716 20 c 1,33,-1
 1716 0 l 1,0,-1
EndSplineSet
Validated: 1
EndChar

StartChar: V
Encoding: 86 86 57
Width: 1867
GlyphClass: 2
Flags: W
HStem: -0 21G<727.311 1184> 1491 20G<5 396.795 1023 1555.5>
VStem: 5 382<1129 1511> 1404 363<686.271 1087.6>
DStem2: 387 1511 5 1511 0.435981 -0.899956<0 1359.56>
LayerCount: 2
Fore
SplineSet
737 -0 m 1,0,-1
 5 1511 l 1,1,-1
 387 1511 l 1,2,-1
 985 290 l 1,3,4
 1169 421 1169 421 1261 532 c 0,5,6
 1404 704 1404 704 1404 874 c 0,7,8
 1404 1033 1404 1033 1303 1199 c 0,9,10
 1195 1377 1195 1377 1023 1511 c 1,11,-1
 1495 1511 l 1,12,13
 1616 1399 1616 1399 1687 1259 c 0,14,15
 1767 1101 1767 1101 1767 897 c 0,16,17
 1767 625 1767 625 1561 408 c 0,18,19
 1354 190 1354 190 1014 0 c 1,20,-1
 737 -0 l 1,0,-1
EndSplineSet
Validated: 1
EndChar

StartChar: W
Encoding: 87 87 58
Width: 2720
GlyphClass: 2
Flags: W
HStem: -20 280<648.186 1013.19 1611.55 1973.58> 1491 20G<392 891 1196 1546 1733 2301.5>
VStem: 100 360<475.258 982.24> 1196 350<429.74 1511> 2269 351<601.813 1041.2>
LayerCount: 2
Fore
SplineSet
470 1511 m 1,0,1
 891 1511 l 1,2,3
 670 1351 670 1351 542 1097 c 0,4,5
 460 934 460 934 460 716 c 0,6,7
 460 508 460 508 555 388 c 0,8,9
 656 260 656 260 810 260 c 0,10,11
 968 260 968 260 1073 341 c 0,12,13
 1196 436 1196 436 1196 601 c 2,14,-1
 1196 1511 l 1,15,-1
 1546 1511 l 1,16,-1
 1546 459 l 2,17,18
 1546 346 1546 346 1611 304 c 0,19,20
 1688 254 1688 254 1783 254 c 0,21,22
 1948 254 1948 254 2076 382 c 0,23,24
 2269 575 2269 575 2269 827 c 0,25,26
 2269 1002 2269 1002 2163 1153 c 0,27,28
 2008 1374 2008 1374 1733 1511 c 1,29,-1
 2232 1511 l 1,30,31
 2371 1429 2371 1429 2483 1275 c 0,32,33
 2620 1087 2620 1087 2620 828 c 0,34,35
 2620 425 2620 425 2256 149 c 0,36,37
 2032 -20 2032 -20 1758 -20 c 0,38,39
 1579 -20 1579 -20 1456 48 c 0,40,41
 1369 96 1369 96 1303 178 c 1,42,43
 1219 103 1219 103 1085 42 c 0,44,45
 951 -20 951 -20 804 -20 c 0,46,47
 494 -20 494 -20 289 194 c 0,48,49
 100 391 100 391 100 687 c 0,50,51
 100 952 100 952 228 1178 c 0,52,53
 314 1330 314 1330 470 1511 c 1,0,1
EndSplineSet
Validated: 1
EndChar

StartChar: X
Encoding: 88 88 59
Width: 1825
GlyphClass: 2
Flags: W
HStem: 0 21G<5 514.5 1212.33 1675> 1491 20G<9 467.171 977 1427.5>
VStem: 5 482<0 482> 9 442<1069 1511> 1225 360<923.737 1268.96>
DStem2: 5 0 487 0 0.80352 0.595278<387.297 950.816> 451 1511 9 1511 0.62945 -0.777041<0 934.469 1252.95 1663.82>
LayerCount: 2
Fore
SplineSet
5 0 m 1,0,-1
 769 566 l 1,1,-1
 9 1511 l 1,2,-1
 451 1511 l 1,3,-1
 1055 764 l 1,4,5
 1099 800 1099 800 1130 841 c 0,6,7
 1225 972 1225 972 1225 1091 c 0,8,9
 1225 1201 1225 1201 1159 1309 c 0,10,11
 1085 1432 1085 1432 977 1511 c 1,12,-1
 1403 1511 l 1,13,14
 1452 1454 1452 1454 1502 1373 c 0,15,16
 1585 1238 1585 1238 1585 1087 c 0,17,18
 1585 886 1585 886 1451 732 c 0,19,20
 1362 631 1362 631 1233 532 c 1,21,-1
 1675 0 l 1,22,-1
 1229 0 l 1,23,-1
 949 336 l 1,24,-1
 487 0 l 1,25,-1
 5 0 l 1,0,-1
EndSplineSet
Validated: 1
EndChar

StartChar: Y
Encoding: 89 89 60
Width: 1608
GlyphClass: 2
Flags: W
HStem: 0 21G<621 971> 1491 20G<5 409.499 869 1327>
VStem: 5 393<1118 1511> 621 350<0 422.812> 1148 360<849.879 1232.92>
DStem2: 398 1511 5 1511 0.4951 -0.868836<0 985.08>
LayerCount: 2
Fore
SplineSet
621 0 m 1,0,-1
 621 430 l 1,1,-1
 5 1511 l 1,2,-1
 398 1511 l 1,3,-1
 889 657 l 1,4,5
 993 718 993 718 1053 781 c 0,6,7
 1148 881 1148 881 1148 1046 c 0,8,9
 1148 1168 1148 1168 1083 1270 c 0,10,11
 994 1406 994 1406 869 1511 c 1,12,-1
 1284 1511 l 1,13,14
 1370 1440 1370 1440 1426 1343 c 0,15,16
 1508 1203 1508 1203 1508 1049 c 0,17,18
 1508 865 1508 865 1382 706 c 0,19,20
 1224 510 1224 510 971 406 c 1,21,-1
 971 0 l 1,22,-1
 621 0 l 1,0,-1
EndSplineSet
Validated: 1
EndChar

StartChar: Z
Encoding: 90 90 61
Width: 1540
GlyphClass: 2
Flags: W
HStem: 0 300<70 168.086 689 1269.25> 1211 300<313.75 1009.43>
VStem: 203 20<1041 1061.59> 1015 350<909.756 1207.92> 1360 20<449.414 470>
LayerCount: 2
Fore
SplineSet
70 0 m 1,0,-1
 70 300 l 1,1,2
 714 561 714 561 942 865 c 0,3,4
 1015 963 1015 963 1015 1098 c 0,5,6
 1015 1156 1015 1156 1000 1211 c 1,7,-1
 464 1211 l 2,8,9
 284 1211 284 1211 223 1041 c 1,10,-1
 203 1041 l 1,11,-1
 203 1375 l 1,12,13
 284 1511 284 1511 464 1511 c 2,14,-1
 1259 1511 l 1,15,16
 1365 1357 1365 1357 1365 1131 c 0,17,18
 1365 935 1365 935 1229 737 c 0,19,20
 1100 549 1100 549 689 300 c 1,21,-1
 1119 300 l 2,22,23
 1299 300 1299 300 1360 470 c 1,24,-1
 1380 470 l 1,25,-1
 1380 136 l 1,26,27
 1299 0 1299 0 1119 0 c 2,28,-1
 70 0 l 1,0,-1
EndSplineSet
Validated: 1
EndChar

StartChar: bracketleft
Encoding: 91 91 62
Width: 1003
GlyphClass: 2
Flags: W
HStem: -289 300<550 953> 1518 300<550 953>
VStem: 200 753<-289 11 1518 1818> 200 350<11 1518>
LayerCount: 2
Fore
SplineSet
200 -289 m 1,0,-1
 200 1818 l 1,1,-1
 953 1818 l 1,2,-1
 953 1518 l 1,3,-1
 550 1518 l 1,4,-1
 550 11 l 1,5,-1
 953 11 l 1,6,-1
 953 -289 l 1,7,-1
 200 -289 l 1,0,-1
EndSplineSet
Validated: 1
EndChar

StartChar: backslash
Encoding: 92 92 63
Width: 1418
GlyphClass: 2
Flags: W
VStem: 10 345<1342 1687> 1063 345<-183 162>
DStem2: 355 1687 10 1687 0.490659 -0.871351<0 1976.81>
LayerCount: 2
Fore
SplineSet
10 1687 m 1,0,-1
 355 1687 l 1,1,-1
 1408 -183 l 1,2,-1
 1063 -183 l 1,3,-1
 10 1687 l 1,0,-1
EndSplineSet
Validated: 1
EndChar

StartChar: bracketright
Encoding: 93 93 64
Width: 1003
GlyphClass: 2
Flags: W
HStem: -289 300<50 453> 1518 300<50 453>
VStem: 50 753<-289 11 1518 1818> 453 350<11 1518>
LayerCount: 2
Fore
SplineSet
50 -289 m 1,0,-1
 50 11 l 1,1,-1
 453 11 l 1,2,-1
 453 1518 l 1,3,-1
 50 1518 l 1,4,-1
 50 1818 l 1,5,-1
 803 1818 l 1,6,-1
 803 -289 l 1,7,-1
 50 -289 l 1,0,-1
EndSplineSet
Validated: 1
EndChar

StartChar: asciicircum
Encoding: 94 94 65
Width: 1950
GlyphClass: 2
Flags: W
HStem: 838 673
VStem: 150 421<838 1259> 1304 496<838 1334>
DStem2: 150 838 571 838 0.722843 0.691013<304.317 813.718> 1096 1511 944 1185 0.722843 -0.691013<115.398 615.403>
LayerCount: 2
Fore
SplineSet
150 838 m 1,0,-1
 854 1511 l 1,1,-1
 1096 1511 l 1,2,-1
 1800 838 l 1,3,-1
 1304 838 l 1,4,-1
 944 1185 l 1,5,-1
 571 838 l 1,6,-1
 150 838 l 1,0,-1
EndSplineSet
Validated: 1
EndChar

StartChar: underscore
Encoding: 95 95 66
Width: 1333
GlyphClass: 2
Flags: W
HStem: -410 300<150 1183>
LayerCount: 2
Fore
SplineSet
150 -410 m 1,0,-1
 150 -110 l 1,1,-1
 1183 -110 l 1,2,-1
 1183 -410 l 1,3,-1
 150 -410 l 1,0,-1
EndSplineSet
Validated: 1
EndChar

StartChar: grave
Encoding: 96 96 67
Width: 903
GlyphClass: 2
Flags: W
HStem: 880 631
VStem: 150 603
DStem2: 361 1511 150 1289 0.691944 -0.721951<14.2731 566.52>
LayerCount: 2
Fore
SplineSet
540 880 m 1,0,-1
 150 1289 l 1,1,-1
 361 1511 l 1,2,-1
 753 1102 l 1,3,-1
 540 880 l 1,0,-1
EndSplineSet
Validated: 1
EndChar

StartChar: a
Encoding: 97 97 68
Width: 1447
GlyphClass: 2
Flags: W
HStem: -20 274<538.206 764.352> 0 20<1396.41 1417> 846 274<627.239 879.881>
VStem: 100 360<330.506 677.239> 897 350<110.75 819.34>
LayerCount: 2
Fore
SplineSet
1417 0 m 1,0,-1
 1033 0 l 1,1,2
 897 81 897 81 897 261 c 2,3,-1
 897 761 l 2,4,5
 897 799 897 799 876 820 c 24,6,7
 850 846 850 846 805 846 c 0,8,9
 674 846 674 846 583 771 c 0,10,11
 460 670 460 670 460 500 c 0,12,13
 460 379 460 379 508 325 c 0,14,15
 571 254 571 254 658 254 c 0,16,17
 776 254 776 254 849 364 c 1,18,19
 853 321 853 321 853 283 c 0,20,21
 853 197 853 197 831 133 c 0,22,23
 778 -20 778 -20 646 -20 c 0,24,25
 391 -20 391 -20 246 136 c 0,26,27
 100 293 100 293 100 495 c 0,28,29
 100 758 100 758 356 966 c 0,30,31
 545 1120 545 1120 822 1120 c 0,32,33
 980 1120 980 1120 1099 1032 c 0,34,35
 1247 924 1247 924 1247 728 c 2,36,-1
 1247 261 l 2,37,38
 1247 81 1247 81 1417 20 c 1,39,-1
 1417 0 l 1,0,-1
EndSplineSet
Validated: 1
EndChar

StartChar: b
Encoding: 98 98 69
Width: 1447
GlyphClass: 2
Flags: W
HStem: -20 274<567.119 819.761> 846 274<682.648 908.794> 1491 20<30 50.5859>
VStem: 200 350<280.66 1400.25> 987 360<422.761 769.494>
LayerCount: 2
Fore
SplineSet
30 1511 m 1,0,-1
 414 1511 l 1,1,2
 550 1429 550 1429 550 1250 c 2,3,-1
 550 339 l 2,4,5
 550 301 550 301 571 280 c 0,6,7
 597 254 597 254 642 254 c 0,8,9
 773 254 773 254 864 329 c 0,10,11
 987 430 987 430 987 600 c 0,12,13
 987 721 987 721 939 775 c 0,14,15
 876 846 876 846 789 846 c 0,16,17
 671 846 671 846 598 736 c 1,18,19
 594 779 594 779 594 817 c 0,20,21
 594 903 594 903 616 967 c 0,22,23
 669 1120 669 1120 801 1120 c 0,24,25
 1056 1120 1056 1120 1201 964 c 0,26,27
 1347 807 1347 807 1347 605 c 0,28,29
 1347 342 1347 342 1091 134 c 0,30,31
 902 -20 902 -20 625 -20 c 0,32,33
 467 -20 467 -20 348 68 c 0,34,35
 200 177 200 177 200 372 c 2,36,-1
 200 1250 l 2,37,38
 200 1430 200 1430 30 1491 c 1,39,-1
 30 1511 l 1,0,-1
EndSplineSet
Validated: 1
EndChar

StartChar: c
Encoding: 99 99 70
Width: 1348
GlyphClass: 2
Flags: W
HStem: -20 274<546.77 865.717> 847 273<629.049 950.709>
VStem: 100 360<340.743 668.974>
LayerCount: 2
Fore
SplineSet
1260 249 m 17,0,1
 1209 189 1209 189 1139 134 c 0,2,3
 943 -20 943 -20 672 -20 c 0,4,5
 417 -20 417 -20 248 136 c 0,6,7
 100 273 100 273 100 503 c 0,8,9
 100 767 100 767 356 968 c 0,10,11
 550 1120 550 1120 822 1120 c 128,-1,12
 1094 1120 1094 1120 1268 942 c 1,13,-1
 1003 742 l 1,14,15
 943 847 943 847 803 847 c 128,-1,16
 663 847 663 847 576 763 c 0,17,18
 460 651 460 651 460 493 c 0,19,20
 460 380 460 380 523 317 c 128,-1,21
 586 254 586 254 689 254 c 0,22,23
 828 254 828 254 918 337 c 0,24,25
 981 395 981 395 1009 469 c 9,26,-1
 1260 249 l 17,0,1
EndSplineSet
Validated: 1
EndChar

StartChar: d
Encoding: 100 100 71
Width: 1447
GlyphClass: 2
Flags: W
HStem: -20 274<538.03 797.181> 0 20<1396.41 1417> 846 274<605.705 810.547> 1491 20<727 747.586>
VStem: 100 360<332.619 692.66> 897 350<355.922 1400.25>
LayerCount: 2
Fore
SplineSet
1417 0 m 1,0,-1
 1033 0 l 1,1,2
 979 32 979 32 947 79 c 1,3,4
 835 -20 835 -20 672 -20 c 0,5,6
 410 -20 410 -20 246 136 c 0,7,8
 100 275 100 275 100 495 c 0,9,10
 100 785 100 785 346 976 c 0,11,12
 531 1120 531 1120 695 1120 c 0,13,14
 852 1120 852 1120 852 932 c 0,15,16
 852 863 852 863 823 830 c 1,17,18
 790 846 790 846 763 846 c 0,19,20
 649 846 649 846 568 774 c 0,21,22
 460 678 460 678 460 502 c 0,23,24
 460 380 460 380 513 320 c 0,25,26
 571 254 571 254 674 254 c 0,27,28
 761 254 761 254 829 327 c 128,-1,29
 897 400 897 400 897 517 c 2,30,-1
 897 1250 l 2,31,32
 897 1430 897 1430 727 1491 c 1,33,-1
 727 1511 l 1,34,-1
 1111 1511 l 1,35,36
 1247 1430 1247 1430 1247 1250 c 2,37,-1
 1247 261 l 2,38,39
 1247 81 1247 81 1417 20 c 1,40,-1
 1417 0 l 1,0,-1
EndSplineSet
Validated: 1
EndChar

StartChar: e
Encoding: 101 101 72
Width: 1348
GlyphClass: 2
Flags: W
HStem: -20 274<546.77 865.717> 434 250<512 894> 847 273<628.847 950.709>
VStem: 100 794<440.152 677.056>
LayerCount: 2
Fore
SplineSet
1260 249 m 1,0,1
 1209 189 1209 189 1139 134 c 0,2,3
 943 -20 943 -20 672 -20 c 0,4,5
 417 -20 417 -20 248 136 c 0,6,7
 100 273 100 273 100 503 c 0,8,9
 100 767 100 767 356 968 c 0,10,11
 550 1120 550 1120 822 1120 c 128,-1,12
 1094 1120 1094 1120 1268 942 c 1,13,-1
 1003 742 l 1,14,15
 943 847 943 847 803 847 c 0,16,17
 662 847 662 847 576 763 c 0,18,19
 538 726 538 726 512 684 c 1,20,-1
 894 684 l 1,21,-1
 894 434 l 1,22,-1
 465 434 l 1,23,24
 478 362 478 362 523 317 c 0,25,26
 586 254 586 254 689 254 c 0,27,28
 828 254 828 254 918 337 c 0,29,30
 981 395 981 395 1009 469 c 1,31,-1
 1260 249 l 1,0,1
EndSplineSet
Validated: 1
EndChar

StartChar: f
Encoding: 102 102 73
Width: 1229
GlyphClass: 2
Flags: W
HStem: 0 21G<200 550> 621 300<114 200 550 944> 1110 21G<942.5 1003.86> 1258 273<654.384 900.407>
VStem: 200 350<0 621 921 1141.96>
LayerCount: 2
Fore
SplineSet
200 0 m 1,0,-1
 200 621 l 1,1,-1
 114 621 l 1,2,-1
 114 921 l 1,3,-1
 200 921 l 1,4,-1
 200 967 l 2,5,6
 200 1170 200 1170 378 1363 c 0,7,8
 534 1531 534 1531 794 1531 c 0,9,10
 1081 1531 1081 1531 1249 1306 c 1,11,-1
 976 1110 l 1,12,13
 909 1258 909 1258 784 1258 c 0,14,15
 683 1258 683 1258 622 1183 c 0,16,17
 550 1094 550 1094 550 961 c 2,18,-1
 550 921 l 1,19,-1
 944 921 l 1,20,-1
 944 621 l 1,21,-1
 550 621 l 1,22,-1
 550 0 l 1,23,-1
 200 0 l 1,0,-1
EndSplineSet
Validated: 3073
EndChar

StartChar: g
Encoding: 103 103 74
Width: 1447
GlyphClass: 2
Flags: W
HStem: -410 274<412.566 720.04> -20 274<538.206 764.352> 846 274<627.239 879.881>
VStem: 100 360<330.506 677.239> 897 350<64.897 819.34>
LayerCount: 2
Fore
SplineSet
96 -236 m 1,0,-1
 342 -27 l 1,1,2
 434 -136 434 -136 543 -136 c 0,3,4
 700 -136 700 -136 790 -35 c 24,5,6
 897 85 897 85 897 300 c 2,7,-1
 897 761 l 2,8,9
 897 799 897 799 876 820 c 0,10,11
 850 846 850 846 805 846 c 0,12,13
 674 846 674 846 583 771 c 0,14,15
 460 670 460 670 460 500 c 0,16,17
 460 379 460 379 508 325 c 0,18,19
 571 254 571 254 658 254 c 0,20,21
 776 254 776 254 849 364 c 1,22,23
 853 321 853 321 853 283 c 0,24,25
 853 197 853 197 831 133 c 0,26,27
 778 -20 778 -20 646 -20 c 0,28,29
 391 -20 391 -20 246 136 c 0,30,31
 100 293 100 293 100 495 c 0,32,33
 100 758 100 758 356 966 c 0,34,35
 545 1120 545 1120 822 1120 c 0,36,37
 980 1120 980 1120 1099 1032 c 0,38,39
 1247 923 1247 923 1247 728 c 2,40,-1
 1247 300 l 2,41,42
 1247 -1 1247 -1 1036 -196 c 0,43,44
 804 -410 804 -410 526 -410 c 0,45,46
 282 -410 282 -410 96 -236 c 1,0,-1
EndSplineSet
Validated: 1
EndChar

StartChar: h
Encoding: 104 104 75
Width: 1453
GlyphClass: 2
Flags: W
HStem: 0 21G<200 550 719 1146.5> 832 288<661.23 921.104> 1491 20<30 50.5859>
VStem: 200 350<0 720.116 1031 1400.25> 992 361<354.33 753.779>
LayerCount: 2
Fore
SplineSet
200 0 m 1,0,-1
 200 1250 l 2,1,2
 200 1430 200 1430 30 1491 c 1,3,-1
 30 1511 l 1,4,-1
 414 1511 l 1,5,6
 550 1430 550 1430 550 1250 c 2,7,-1
 550 1031 l 1,8,9
 580 1055 580 1055 616 1076 c 0,10,11
 691 1120 691 1120 810 1120 c 0,12,13
 1057 1120 1057 1120 1210 966 c 0,14,15
 1353 822 1353 822 1353 608 c 0,16,17
 1353 443 1353 443 1284 294 c 0,18,19
 1203 120 1203 120 1090 0 c 1,20,-1
 719 0 l 1,21,22
 874 157 874 157 946 326 c 0,23,24
 992 434 992 434 992 572 c 0,25,26
 992 700 992 700 936 771 c 0,27,28
 888 832 888 832 794 832 c 0,29,30
 710 832 710 832 638 770 c 0,31,32
 550 694 550 694 550 564 c 2,33,-1
 550 0 l 1,34,-1
 200 0 l 1,0,-1
EndSplineSet
Validated: 1
EndChar

StartChar: i
Encoding: 105 105 76
Width: 750
GlyphClass: 2
Flags: W
HStem: 0 20<699.414 720> 1080 20<30 50.5859> 1175 356<260.756 489.471>
VStem: 200 350<110.75 988.75 1236.4 1468.75>
LayerCount: 2
Fore
SplineSet
720 0 m 1,0,-1
 336 0 l 1,1,2
 200 81 200 81 200 261 c 2,3,-1
 200 839 l 2,4,5
 200 1018 200 1018 30 1080 c 1,6,-1
 30 1100 l 1,7,-1
 414 1100 l 1,8,9
 550 1019 550 1019 550 839 c 2,10,-1
 550 261 l 2,11,12
 550 81 550 81 720 20 c 1,13,-1
 720 0 l 1,0,-1
549 1355 m 0,14,15
 549 1276 549 1276 498 1225.5 c 128,-1,16
 447 1175 447 1175 375 1175 c 0,17,18
 301 1175 301 1175 251 1228 c 0,19,20
 202 1281 202 1281 202 1353 c 128,-1,21
 202 1425 202 1425 251 1477 c 0,22,23
 302 1531 302 1531 375 1531 c 0,24,25
 444 1531 444 1531 498 1479 c 0,26,27
 549 1430 549 1430 549 1355 c 0,14,15
EndSplineSet
Validated: 1
EndChar

StartChar: j
Encoding: 106 106 77
Width: 750
GlyphClass: 2
Flags: W
HStem: -410 280<0 181.855> 1080 20<30 50.5859> 1175 356<260.756 489.471>
VStem: 200 350<-109.25 988.75 1236.4 1468.75>
LayerCount: 2
Fore
SplineSet
549 1355 m 0,0,1
 549 1276 549 1276 498 1225.5 c 128,-1,2
 447 1175 447 1175 375 1175 c 0,3,4
 301 1175 301 1175 251 1228 c 0,5,6
 202 1281 202 1281 202 1353 c 128,-1,7
 202 1425 202 1425 251 1477 c 0,8,9
 302 1531 302 1531 375 1531 c 0,10,11
 444 1531 444 1531 498 1479 c 0,12,13
 549 1430 549 1430 549 1355 c 0,0,1
0 -410 m 1,14,-1
 0 -130 l 1,15,16
 150 -130 150 -130 180 -98 c 0,17,18
 200 -77 200 -77 200 -34 c 2,19,-1
 200 839 l 2,20,21
 200 1018 200 1018 30 1080 c 1,22,-1
 30 1100 l 1,23,-1
 414 1100 l 1,24,25
 550 1019 550 1019 550 839 c 2,26,-1
 550 -34 l 2,27,28
 550 -191 550 -191 441 -296 c 0,29,30
 323 -410 323 -410 0 -410 c 1,14,-1
EndSplineSet
Validated: 1
EndChar

StartChar: k
Encoding: 107 107 78
Width: 1505
GlyphClass: 2
Flags: W
HStem: 0 21G<200 550 979.172 1500> 1080 20G<726 1148> 1491 20<30 50.5859>
VStem: 200 350<0 211 452 1400.25> 895 377<655.094 965.73>
LayerCount: 2
Fore
SplineSet
200 0 m 1,0,-1
 200 1250 l 2,1,2
 200 1430 200 1430 30 1491 c 1,3,-1
 30 1511 l 1,4,-1
 414 1511 l 1,5,6
 550 1430 550 1430 550 1250 c 2,7,-1
 550 452 l 1,8,9
 635 478 635 478 718 532 c 0,10,11
 895 647 895 647 895 789 c 0,12,13
 895 891 895 891 852 964 c 0,14,15
 812 1032 812 1032 726 1100 c 1,16,-1
 1114 1100 l 1,17,18
 1182 1050 1182 1050 1224 976 c 0,19,20
 1272 891 1272 891 1272 796 c 0,21,22
 1272 623 1272 623 1138 486 c 0,23,24
 1085 432 1085 432 1010 384 c 1,25,-1
 1500 0 l 1,26,-1
 1004 0 l 1,27,-1
 680 261 l 1,28,-1
 550 211 l 1,29,-1
 550 0 l 1,30,-1
 200 0 l 1,0,-1
EndSplineSet
Validated: 1
EndChar

StartChar: l
Encoding: 108 108 79
Width: 750
GlyphClass: 2
Flags: W
HStem: 0 20<699.414 720> 1491 20<30 50.5859>
VStem: 200 350<110.75 1400.25>
LayerCount: 2
Fore
SplineSet
720 0 m 1,0,-1
 336 0 l 1,1,2
 200 81 200 81 200 261 c 2,3,-1
 200 1250 l 2,4,5
 200 1430 200 1430 30 1491 c 1,6,-1
 30 1511 l 1,7,-1
 414 1511 l 1,8,9
 550 1430 550 1430 550 1250 c 2,10,-1
 550 261 l 2,11,12
 550 81 550 81 720 20 c 1,13,-1
 720 0 l 1,0,-1
EndSplineSet
Validated: 1
EndChar

StartChar: m
Encoding: 109 109 80
Width: 2195
GlyphClass: 2
Flags: W
HStem: 0 21G<200 550 942 1292 1461 1889> 835 285<680.392 911.201 1407.1 1657.85> 1080 20<30 50.5859>
VStem: 200 350<0 699> 942 350<0 720.116> 1734 361<354.168 753.779>
LayerCount: 2
Fore
SplineSet
200 0 m 1,0,-1
 200 839 l 2,1,2
 200 1019 200 1019 30 1080 c 1,3,-1
 30 1100 l 1,4,-1
 414 1100 l 1,5,6
 480 1061 480 1061 513 999 c 1,7,8
 577 1044 577 1044 612 1062 c 0,9,10
 715 1120 715 1120 867 1120 c 0,11,12
 1015 1120 1015 1120 1140 1020 c 0,13,14
 1175 992 1175 992 1202 958 c 1,15,16
 1253 1024 1253 1024 1339.5 1072 c 128,-1,17
 1426 1120 1426 1120 1552 1120 c 0,18,19
 1799 1120 1799 1120 1952 966 c 0,20,21
 2095 822 2095 822 2095 608 c 0,22,23
 2095 442 2095 442 2026 294 c 0,24,25
 1946 121 1946 121 1832 0 c 1,26,27
 1461 0 l 1,28,29
 1616 157 1616 157 1688 326 c 0,30,31
 1734 434 1734 434 1734 572 c 0,32,33
 1734 700 1734 700 1678 771 c 0,34,35
 1630 832 1630 832 1536 832 c 0,36,37
 1452 832 1452 832 1380 770 c 0,38,39
 1292 694 1292 694 1292 564 c 2,40,-1
 1292 0 l 1,41,-1
 942 0 l 1,42,-1
 942 700 l 2,43,44
 942 765 942 765 911 795 c 24,45,46
 870 835 870 835 809 835 c 0,47,48
 729 835 729 835 660 774 c 0,49,50
 550 677 550 677 550 564 c 2,51,-1
 550 0 l 1,52,-1
 200 0 l 1,0,-1
EndSplineSet
Validated: 1
EndChar

StartChar: n
Encoding: 110 110 81
Width: 1453
GlyphClass: 2
Flags: W
HStem: 0 21G<200 550 719 1147> 832 288<661.028 921.104> 1080 20<30 50.5859>
VStem: 200 350<0 720.116> 992 361<354.168 753.487>
LayerCount: 2
Fore
SplineSet
200 0 m 1,0,-1
 200 839 l 2,1,2
 200 1019 200 1019 30 1080 c 1,3,-1
 30 1100 l 1,4,-1
 414 1100 l 1,5,6
 480 1061 480 1061 513 999 c 1,7,8
 558 1042 558 1042 616 1076 c 0,9,10
 690 1120 690 1120 810 1120 c 0,11,12
 1057 1120 1057 1120 1210 966 c 0,13,14
 1353 822 1353 822 1353 608 c 0,15,16
 1353 442 1353 442 1284 294 c 0,17,18
 1204 121 1204 121 1090 0 c 1,19,-1
 719 0 l 1,20,21
 874 157 874 157 946 326 c 0,22,23
 992 434 992 434 992 572 c 0,24,25
 992 697 992 697 936 771 c 0,26,27
 888 832 888 832 794 832 c 0,28,29
 710 832 710 832 638 770 c 0,30,31
 550 694 550 694 550 564 c 2,32,-1
 550 0 l 1,33,-1
 200 0 l 1,0,-1
EndSplineSet
Validated: 1
EndChar

StartChar: o
Encoding: 111 111 82
Width: 1494
GlyphClass: 2
Flags: W
HStem: -20 274<546.77 865.912> 847 273<629.454 951.108>
VStem: 100 360<340.743 669.688> 1034 360<430.402 763.138>
LayerCount: 2
Fore
SplineSet
672 -20 m 0,0,1
 417 -20 417 -20 248 136 c 0,2,3
 100 273 100 273 100 503 c 0,4,5
 100 767 100 767 356 968 c 0,6,7
 550 1120 550 1120 822 1120 c 0,8,9
 1077 1120 1077 1120 1246 964 c 0,10,11
 1394 827 1394 827 1394 597 c 0,12,13
 1394 334 1394 334 1139 134 c 0,14,15
 943 -20 943 -20 672 -20 c 0,0,1
689 254 m 0,16,17
 829 254 829 254 918 337 c 0,18,19
 1034 445 1034 445 1034 607 c 0,20,21
 1034 721 1034 721 971 785 c 0,22,23
 910 847 910 847 803 847 c 0,24,25
 665 847 665 847 576 763 c 0,26,27
 460 654 460 654 460 493 c 0,28,29
 460 380 460 380 523 317 c 128,-1,30
 586 254 586 254 689 254 c 0,16,17
EndSplineSet
Validated: 1
EndChar

StartChar: p
Encoding: 112 112 83
Width: 1447
GlyphClass: 2
Flags: W
HStem: -410 21G<200 550> -20 274<636.453 841.295> 846 274<647.304 908.97> 1080 20<30 50.5859>
VStem: 200 350<-410 740.422> 987 360<407.34 767.381>
LayerCount: 2
Fore
SplineSet
30 1100 m 1,0,-1
 414 1100 l 1,1,2
 461 1072 461 1072 492 1032 c 1,3,4
 620 1120 620 1120 775 1120 c 0,5,6
 1037 1120 1037 1120 1201 964 c 0,7,8
 1347 825 1347 825 1347 605 c 0,9,10
 1347 315 1347 315 1101 124 c 0,11,12
 916 -20 916 -20 752 -20 c 0,13,14
 595 -20 595 -20 595 168 c 0,15,16
 595 237 595 237 624 270 c 1,17,18
 657 254 657 254 684 254 c 0,19,20
 798 254 798 254 879 326 c 0,21,22
 987 422 987 422 987 598 c 0,23,24
 987 720 987 720 934 780 c 0,25,26
 876 846 876 846 773 846 c 0,27,28
 677 846 677 846 618 773 c 0,29,30
 550 688 550 688 550 583 c 2,31,-1
 550 -410 l 1,32,-1
 200 -410 l 1,33,-1
 200 839 l 2,34,35
 200 1019 200 1019 30 1080 c 1,36,-1
 30 1100 l 1,0,-1
EndSplineSet
Validated: 1
EndChar

StartChar: q
Encoding: 113 113 84
Width: 1452
GlyphClass: 2
Flags: W
HStem: -410 21G<897 1274.5> -276 276<1321.4 1447> -20 274<538.206 764.352> 846 274<627.239 879.881>
VStem: 100 360<330.506 677.239> 897 350<-410 -339.336 -148 819.34>
LayerCount: 2
Fore
SplineSet
897 -410 m 1,0,-1
 897 761 l 2,1,2
 897 799 897 799 876 820 c 0,3,4
 850 846 850 846 805 846 c 0,5,6
 674 846 674 846 583 771 c 0,7,8
 460 670 460 670 460 500 c 0,9,10
 460 379 460 379 508 325 c 0,11,12
 571 254 571 254 658 254 c 0,13,14
 776 254 776 254 849 364 c 1,15,16
 853 321 853 321 853 283 c 0,17,18
 853 197 853 197 831 133 c 0,19,20
 778 -20 778 -20 646 -20 c 0,21,22
 391 -20 391 -20 246 136 c 0,23,24
 100 293 100 293 100 495 c 0,25,26
 100 758 100 758 356 966 c 0,27,28
 545 1120 545 1120 822 1120 c 0,29,30
 980 1120 980 1120 1099 1032 c 0,31,32
 1247 923 1247 923 1247 728 c 2,33,-1
 1247 -148 l 1,34,35
 1312 0 1312 0 1447 0 c 1,36,-1
 1447 -276 l 1,37,38
 1302 -276 1302 -276 1247 -410 c 1,39,-1
 897 -410 l 1,0,-1
EndSplineSet
Validated: 1
EndChar

StartChar: r
Encoding: 114 114 85
Width: 1231
GlyphClass: 2
Flags: W
HStem: 0 21G<200 550> 832 288<693.134 1050.27> 1080 20<30 50.5859>
VStem: 200 350<0 700.484>
LayerCount: 2
Fore
SplineSet
200 0 m 1,0,-1
 200 839 l 2,1,2
 200 1019 200 1019 30 1080 c 1,3,-1
 30 1100 l 1,4,-1
 414 1100 l 1,5,6
 480 1061 480 1061 513 999 c 1,7,8
 564 1031 564 1031 617 1055 c 0,9,10
 761 1120 761 1120 907 1120 c 0,11,12
 1127 1120 1127 1120 1251 963 c 1,13,-1
 1012 762 l 1,14,15
 952 832 952 832 874 832 c 0,16,17
 750 832 750 832 661 767 c 0,18,19
 550 686 550 686 550 564 c 2,20,-1
 550 0 l 1,21,-1
 200 0 l 1,0,-1
EndSplineSet
Validated: 1
EndChar

StartChar: s
Encoding: 115 115 86
Width: 1329
GlyphClass: 2
Flags: W
HStem: -20 273<491.109 820.969> 857 263<579.46 894.65>
VStem: 232 343<651.127 842.026> 887 342<314.559 535.547>
LayerCount: 2
Fore
SplineSet
80 297 m 9,0,1
 383 458 l 17,2,3
 448 253 448 253 636 253 c 0,4,5
 768 253 768 253 840 310 c 0,6,7
 887 347 887 347 887 384 c 0,8,9
 887 420 887 420 854 426 c 2,10,-1
 482 493 l 2,11,12
 232 538 232 538 232 765 c 24,13,14
 232 914 232 914 396 1026 c 0,15,16
 534 1120 534 1120 729 1120 c 0,17,18
 973 1120 973 1120 1132 955 c 9,19,-1
 876 764 l 17,20,21
 811 857 811 857 704 857 c 0,22,23
 659 857 659 857 631 847 c 0,24,25
 575 827 575 827 575 797 c 0,26,27
 575 772 575 772 600 764 c 1,28,-1
 915 705 l 1,29,30
 1229 643 1229 643 1229 426 c 0,31,32
 1229 232 1229 232 1047 106 c 0,33,34
 864 -20 864 -20 617 -20 c 0,35,36
 280 -20 280 -20 80 297 c 9,0,1
EndSplineSet
Validated: 3073
EndChar

StartChar: t
Encoding: 116 116 87
Width: 895
GlyphClass: 2
Flags: W
HStem: 0 20<736.414 757> 800 300<100 237 587 875> 1491 20<67 87.5859>
VStem: 237 350<110.75 800 1100 1400.25>
LayerCount: 2
Fore
SplineSet
757 0 m 1,0,-1
 373 0 l 1,1,2
 237 81 237 81 237 261 c 2,3,-1
 237 800 l 1,4,-1
 100 800 l 1,5,-1
 100 1100 l 1,6,-1
 237 1100 l 1,7,-1
 237 1250 l 2,8,9
 237 1430 237 1430 67 1491 c 1,10,-1
 67 1511 l 1,11,-1
 451 1511 l 1,12,13
 587 1430 587 1430 587 1250 c 2,14,-1
 587 1100 l 1,15,-1
 875 1100 l 1,16,-1
 875 800 l 1,17,-1
 587 800 l 1,18,-1
 587 261 l 2,19,20
 587 81 587 81 757 20 c 1,21,-1
 757 0 l 1,0,-1
EndSplineSet
Validated: 1
EndChar

StartChar: u
Encoding: 117 117 88
Width: 1453
GlyphClass: 2
Flags: W
HStem: -20 288<531.896 791.972> 0 20<1402.41 1423> 1080 20G<306 734 903 1253>
VStem: 100 361<346.513 745.832> 903 350<379.884 1100>
LayerCount: 2
Fore
SplineSet
1423 0 m 1,0,-1
 1039 0 l 1,1,2
 973 39 973 39 940 101 c 1,3,4
 895 58 895 58 837 24 c 0,5,6
 763 -20 763 -20 643 -20 c 0,7,8
 396 -20 396 -20 243 134 c 0,9,10
 100 278 100 278 100 492 c 0,11,12
 100 658 100 658 169 806 c 0,13,14
 249 979 249 979 363 1100 c 1,15,-1
 734 1100 l 1,16,17
 579 943 579 943 507 774 c 0,18,19
 461 666 461 666 461 528 c 0,20,21
 461 403 461 403 517 329 c 0,22,23
 565 268 565 268 659 268 c 0,24,25
 743 268 743 268 815 330 c 0,26,27
 903 406 903 406 903 536 c 2,28,-1
 903 1100 l 1,29,-1
 1253 1100 l 1,30,-1
 1253 261 l 2,31,32
 1253 81 1253 81 1423 20 c 1,33,-1
 1423 0 l 1,0,-1
EndSplineSet
Validated: 1
EndChar

StartChar: v
Encoding: 118 118 89
Width: 1473
GlyphClass: 2
Flags: W
HStem: 0 21G<532.236 921> 1080 20G<5 396.71 732 1202>
VStem: 5 382<718 1100> 1014 359<492.524 843.609>
DStem2: 387 1100 5 1100 0.438697 -0.898635<0 881.516>
LayerCount: 2
Fore
SplineSet
542 0 m 1,0,-1
 5 1100 l 1,1,-1
 387 1100 l 1,2,-1
 772 307 l 1,3,4
 837 344 837 344 898 402 c 0,5,6
 1014 510 1014 510 1014 666 c 0,7,8
 1014 789 1014 789 940 894 c 0,9,10
 854 1016 854 1016 732 1100 c 1,11,-1
 1161 1100 l 1,12,13
 1243 1028 1243 1028 1295 937 c 0,14,15
 1373 799 1373 799 1373 672 c 0,16,17
 1373 431 1373 431 1166 240 c 0,18,19
 1020 105 1020 105 822 0 c 1,20,-1
 542 0 l 1,0,-1
EndSplineSet
Validated: 1
EndChar

StartChar: w
Encoding: 119 119 90
Width: 2140
GlyphClass: 2
Flags: W
HStem: -20 288<531.896 791.77 1280.37 1520.2> 1080 20G<306 734 903 1253 1454 1882.5>
VStem: 100 361<346.221 745.832> 903 350<379.884 1100> 1691 349<456.05 822.976>
LayerCount: 2
Fore
SplineSet
363 1100 m 1,0,1
 734 1100 l 1,2,3
 579 943 579 943 507 774 c 0,4,5
 461 666 461 666 461 528 c 0,6,7
 461 400 461 400 517 329 c 0,8,9
 565 268 565 268 659 268 c 0,10,11
 743 268 743 268 815 330 c 0,12,13
 903 406 903 406 903 536 c 2,14,-1
 903 1100 l 1,15,-1
 1253 1100 l 1,16,-1
 1253 400 l 2,17,18
 1253 322 1253 322 1287 295 c 0,19,20
 1320 268 1320 268 1361 268 c 0,21,22
 1489 268 1489 268 1572 355 c 0,23,24
 1691 479 1691 479 1691 635 c 0,25,26
 1691 758 1691 758 1608 897 c 0,27,28
 1543 1007 1543 1007 1454 1100 c 1,29,-1
 1843 1100 l 1,30,31
 1922 1021 1922 1021 1971 920 c 0,32,33
 2040 778 2040 778 2040 630 c 0,34,35
 2040 361 2040 361 1838 179 c 0,36,37
 1617 -20 1617 -20 1328 -20 c 0,38,39
 1178 -20 1178 -20 1055 79 c 0,40,41
 1019 108 1019 108 990 145 c 1,42,43
 921 73 921 73 837 24 c 0,44,45
 762 -20 762 -20 643 -20 c 0,46,47
 396 -20 396 -20 243 134 c 0,48,49
 100 278 100 278 100 492 c 0,50,51
 100 658 100 658 169 806 c 0,52,53
 249 979 249 979 363 1100 c 1,0,1
EndSplineSet
Validated: 1
EndChar

StartChar: x
Encoding: 120 120 91
Width: 1559
GlyphClass: 2
Flags: W
HStem: 0 21G<5 537.5 953.326 1409> 1080 20G<24 486.189 781 1194>
VStem: 24 445<655 1100> 967 351<643.526 939.629>
DStem2: 5 0 456 0 0.819232 0.573462<369.474 732.393> 469 1100 24 1100 0.652435 -0.757845<0 604.065 930.625 1161.15>
LayerCount: 2
Fore
SplineSet
5 0 m 1,0,-1
 605 420 l 1,1,-1
 24 1100 l 1,2,-1
 469 1100 l 1,3,-1
 891 609 l 1,4,5
 928 637 928 637 951 699 c 0,6,7
 967 742 967 742 967 802 c 0,8,9
 967 869 967 869 915 952 c 0,10,11
 859 1037 859 1037 781 1100 c 1,12,-1
 1176 1100 l 1,13,14
 1212 1069 1212 1069 1258 993 c 0,15,16
 1318 896 1318 896 1318 780 c 0,17,18
 1318 647 1318 647 1231 534 c 0,19,20
 1172 457 1172 457 1073 392 c 1,21,-1
 1409 0 l 1,22,-1
 971 0 l 1,23,-1
 781 215 l 1,24,25
 619 108 619 108 456 0 c 1,26,-1
 5 0 l 1,0,-1
EndSplineSet
Validated: 1
EndChar

StartChar: y
Encoding: 121 121 92
Width: 1453
GlyphClass: 2
Flags: W
HStem: -410 273<420.335 726.049> -20 288<531.739 782.407> 1080 20G<306 734 903 1253>
VStem: 100 361<346.221 745.832> 903 350<379.884 1100>
LayerCount: 2
Fore
SplineSet
102 -236 m 1,0,1
 348 -27 l 1,2,3
 441 -137 441 -137 549 -137 c 0,4,5
 704 -137 704 -137 796 -35 c 0,6,7
 854 29 854 29 881 124 c 1,8,9
 835 63 835 63 793 32 c 0,10,11
 724 -20 724 -20 601 -20 c 0,12,13
 396 -20 396 -20 243 134 c 0,14,15
 100 278 100 278 100 492 c 0,16,17
 100 658 100 658 169 806 c 0,18,19
 249 979 249 979 363 1100 c 1,20,-1
 734 1100 l 1,21,22
 579 943 579 943 507 774 c 0,23,24
 461 666 461 666 461 528 c 0,25,26
 461 400 461 400 517 329 c 0,27,28
 565 268 565 268 659 268 c 0,29,30
 743 268 743 268 815 330 c 0,31,32
 903 406 903 406 903 536 c 2,33,-1
 903 1100 l 1,34,-1
 1253 1100 l 1,35,-1
 1253 300 l 2,36,37
 1253 -1 1253 -1 1042 -196 c 0,38,39
 812 -409 812 -409 532 -410 c 0,40,41
 288 -410 288 -410 102 -236 c 1,0,1
EndSplineSet
Validated: 1
EndChar

StartChar: z
Encoding: 122 122 93
Width: 1321
GlyphClass: 2
Flags: W
HStem: 0 300<70 220.17 636 1050.25> 800 300<288.75 809.999>
VStem: 178 20<630 650.586> 810 350<659.173 884.312> 1141 20<449.414 470>
LayerCount: 2
Fore
SplineSet
70 0 m 1,0,-1
 70 300 l 1,1,2
 344 366 344 366 568 500 c 0,3,4
 810 645 810 645 810 768 c 0,5,6
 810 788 810 788 806 800 c 1,7,-1
 439 800 l 2,8,9
 259 800 259 800 198 630 c 1,10,-1
 178 630 l 1,11,-1
 178 964 l 1,12,13
 259 1100 259 1100 439 1100 c 2,14,-1
 1071 1100 l 1,15,16
 1160 969 1160 969 1160 825 c 0,17,18
 1160 576 1160 576 908 420 c 0,19,20
 790 347 790 347 636 300 c 1,21,-1
 900 300 l 2,22,23
 1080 300 1080 300 1141 470 c 1,24,-1
 1161 470 l 1,25,-1
 1161 136 l 1,26,27
 1080 0 1080 0 900 0 c 2,28,-1
 70 0 l 1,0,-1
EndSplineSet
Validated: 1
EndChar

StartChar: braceleft
Encoding: 123 123 94
Width: 1068
GlyphClass: 2
Flags: W
HStem: -287 300<719.305 1018> 621 300<50 286> 1518 300<719.305 1018>
VStem: 286 345<83.4707 621 921 1447.53>
LayerCount: 2
Fore
SplineSet
1018 -287 m 1,0,1
 611 -287 611 -287 449 -174 c 0,2,3
 286 -60 286 -60 286 184 c 2,4,-1
 286 621 l 1,5,-1
 50 621 l 1,6,-1
 50 921 l 1,7,-1
 286 921 l 1,8,-1
 286 1347 l 2,9,10
 286 1591 286 1591 449 1705 c 0,11,12
 611 1818 611 1818 1018 1818 c 1,13,-1
 1018 1518 l 1,14,15
 770 1518 770 1518 680 1452 c 0,16,17
 631 1416 631 1416 631 1337 c 2,18,-1
 631 194 l 2,19,20
 631 115 631 115 680 79 c 0,21,22
 770 13 770 13 1018 13 c 1,23,-1
 1018 -287 l 1,0,1
EndSplineSet
Validated: 1
EndChar

StartChar: bar
Encoding: 124 124 95
Width: 803
GlyphClass: 2
Flags: W
VStem: 250 302<-186 1695>
LayerCount: 2
Fore
SplineSet
250 -186 m 1,0,-1
 250 1695 l 1,1,-1
 553 1695 l 1,2,-1
 552 -186 l 1,3,-1
 250 -186 l 1,0,-1
EndSplineSet
Validated: 1
EndChar

StartChar: braceright
Encoding: 125 125 96
Width: 1068
GlyphClass: 2
Flags: W
HStem: -287 300<50 348.695> 621 300<782 1018> 1518 300<50 348.695>
VStem: 437 345<83.4707 621 921 1447.53>
LayerCount: 2
Fore
SplineSet
50 -287 m 1,0,1
 50 13 l 1,2,3
 298 13 298 13 388 79 c 0,4,5
 437 115 437 115 437 194 c 2,6,-1
 437 1337 l 2,7,8
 437 1416 437 1416 388 1452 c 0,9,10
 298 1518 298 1518 50 1518 c 1,11,-1
 50 1818 l 1,12,13
 457 1818 457 1818 619 1705 c 0,14,15
 782 1591 782 1591 782 1347 c 2,16,-1
 782 921 l 1,17,-1
 1018 921 l 1,18,-1
 1018 621 l 1,19,-1
 782 621 l 1,20,-1
 782 184 l 2,21,22
 782 -60 782 -60 619 -174 c 0,23,24
 457 -287 457 -287 50 -287 c 1,0,1
EndSplineSet
Validated: 1
EndChar

StartChar: asciitilde
Encoding: 126 126 97
Width: 1589
GlyphClass: 2
Flags: W
HStem: 467 310<963.484 1112.72> 759 310<476.277 625.516>
LayerCount: 2
Fore
SplineSet
150 659 m 1,0,1
 200 870 200 870 294 969 c 0,2,3
 389 1069 389 1069 550 1069 c 0,4,5
 708 1069 708 1069 812 968 c 9,6,-1
 966 818 l 17,7,8
 1008 777 1008 777 1040 777 c 24,9,10
 1156 777 1156 777 1167 1068 c 1,11,-1
 1439 877 l 1,12,13
 1389 666 1389 666 1295 567 c 0,14,15
 1200 467 1200 467 1039 467 c 0,16,17
 881 467 881 467 777 568 c 9,18,-1
 623 718 l 17,19,20
 581 759 581 759 549 759 c 24,21,22
 433 759 433 759 422 468 c 1,23,-1
 150 659 l 1,0,1
EndSplineSet
Validated: 1
EndChar

StartChar: exclamdown
Encoding: 161 161 99
Width: 862
GlyphClass: 2
Flags: W
HStem: 0 21G<254 608> 1126 405<305.33 557.892>
VStem: 230 402<1202.12 1454.89> 254 354<0 444.416> 287 287<609.584 1054>
LayerCount: 2
Fore
SplineSet
230 1334 m 0,0,1
 230 1411 230 1411 286 1471 c 128,-1,2
 342 1531 342 1531 431 1531 c 0,3,4
 516 1531 516 1531 575 1470 c 0,5,6
 632 1411 632 1411 632 1329 c 0,7,8
 632 1246 632 1246 575 1187 c 0,9,10
 516 1126 516 1126 431 1126 c 0,11,12
 348 1126 348 1126 288 1185 c 0,13,14
 230 1243 230 1243 230 1334 c 0,0,1
254 0 m 1,15,-1
 287 1054 l 1,16,-1
 574 1054 l 1,17,-1
 608 0 l 1,18,-1
 254 0 l 1,15,-1
EndSplineSet
Validated: 3073
EndChar

StartChar: cent
Encoding: 162 162 100
Width: 1348
GlyphClass: 2
Flags: W
VStem: 100 360<340.743 668.242> 602 270<-186 -11.468 302 785 1113.9 1282>
LayerCount: 2
Fore
SplineSet
1260 249 m 1,0,1
 1209 189 1209 189 1139 134 c 0,2,3
 1019 40 1019 40 872 3 c 1,4,-1
 872 -186 l 1,5,-1
 602 -186 l 1,6,-1
 602 -17 l 1,7,8
 393 2 393 2 248 136 c 0,9,10
 100 273 100 273 100 503 c 0,11,12
 100 768 100 768 356 968 c 0,13,14
 466 1054 466 1054 602 1092 c 1,15,-1
 602 1282 l 1,16,-1
 872 1282 l 1,17,-1
 872 1118 l 1,18,19
 1110 1103 1110 1103 1268 942 c 1,20,-1
 1003 742 l 1,21,22
 959 819 959 819 872 840 c 1,23,-1
 872 302 l 1,24,25
 896 317 896 317 918 337 c 0,26,27
 981 394 981 394 1009 469 c 1,28,-1
 1260 249 l 1,0,1
602 268 m 1,29,-1
 602 785 l 1,30,31
 588 775 588 775 576 763 c 0,32,33
 460 647 460 647 460 493 c 0,34,35
 460 380 460 380 523 317 c 0,36,37
 557 283 557 283 602 268 c 1,29,-1
EndSplineSet
Validated: 3073
EndChar

StartChar: sterling
Encoding: 163 163 101
Width: 1336
GlyphClass: 2
Flags: W
HStem: 0 300<106 200 550 1145.25> 621 300<114 200 550 944> 1110 21G<942.5 1003.86> 1258 273<654.384 900.407>
VStem: 200 350<300 621 921 1141.96> 1236 20<449.414 470>
LayerCount: 2
Fore
SplineSet
106 0 m 1,0,-1
 106 300 l 1,1,-1
 200 300 l 1,2,-1
 200 621 l 1,3,-1
 114 621 l 1,4,-1
 114 921 l 1,5,-1
 200 921 l 1,6,-1
 200 967 l 2,7,8
 200 1170 200 1170 378 1363 c 0,9,10
 534 1531 534 1531 794 1531 c 0,11,12
 1081 1531 1081 1531 1249 1306 c 1,13,-1
 976 1110 l 1,14,15
 909 1258 909 1258 784 1258 c 0,16,17
 683 1258 683 1258 622 1183 c 0,18,19
 550 1094 550 1094 550 961 c 2,20,-1
 550 921 l 1,21,-1
 944 921 l 1,22,-1
 944 621 l 1,23,-1
 550 621 l 1,24,-1
 550 300 l 1,25,-1
 995 300 l 2,26,27
 1175 300 1175 300 1236 470 c 1,28,-1
 1256 470 l 1,29,-1
 1256 136 l 1,30,31
 1175 0 1175 0 995 0 c 2,32,-1
 106 0 l 1,0,-1
EndSplineSet
Validated: 1
EndChar

StartChar: currency
Encoding: 164 164 102
Width: 1885
GlyphClass: 2
Flags: W
HStem: -12 21G<291.041 334.946 1549.04 1593.06> 190 274<740.545 1062.85> 1057 273<825.385 1147.16> 1503 20G<292.051 336 1548.08 1592.05>
VStem: 296 360<549.43 879.518> 1230 360<638.303 973.833>
DStem2: 314 1523 100 1328 0.739007 -0.673697<0 402.256 1556.28 1963.06> 100 182 313 -12 0.739485 0.673173<26.9149 377.492 1645.46 1989.77>
LayerCount: 2
Fore
SplineSet
885 464 m 0,0,1
 1025 464 1025 464 1114 547 c 0,2,3
 1230 655 1230 655 1230 817 c 0,4,5
 1230 931 1230 931 1167 995 c 0,6,7
 1106 1057 1106 1057 999 1057 c 0,8,9
 861 1057 861 1057 772 973 c 0,10,11
 656 863 656 863 656 703 c 0,12,13
 656 590 656 590 719 527 c 128,-1,14
 782 464 782 464 885 464 c 0,0,1
313 -12 m 1,15,-1
 100 182 l 1,16,-1
 372 430 l 1,17,18
 296 548 296 548 296 713 c 0,19,20
 296 892 296 892 414 1042 c 1,21,-1
 100 1328 l 1,22,-1
 314 1523 l 1,23,-1
 633 1233 l 1,24,25
 800 1330 800 1330 1018 1330 c 0,26,27
 1173 1330 1173 1330 1296 1273 c 1,28,-1
 1570 1523 l 1,29,-1
 1785 1328 l 1,30,-1
 1517 1084 l 1,31,32
 1590 968 1590 968 1590 807 c 0,33,34
 1590 624 1590 624 1467 472 c 1,35,-1
 1785 182 l 1,36,-1
 1571 -12 l 1,37,-1
 1246 284 l 1,38,39
 1080 190 1080 190 868 190 c 0,40,41
 717 190 717 190 595 245 c 1,42,-1
 313 -12 l 1,15,-1
EndSplineSet
Validated: 3073
EndChar

StartChar: yen
Encoding: 165 165 103
Width: 1711
GlyphClass: 2
Flags: W
HStem: 0 21G<666 1016> 348 270<224 559 1129 1487> 714 270<224 350 1347 1487> 1491 20G<50 454.499 1307.58 1661>
VStem: 50 393<1118 1511> 666 350<0 348> 1319 342<1169 1511>
DStem2: 1018 984 1347 984 0.511805 0.859102<168.384 606.8>
LayerCount: 2
Fore
SplineSet
666 0 m 1,0,-1
 666 348 l 1,1,-1
 224 348 l 1,2,-1
 224 618 l 1,3,-1
 559 618 l 1,4,-1
 504 714 l 1,5,-1
 224 714 l 1,6,-1
 224 984 l 1,7,-1
 350 984 l 1,8,-1
 50 1511 l 1,9,-1
 443 1511 l 1,10,-1
 746 984 l 1,11,-1
 1018 984 l 1,12,-1
 1319 1511 l 1,13,-1
 1661 1511 l 1,14,-1
 1347 984 l 1,15,-1
 1487 984 l 1,16,-1
 1487 714 l 1,17,-1
 1186 714 l 1,18,-1
 1129 618 l 1,19,-1
 1487 618 l 1,20,-1
 1487 348 l 1,21,-1
 1016 348 l 1,22,-1
 1016 0 l 1,23,-1
 666 0 l 1,0,-1
EndSplineSet
Validated: 3073
EndChar

StartChar: brokenbar
Encoding: 166 166 104
Width: 802
GlyphClass: 2
Flags: W
VStem: 250 302<-186 697 812 1695>
LayerCount: 2
Fore
SplineSet
250 -186 m 1,0,-1
 250 697 l 1,1,-1
 552 697 l 1,2,-1
 552 -186 l 1,3,-1
 250 -186 l 1,0,-1
250 812 m 1,4,-1
 250 1695 l 1,5,-1
 552 1695 l 1,6,-1
 552 812 l 1,7,-1
 250 812 l 1,4,-1
EndSplineSet
Validated: 3073
EndChar

StartChar: section
Encoding: 167 167 105
Width: 1370
GlyphClass: 2
Flags: W
HStem: -20 263<484.35 799.54> 1268 263<570.46 885.65>
VStem: 150 342<564.453 798.305> 223 343<1062.13 1253.03> 804 343<257.974 448.873> 878 342<712.695 946.547>
LayerCount: 2
Fore
SplineSet
247 145 m 9,0,-1
 503 336 l 17,1,2
 568 243 568 243 675 243 c 0,3,4
 720 243 720 243 748 253 c 0,5,6
 804 273 804 273 804 303 c 0,7,8
 804 328 804 328 779 336 c 1,9,-1
 464 395 l 1,10,11
 150 457 150 457 150 674 c 0,12,13
 150 779 150 779 203 864 c 9,14,-1
 539 790 l 17,15,16
 492 753 492 753 492 716 c 0,17,18
 492 680 492 680 525 674 c 2,19,-1
 897 607 l 2,20,21
 1147 562 1147 562 1147 335 c 24,22,23
 1147 186 1147 186 983 74 c 0,24,25
 845 -20 845 -20 650 -20 c 0,26,27
 406 -20 406 -20 247 145 c 9,0,-1
1123 1366 m 9,28,-1
 867 1175 l 17,29,30
 802 1268 802 1268 695 1268 c 0,31,32
 650 1268 650 1268 622 1258 c 0,33,34
 566 1238 566 1238 566 1208 c 0,35,36
 566 1183 566 1183 591 1175 c 1,37,-1
 906 1116 l 1,38,39
 1220 1054 1220 1054 1220 837 c 0,40,41
 1220 732 1220 732 1167 647 c 9,42,-1
 831 721 l 17,43,44
 878 758 878 758 878 795 c 0,45,46
 878 831 878 831 845 837 c 2,47,-1
 473 904 l 2,48,49
 223 949 223 949 223 1176 c 24,50,51
 223 1325 223 1325 387 1437 c 0,52,53
 525 1531 525 1531 720 1531 c 0,54,55
 964 1531 964 1531 1123 1366 c 9,28,-1
EndSplineSet
Validated: 3073
EndChar

StartChar: dieresis
Encoding: 168 168 106
Width: 1040
GlyphClass: 2
Flags: W
HStem: 1155 356<208.756 437.334 601.756 830.471>
VStem: 150 347<1213.56 1451.19> 543 347<1213.56 1451.19>
LayerCount: 2
Fore
SplineSet
890 1335 m 0,0,1
 890 1256 890 1256 839 1205.5 c 128,-1,2
 788 1155 788 1155 716 1155 c 0,3,4
 642 1155 642 1155 592 1208 c 0,5,6
 543 1261 543 1261 543 1333 c 128,-1,7
 543 1405 543 1405 592 1457 c 0,8,9
 643 1511 643 1511 716 1511 c 0,10,11
 785 1511 785 1511 839 1459 c 0,12,13
 890 1410 890 1410 890 1335 c 0,0,1
497 1335 m 0,14,15
 497 1256 497 1256 445.5 1205.5 c 128,-1,16
 394 1155 394 1155 323 1155 c 0,17,18
 249 1155 249 1155 199 1208 c 0,19,20
 150 1260 150 1260 150 1333 c 0,21,22
 150 1405 150 1405 199 1457 c 0,23,24
 250 1511 250 1511 323 1511 c 0,25,26
 392 1511 392 1511 446 1459 c 0,27,28
 497 1410 497 1410 497 1335 c 0,14,15
EndSplineSet
Validated: 3073
EndChar

StartChar: copyright
Encoding: 169 169 107
Width: 1451
GlyphClass: 2
Flags: W
HStem: 164 120<534.72 923.541> 374 207<615.779 813.929> 922 208<645.801 902.146> 1226 130<539.039 914.808>
VStem: 150 124<552.209 960.304> 346 239<617.978 860.648> 1175 126<561.735 964.051>
LayerCount: 2
Fore
SplineSet
1058 582 m 17,0,1
 1014 512 1014 512 934 452 c 0,2,3
 831 374 831 374 703 374 c 0,4,5
 529 374 529 374 439 480 c 0,6,7
 346 590 346 590 346 719 c 0,8,9
 346 913 346 913 498 1031 c 0,10,11
 626 1130 626 1130 775 1130 c 0,12,13
 933 1130 933 1130 1053 1001 c 9,14,-1
 871 860 l 17,15,16
 836 922 836 922 770 922 c 0,17,18
 688 922 688 922 646 880 c 0,19,20
 585 819 585 819 585 732 c 0,21,22
 585 663 585 663 614 625 c 0,23,24
 648 581 648 581 707 581 c 128,-1,25
 766 581 766 581 814 626 c 0,26,27
 845 655 845 655 870 702 c 9,28,-1
 1058 582 l 17,0,1
726 284 m 0,29,30
 924 285 924 285 1042 423 c 0,31,32
 1175 579 1175 579 1175 760 c 0,33,34
 1175 960 1175 960 1037.5 1093 c 128,-1,35
 900 1226 900 1226 726 1226 c 0,36,37
 548 1226 548 1226 409 1090 c 0,38,39
 274 958 274 958 274 756 c 0,40,41
 274 548 274 548 428 404 c 0,42,43
 556 284 556 284 726 284 c 0,29,30
728 164 m 0,44,45
 482 164 482 164 318 333 c 0,46,47
 150 506 150 506 150 754 c 0,48,49
 150 993 150 993 318 1178 c 0,50,51
 480 1356 480 1356 726 1356 c 0,52,53
 974 1356 974 1356 1144 1179 c 24,54,55
 1301 1016 1301 1016 1301 754 c 0,56,57
 1301 505 1301 505 1133 333 c 0,58,59
 968 164 968 164 728 164 c 0,44,45
EndSplineSet
Validated: 3073
EndChar

StartChar: ordfeminine
Encoding: 170 170 108
Width: 1333
GlyphClass: 2
Flags: W
HStem: 470 300<150 1183> 831 217<623.114 728.779> 1308 223<643.422 776>
VStem: 350 253<1066.46 1270.98> 729 253<1048.45 1303.87>
LayerCount: 2
Fore
SplineSet
729 1089 m 1,0,-1
 728 1282 l 2,1,2
 728 1300 728 1300 725 1304 c 0,3,4
 721 1308 721 1308 716 1308 c 0,5,6
 667 1308 667 1308 627 1242 c 0,7,8
 603 1202 603 1202 603 1151 c 0,9,10
 603 1102 603 1102 622.5 1075 c 128,-1,11
 642 1048 642 1048 679 1048 c 0,12,13
 691 1048 691 1048 705 1059 c 0,14,15
 722 1073 722 1073 729 1089 c 1,0,-1
1106 840 m 1,16,-1
 732 840 l 1,17,18
 701 831 701 831 664 831 c 0,19,20
 523 831 523 831 430 932 c 0,21,22
 350 1020 350 1020 350 1138 c 0,23,24
 350 1305 350 1305 480 1428 c 0,25,26
 589 1531 589 1531 729 1531 c 0,27,28
 823 1531 823 1531 902 1465 c 0,29,30
 982 1398 982 1398 982 1269 c 2,31,-1
 982 969 l 1,32,-1
 1106 840 l 1,16,-1
150 470 m 1,33,-1
 150 770 l 1,34,-1
 1183 770 l 1,35,-1
 1183 470 l 1,36,-1
 150 470 l 1,33,-1
EndSplineSet
Validated: 1
EndChar

StartChar: guillemotleft
Encoding: 171 171 109
Width: 1615
GlyphClass: 2
Flags: W
HStem: 6 451<372 823 964 1415> 1123 383<440 823 1032 1415>
DStem2: 150 865 476 784 0.724112 0.689682<180.196 665.266> 476 784 150 646 0.72465 -0.689117<0 476.795> 742 865 1068 784 0.724112 0.689682<180.196 665.266> 1068 784 742 646 0.72465 -0.689117<0 476.795>
LayerCount: 2
Fore
SplineSet
1415 1506 m 1,0,-1
 1415 1123 l 1,1,-1
 1068 784 l 1,2,-1
 1415 457 l 1,3,-1
 1415 6 l 1,4,-1
 742 646 l 1,5,-1
 742 865 l 1,6,-1
 1415 1506 l 1,0,-1
823 1506 m 1,7,-1
 823 1123 l 1,8,-1
 476 784 l 1,9,-1
 823 457 l 1,10,-1
 823 6 l 1,11,-1
 150 646 l 1,12,-1
 150 865 l 1,13,-1
 823 1506 l 1,7,-1
EndSplineSet
Validated: 3073
EndChar

StartChar: logicalnot
Encoding: 172 172 110
Width: 1333
GlyphClass: 2
Flags: W
HStem: 621 300<150 883>
VStem: 883 300<364 621>
LayerCount: 2
Fore
SplineSet
150 621 m 1,0,-1
 150 921 l 1,1,-1
 1183 921 l 1,2,-1
 1183 364 l 1,3,-1
 883 364 l 1,4,-1
 883 621 l 1,5,-1
 150 621 l 1,0,-1
EndSplineSet
Validated: 3073
EndChar

StartChar: uni00AD
Encoding: 173 173 111
Width: 1333
GlyphClass: 2
Flags: W
HStem: 621 300<150 1183>
LayerCount: 2
Fore
SplineSet
150 621 m 1,0,-1
 150 921 l 1,1,-1
 1183 921 l 1,2,-1
 1183 621 l 1,3,-1
 150 621 l 1,0,-1
EndSplineSet
Validated: 3073
EndChar

StartChar: registered
Encoding: 174 174 112
Width: 1451
GlyphClass: 2
Flags: W
HStem: 164 120<534.715 923.553> 937 214<686.644 795.011> 1226 130<538.108 914.808>
VStem: 150 124<552.032 960.304> 420 240<411 500 709.001 910.085> 807 237<739.239 922.889> 1175 126<558.078 964.051>
LayerCount: 2
Fore
SplineSet
728 164 m 0,0,1
 482 164 482 164 318 333 c 0,2,3
 150 506 150 506 150 754 c 0,4,5
 150 993 150 993 318 1178 c 0,6,7
 480 1356 480 1356 726 1356 c 0,8,9
 974 1356 974 1356 1144 1179 c 0,10,11
 1301 1016 1301 1016 1301 754 c 0,12,13
 1301 505 1301 505 1133 333 c 0,14,15
 968 164 968 164 728 164 c 0,0,1
792 913 m 0,16,17
 775 937 775 937 753 937 c 0,18,19
 724 937 724 937 694 911 c 0,20,21
 660 882 660 882 660 819 c 2,22,-1
 660 715 l 1,23,24
 689 709 689 709 705 709 c 0,25,26
 741 709 741 709 776 744 c 0,27,28
 807 776 807 776 807 838 c 0,29,30
 807 890 807 890 792 913 c 0,16,17
469 1141 m 1,31,-1
 660 1141 l 1,32,-1
 660 1130 l 1,33,34
 708 1151 708 1151 766 1151 c 0,35,36
 884 1151 884 1151 970 1070 c 0,37,38
 1044 1000 1044 1000 1044 880 c 0,39,40
 1044 791 1044 791 1011 720 c 0,41,42
 974 640 974 640 908 591 c 1,43,-1
 1055 438 l 1,44,45
 1175 588 1175 588 1175 760 c 0,46,47
 1175 960 1175 960 1037.5 1093 c 128,-1,48
 900 1226 900 1226 726 1226 c 0,49,50
 585 1226 585 1226 469 1141 c 1,31,-1
420 411 m 1,51,-1
 423 1103 l 1,52,-1
 409 1090 l 1,53,54
 274 958 274 958 274 756 c 128,-1,55
 274 554 274 554 420 411 c 1,51,-1
486 357 m 1,56,57
 594 284 594 284 726 284 c 0,58,59
 868 284 868 284 970 357 c 1,60,-1
 768 357 l 1,61,-1
 660 500 l 1,62,-1
 660 357 l 1,63,-1
 486 357 l 1,56,57
EndSplineSet
Validated: 3073
EndChar

StartChar: macron
Encoding: 175 175 113
Width: 1333
GlyphClass: 2
Flags: W
HStem: 1211 300<150 1183>
LayerCount: 2
Fore
SplineSet
150 1211 m 1,0,-1
 150 1511 l 1,1,-1
 1183 1511 l 1,2,-1
 1183 1211 l 1,3,-1
 150 1211 l 1,0,-1
EndSplineSet
Validated: 3073
EndChar

StartChar: degree
Encoding: 176 176 114
Width: 1178
GlyphClass: 2
Flags: W
HStem: 711 266<475.88 671.778> 1265 266<509.272 703.26>
VStem: 150 302<1007.41 1215.75> 728 300<1026.94 1232.69>
LayerCount: 2
Fore
SplineSet
552 711 m 0,0,1
 355 711 355 711 252 832 c 0,2,3
 150 952 150 952 150 1089 c 0,4,5
 150 1280 150 1280 309 1419 c 0,6,7
 437 1531 437 1531 628 1531 c 0,8,9
 820 1531 820 1531 927 1413 c 0,10,11
 1028 1302 1028 1302 1028 1155 c 0,12,13
 1028 959 1028 959 863 820 c 0,14,15
 734 711 734 711 552 711 c 0,0,1
559 977 m 0,16,17
 624 977 624 977 669 1013 c 0,18,19
 728 1060 728 1060 728 1141 c 0,20,21
 728 1192 728 1192 705 1223 c 24,22,23
 674 1265 674 1265 624 1265 c 0,24,25
 558 1265 558 1265 513 1231 c 0,26,27
 452 1185 452 1185 452 1102 c 0,28,29
 452 1049 452 1049 475 1017 c 0,30,31
 504 977 504 977 559 977 c 0,16,17
EndSplineSet
Validated: 3073
EndChar

StartChar: plusminus
Encoding: 177 177 115
Width: 1333
GlyphClass: 2
Flags: W
HStem: 98 300<150 1183> 824 300<150 516 816 1183>
VStem: 516 300<457 824 1124 1491>
LayerCount: 2
Fore
SplineSet
150 98 m 1,0,-1
 150 398 l 1,1,-1
 1183 398 l 1,2,-1
 1183 98 l 1,3,-1
 150 98 l 1,0,-1
150 824 m 1,4,-1
 150 1124 l 1,5,-1
 516 1124 l 1,6,-1
 516 1491 l 1,7,-1
 816 1491 l 1,8,-1
 816 1124 l 1,9,-1
 1183 1124 l 1,10,-1
 1183 824 l 1,11,-1
 816 824 l 1,12,-1
 816 457 l 1,13,-1
 516 457 l 1,14,-1
 516 824 l 1,15,-1
 150 824 l 1,4,-1
EndSplineSet
Validated: 3073
EndChar

StartChar: uni00B2
Encoding: 178 178 116
Width: 1068
GlyphClass: 2
Flags: W
HStem: 715 300<639 884.818> 1080 20G<892 917> 1296 235<455.261 595.905>
VStem: 150 767<754 983.466> 907 10<1089.71 1100>
LayerCount: 2
Fore
SplineSet
229 715 m 1,0,1
 150 794 150 794 150 865 c 0,2,3
 150 975 150 975 267 1043 c 1,4,-1
 571 1222 l 2,5,6
 596 1237 596 1237 596 1256 c 0,7,8
 596 1272 596 1272 582 1284 c 128,-1,9
 568 1296 568 1296 548 1296 c 24,10,11
 514 1296 514 1296 478 1271 c 0,12,13
 430 1237 430 1237 402 1186 c 9,14,-1
 162 1326 l 1,15,16
 222 1411 222 1411 314 1473 c 0,17,18
 401 1531 401 1531 554 1531 c 0,19,20
 726 1531 726 1531 822 1455 c 128,-1,21
 918 1379 918 1379 918 1270 c 0,22,23
 918 1147 918 1147 764 1072 c 1,24,-1
 639 1015 l 1,25,-1
 786 1015 l 2,26,27
 877 1015 877 1015 907 1100 c 1,28,-1
 917 1100 l 1,29,-1
 917 783 l 1,30,31
 876 715 876 715 786 715 c 2,32,-1
 229 715 l 1,0,1
EndSplineSet
Validated: 1
EndChar

StartChar: uni00B3
Encoding: 179 179 117
Width: 1086
GlyphClass: 2
Flags: W
HStem: 705 260<442.521 606.426> 1077 135<515 575.493> 1287 244<453.413 592.867>
VStem: 594 259<1247.93 1407>
LayerCount: 2
Fore
SplineSet
150 978 m 9,0,-1
 428 1050 l 17,1,2
 445 965 445 965 519 965 c 0,3,4
 561 965 561 965 587 986 c 0,5,6
 614 1008 614 1008 614 1031 c 0,7,8
 614 1077 614 1077 515 1077 c 9,9,-1
 515 1212 l 17,10,11
 560 1212 560 1212 576 1220 c 24,12,13
 594 1229 594 1229 594 1252 c 0,14,15
 594 1287 594 1287 557 1287 c 0,16,17
 516 1287 516 1287 486 1269 c 24,18,19
 448 1246 448 1246 424 1209 c 9,20,-1
 275 1401 l 17,21,22
 393 1531 393 1531 582 1531 c 0,23,24
 687 1531 687 1531 746 1504 c 24,25,26
 853 1456 853 1456 853 1358 c 0,27,28
 853 1290 853 1290 800 1235 c 1,29,30
 936 1175 936 1175 936 1048 c 0,31,32
 936 918 936 918 803 809 c 0,33,34
 675 705 675 705 500 705 c 0,35,36
 374 705 374 705 285 776 c 0,37,38
 209 837 209 837 150 978 c 9,0,-1
EndSplineSet
Validated: 3073
EndChar

StartChar: acute
Encoding: 180 180 118
Width: 903
GlyphClass: 2
Flags: W
HStem: 880 631
VStem: 150 603
DStem2: 150 1102 363 880 0.691944 0.721951<0 552.247>
LayerCount: 2
Fore
SplineSet
363 880 m 1,0,-1
 150 1102 l 1,1,-1
 542 1511 l 1,2,-1
 753 1289 l 1,3,-1
 363 880 l 1,0,-1
EndSplineSet
Validated: 3073
EndChar

StartChar: uni00B5
Encoding: 181 181 119
Width: 1503
GlyphClass: 2
Flags: W
HStem: -410 21G<150 500> -20 288<582.325 841.77> 0 20<1452.41 1473> 1080 20G<356 784 953 1303>
VStem: 150 350<-410 8 366.489 740.047> 953 350<379.884 1100>
LayerCount: 2
Fore
SplineSet
1473 0 m 1,0,-1
 1089 0 l 1,1,2
 1023 39 1023 39 990 101 c 1,3,4
 945 58 945 58 887 24 c 0,5,6
 812 -20 812 -20 693 -20 c 0,7,8
 588 -20 588 -20 500 8 c 1,9,-1
 500 -410 l 1,10,-1
 150 -410 l 1,11,-1
 150 492 l 2,12,13
 150 657 150 657 219 806 c 0,14,15
 299 979 299 979 413 1100 c 1,16,-1
 784 1100 l 1,17,18
 629 943 629 943 557 774 c 0,19,20
 511 666 511 666 511 528 c 0,21,22
 511 403 511 403 567 329 c 0,23,24
 615 268 615 268 709 268 c 0,25,26
 793 268 793 268 865 330 c 0,27,28
 953 406 953 406 953 536 c 2,29,-1
 953 1100 l 1,30,-1
 1303 1100 l 1,31,-1
 1303 261 l 2,32,33
 1303 81 1303 81 1473 20 c 1,34,-1
 1473 0 l 1,0,-1
EndSplineSet
Validated: 1
EndChar

StartChar: paragraph
Encoding: 182 182 120
Width: 1365
GlyphClass: 2
Flags: W
HStem: 0 21G<715 892 984 1165> 554 957<472.677 712.529> 1284 227<892 984>
VStem: 150 742<766.297 1186.23> 715 177<0 585> 984 181<0 1284>
LayerCount: 2
Fore
SplineSet
715 0 m 1,0,-1
 715 585 l 1,1,2
 636 554 636 554 548 554 c 0,3,4
 356 554 356 554 242 692 c 0,5,6
 150 804 150 804 150 960 c 0,7,8
 150 1200 150 1200 319 1360 c 0,9,10
 478 1511 478 1511 658 1511 c 0,11,12
 687 1511 687 1511 715 1507 c 1,13,-1
 715 1511 l 1,14,-1
 1165 1511 l 1,15,-1
 1165 0 l 1,16,-1
 984 0 l 1,17,-1
 984 1284 l 1,18,-1
 892 1284 l 1,19,-1
 892 0 l 1,20,-1
 715 0 l 1,0,-1
EndSplineSet
Validated: 3073
EndChar

StartChar: periodcentered
Encoding: 183 183 121
Width: 702
GlyphClass: 2
Flags: W
HStem: 567 405<224.108 475.69>
VStem: 150 402<643.109 895.875>
LayerCount: 2
Fore
SplineSet
552 764 m 0,0,1
 552 687 552 687 496 627 c 128,-1,2
 440 567 440 567 351 567 c 0,3,4
 266 567 266 567 207 628 c 0,5,6
 150 687 150 687 150 769 c 0,7,8
 150 852 150 852 207 911 c 0,9,10
 266 972 266 972 351 972 c 0,11,12
 433 972 433 972 493 913 c 0,13,14
 552 855 552 855 552 764 c 0,0,1
EndSplineSet
Validated: 1
EndChar

StartChar: cedilla
Encoding: 184 184 122
Width: 756
GlyphClass: 2
Flags: W
HStem: -410 21G<410.79 521.5>
VStem: 271 335<-132.469 136.598>
LayerCount: 2
Fore
SplineSet
351 366 m 1,0,1
 606 222 606 222 606 -32 c 0,2,3
 606 -251 606 -251 437 -410 c 1,4,-1
 150 -191 l 1,5,6
 271 -130 271 -130 271 -5 c 0,7,8
 271 126 271 126 176 176 c 1,9,-1
 351 366 l 1,0,1
EndSplineSet
Validated: 3073
EndChar

StartChar: uni00B9
Encoding: 185 185 123
Width: 850
GlyphClass: 2
Flags: W
HStem: 1501 20G<150 557>
VStem: 150 450<1221 1488.93>
LayerCount: 2
Fore
SplineSet
275 715 m 1,0,-1
 275 1221 l 1,1,-1
 150 1221 l 1,2,-1
 150 1521 l 1,3,-1
 514 1521 l 1,4,5
 600 1472 600 1472 600 1366 c 2,6,-1
 600 715 l 1,7,-1
 275 715 l 1,0,-1
EndSplineSet
Validated: 1
EndChar

StartChar: ordmasculine
Encoding: 186 186 124
Width: 1333
GlyphClass: 2
Flags: W
HStem: 470 300<150 1183> 829 217<589.145 725.343> 1313 218<608.464 749.266>
VStem: 318 252<1067.85 1275.93> 763 251<1088.92 1305.79>
LayerCount: 2
Fore
SplineSet
150 470 m 1,0,-1
 150 770 l 1,1,-1
 1183 770 l 1,2,-1
 1183 470 l 1,3,-1
 150 470 l 1,0,-1
934 983 m 0,4,5
 814 829 814 829 632 829 c 0,6,7
 485 829 485 829 401 924 c 0,8,9
 318 1018 318 1018 318 1166 c 0,10,11
 318 1271 318 1271 389 1367 c 0,12,13
 511 1531 511 1531 700 1531 c 0,14,15
 846 1531 846 1531 937 1429 c 0,16,17
 1014 1343 1014 1343 1014 1222 c 0,18,19
 1014 1087 1014 1087 934 983 c 0,4,5
744 1280 m 0,20,21
 725 1313 725 1313 694 1313 c 0,22,23
 630 1313 630 1313 590 1243 c 0,24,25
 570 1209 570 1209 570 1159 c 0,26,27
 570 1113 570 1113 590 1080 c 0,28,29
 612 1046 612 1046 643 1046 c 24,30,31
 687 1046 687 1046 729 1093 c 0,32,33
 763 1132 763 1132 763 1201 c 0,34,35
 763 1249 763 1249 744 1280 c 0,20,21
EndSplineSet
Validated: 3073
EndChar

StartChar: guillemotright
Encoding: 187 187 125
Width: 1615
GlyphClass: 2
Flags: W
HStem: 6 383<200 583 792 1175> 1055 451<200 651 792 1243>
DStem2: 200 1506 200 1055 0.72465 -0.689117<310.792 787.587> 200 389 200 6 0.724112 0.689682<0 485.069> 792 1506 792 1055 0.72465 -0.689117<310.792 787.587> 792 389 792 6 0.724112 0.689682<0 485.069>
LayerCount: 2
Fore
SplineSet
200 1506 m 1,0,-1
 873 866 l 1,1,-1
 873 647 l 1,2,-1
 200 6 l 1,3,-1
 200 389 l 1,4,-1
 547 728 l 1,5,-1
 200 1055 l 1,6,-1
 200 1506 l 1,0,-1
792 1506 m 1,7,-1
 1465 866 l 1,8,-1
 1465 647 l 1,9,-1
 792 6 l 1,10,-1
 792 389 l 1,11,-1
 1139 728 l 1,12,-1
 792 1055 l 1,13,-1
 792 1506 l 1,7,-1
EndSplineSet
Validated: 3073
EndChar

StartChar: onequarter
Encoding: 188 188 126
Width: 1876
GlyphClass: 2
Flags: W
HStem: 0 21G<195 555.283 1301 1626> 159 200<1208 1301> 1501 20G<150 557 1110.72 1471>
VStem: 150 450<1221 1488.93> 195 348<0 348> 1123 348<1163 1511> 1301 325<0 159 359 506>
DStem2: 195 0 543 0 0.523342 0.852123<182.123 1773.22>
LayerCount: 2
Fore
SplineSet
1301 0 m 1,0,-1
 1301 159 l 1,1,-1
 861 159 l 1,2,3
 878 361 878 361 1052 562 c 0,4,5
 1188 719 1188 719 1388 806 c 1,6,-1
 1540 806 l 1,7,8
 1626 757 1626 757 1626 651 c 2,9,-1
 1626 0 l 1,10,-1
 1301 0 l 1,0,-1
275 715 m 1,11,-1
 275 1221 l 1,12,-1
 150 1221 l 1,13,-1
 150 1521 l 1,14,-1
 514 1521 l 1,15,16
 600 1472 600 1472 600 1366 c 2,17,-1
 600 715 l 1,18,-1
 275 715 l 1,11,-1
1301 506 m 1,19,20
 1238 452 1238 452 1208 359 c 1,21,-1
 1301 359 l 1,22,-1
 1301 506 l 1,19,20
195 0 m 1,23,-1
 1123 1511 l 1,24,-1
 1471 1511 l 1,25,-1
 543 0 l 1,26,-1
 195 0 l 1,23,-1
EndSplineSet
Validated: 1
EndChar

StartChar: onehalf
Encoding: 189 189 127
Width: 1929
GlyphClass: 2
Flags: W
HStem: 0 300<1450 1695.82> 581 235<1266.26 1406.9> 1501 20G<150 557 1110.72 1471>
VStem: 150 450<1221 1488.93> 195 348<0 348> 961 767<39 268.466> 1123 348<1163 1511> 1718 10<374.707 385>
DStem2: 195 0 543 0 0.523342 0.852123<182.123 1773.22>
LayerCount: 2
Fore
SplineSet
1040 0 m 1,0,1
 961 79 961 79 961 150 c 0,2,3
 961 260 961 260 1078 328 c 1,4,-1
 1382 507 l 2,5,6
 1407 522 1407 522 1407 541 c 0,7,8
 1407 557 1407 557 1393 569 c 128,-1,9
 1379 581 1379 581 1359 581 c 24,10,11
 1325 581 1325 581 1289 556 c 0,12,13
 1241 522 1241 522 1213 471 c 9,14,-1
 973 611 l 1,15,16
 1033 696 1033 696 1125 758 c 0,17,18
 1212 816 1212 816 1365 816 c 0,19,20
 1537 816 1537 816 1633 740 c 128,-1,21
 1729 664 1729 664 1729 555 c 0,22,23
 1729 432 1729 432 1575 357 c 1,24,-1
 1450 300 l 1,25,-1
 1597 300 l 2,26,27
 1688 300 1688 300 1718 385 c 1,28,-1
 1728 385 l 1,29,-1
 1728 68 l 1,30,31
 1687 0 1687 0 1597 0 c 2,32,-1
 1040 0 l 1,0,1
275 715 m 1,33,-1
 275 1221 l 1,34,-1
 150 1221 l 1,35,-1
 150 1521 l 1,36,-1
 514 1521 l 1,37,38
 600 1472 600 1472 600 1366 c 2,39,-1
 600 715 l 1,40,-1
 275 715 l 1,33,-1
195 0 m 1,41,-1
 1123 1511 l 1,42,-1
 1471 1511 l 1,43,-1
 543 0 l 1,44,-1
 195 0 l 1,41,-1
EndSplineSet
Validated: 1
EndChar

StartChar: threequarters
Encoding: 190 190 128
Width: 2108
GlyphClass: 2
Flags: W
HStem: 0 21G<427 787.283 1533 1858> 159 200<1440 1533> 705 260<442.521 606.426> 1077 135<515 575.493> 1287 244<453.413 592.867> 1491 20G<1342.72 1703>
VStem: 427 348<0 348> 594 259<1247.93 1407> 1355 348<1163 1511> 1533 325<0 159 359 506>
DStem2: 427 0 775 0 0.523342 0.852123<182.123 1773.22>
LayerCount: 2
Fore
SplineSet
1533 0 m 1,0,-1
 1533 159 l 1,1,-1
 1093 159 l 1,2,3
 1110 361 1110 361 1284 562 c 0,4,5
 1420 719 1420 719 1620 806 c 1,6,-1
 1772 806 l 1,7,8
 1858 757 1858 757 1858 651 c 2,9,-1
 1858 0 l 1,10,-1
 1533 0 l 1,0,-1
1533 506 m 1,11,12
 1470 452 1470 452 1440 359 c 1,13,-1
 1533 359 l 1,14,-1
 1533 506 l 1,11,12
150 978 m 9,15,-1
 428 1050 l 17,16,17
 445 965 445 965 519 965 c 0,18,19
 561 965 561 965 587 986 c 0,20,21
 614 1008 614 1008 614 1031 c 0,22,23
 614 1077 614 1077 515 1077 c 9,24,-1
 515 1212 l 17,25,26
 560 1212 560 1212 576 1220 c 24,27,28
 594 1229 594 1229 594 1252 c 0,29,30
 594 1287 594 1287 557 1287 c 0,31,32
 516 1287 516 1287 486 1269 c 24,33,34
 448 1246 448 1246 424 1209 c 9,35,-1
 275 1401 l 17,36,37
 393 1531 393 1531 582 1531 c 0,38,39
 687 1531 687 1531 746 1504 c 24,40,41
 853 1456 853 1456 853 1358 c 0,42,43
 853 1290 853 1290 800 1235 c 1,44,45
 936 1175 936 1175 936 1048 c 0,46,47
 936 918 936 918 803 809 c 0,48,49
 675 705 675 705 500 705 c 0,50,51
 374 705 374 705 285 776 c 0,52,53
 209 837 209 837 150 978 c 9,15,-1
427 0 m 1,54,-1
 1355 1511 l 1,55,-1
 1703 1511 l 1,56,-1
 775 0 l 1,57,-1
 427 0 l 1,54,-1
EndSplineSet
Validated: 1
EndChar

StartChar: questiondown
Encoding: 191 191 129
Width: 1546
GlyphClass: 2
Flags: W
HStem: -20 274<593.844 895.827> 1126 405<704.088 956.892>
VStem: 150 353<342.621 611.248> 629 402<1202.12 1454.89>
LayerCount: 2
Fore
SplineSet
629 1334 m 0,0,1
 629 1411 629 1411 685 1471 c 128,-1,2
 741 1531 741 1531 830 1531 c 0,3,4
 915 1531 915 1531 974 1470 c 0,5,6
 1031 1411 1031 1411 1031 1329 c 0,7,8
 1031 1246 1031 1246 974 1187 c 0,9,10
 915 1126 915 1126 830 1126 c 0,11,12
 746 1126 746 1126 687 1185 c 0,13,14
 629 1243 629 1243 629 1334 c 0,0,1
1396 448 m 1,15,16
 1285 225 1285 225 1118 104 c 0,17,18
 946 -20 946 -20 726 -20 c 0,19,20
 449 -20 449 -20 290 139 c 0,21,22
 150 280 150 280 150 480 c 0,23,24
 150 718 150 718 430 904 c 1,25,-1
 676 1074 l 1,26,-1
 979 1074 l 1,27,28
 979 1021 979 1021 952 980 c 0,29,30
 935 954 935 954 863 894 c 2,31,-1
 614 686 l 2,32,33
 503 593 503 593 503 475 c 0,34,35
 503 391 503 391 555 332 c 0,36,37
 624 254 624 254 746 254 c 0,38,39
 856 254 856 254 948 338 c 0,40,41
 1057 438 1057 438 1100 611 c 1,42,-1
 1396 448 l 1,15,16
EndSplineSet
Validated: 3073
EndChar

StartChar: Agrave
Encoding: 192 192 130
Width: 1767
GlyphClass: 2
Flags: W
HStem: 0 21G<5 349.469 1369.24 1762> 621 300<761 946> 1491 20G<727.311 1039.69>
VStem: 5 335<0 335> 1379 383<0 383>
DStem2: 5 0 340 0 0.435981 0.899956<146.054 833.105 1158.46 1296.79> 1030 1511 852 1136 0.435981 -0.899956<259.879 494.351>
LayerCount: 2
Fore
SplineSet
932 1559 m 1,0,-1
 514 1696 l 1,1,-1
 645 1966 l 1,2,-1
 1031 1760 l 1,3,-1
 932 1559 l 1,0,-1
5 0 m 1,4,-1
 737 1511 l 1,5,-1
 1030 1511 l 1,6,-1
 1762 0 l 1,7,-1
 1379 0 l 1,8,-1
 1076 621 l 1,9,-1
 634 621 l 1,10,-1
 340 0 l 1,11,-1
 5 0 l 1,4,-1
852 1136 m 1,12,-1
 761 921 l 1,13,-1
 946 921 l 1,14,-1
 852 1136 l 1,12,-1
EndSplineSet
Validated: 3073
EndChar

StartChar: Aacute
Encoding: 193 193 131
Width: 1767
GlyphClass: 2
Flags: W
HStem: 0 21G<5 349.469 1369.24 1762> 621 300<761 946> 1491 20G<727.311 1039.69>
VStem: 5 335<0 335> 1379 383<0 383>
DStem2: 5 0 340 0 0.435981 0.899956<146.054 833.105 1158.46 1296.79> 1030 1511 852 1136 0.435981 -0.899956<259.879 494.351>
LayerCount: 2
Fore
SplineSet
822 1559 m 1,0,-1
 723 1760 l 1,1,-1
 1109 1966 l 1,2,-1
 1240 1696 l 1,3,-1
 822 1559 l 1,0,-1
5 0 m 1,4,-1
 737 1511 l 1,5,-1
 1030 1511 l 1,6,-1
 1762 0 l 1,7,-1
 1379 0 l 1,8,-1
 1076 621 l 1,9,-1
 634 621 l 1,10,-1
 340 0 l 1,11,-1
 5 0 l 1,4,-1
852 1136 m 1,12,-1
 761 921 l 1,13,-1
 946 921 l 1,14,-1
 852 1136 l 1,12,-1
EndSplineSet
Validated: 3073
EndChar

StartChar: Acircumflex
Encoding: 194 194 132
Width: 1767
GlyphClass: 2
Flags: W
HStem: 0 21G<5 349.469 1369.24 1762> 621 300<761 946> 1491 20G<727.311 1039.69> 1684 282<747 1029>
VStem: 5 335<0 335> 1379 383<0 383>
DStem2: 1030 1511 852 1136 0.435981 -0.899956<259.879 494.351>
LayerCount: 2
Fore
SplineSet
657 1559 m 1,0,-1
 558 1760 l 1,1,-1
 888 1966 l 1,2,-1
 1218 1760 l 1,3,-1
 1119 1559 l 1,4,-1
 888 1684 l 1,5,-1
 657 1559 l 1,0,-1
5 0 m 1,6,-1
 737 1511 l 1,7,-1
 1030 1511 l 1,8,-1
 1762 0 l 1,9,-1
 1379 0 l 1,10,-1
 1076 621 l 1,11,-1
 634 621 l 1,12,-1
 340 0 l 1,13,-1
 5 0 l 1,6,-1
852 1136 m 1,14,-1
 761 921 l 1,15,-1
 946 921 l 1,16,-1
 852 1136 l 1,14,-1
EndSplineSet
Validated: 3073
EndChar

StartChar: Atilde
Encoding: 195 195 133
Width: 1767
GlyphClass: 2
Flags: W
HStem: 0 21G<5 349.469 1369.24 1762> 621 300<761 946> 1491 20G<727.311 1039.69> 1608 230<865.436 1156.19> 1670 230<622.885 935.576>
VStem: 5 335<0 335> 1379 383<0 383>
DStem2: 5 0 340 0 0.435981 0.899956<146.054 833.105 1158.46 1296.79> 1030 1511 852 1136 0.435981 -0.899956<259.879 494.351>
LayerCount: 2
Fore
SplineSet
1177 1670 m 1,0,1
 1112 1608 1112 1608 1043 1608 c 0,2,3
 977 1608 977 1608 887 1645 c 0,4,5
 826 1670 826 1670 735 1670 c 0,6,7
 659 1670 659 1670 605 1607 c 1,8,-1
 605 1837 l 1,9,10
 656 1900 656 1900 735 1900 c 0,11,12
 816 1900 816 1900 892 1870 c 0,13,14
 976 1838 976 1838 1043 1838 c 0,15,16
 1109 1838 1109 1838 1177 1900 c 1,17,-1
 1177 1670 l 1,0,1
5 0 m 1,18,-1
 737 1511 l 1,19,-1
 1030 1511 l 1,20,-1
 1762 0 l 1,21,-1
 1379 0 l 1,22,-1
 1076 621 l 1,23,-1
 634 621 l 1,24,-1
 340 0 l 1,25,-1
 5 0 l 1,18,-1
852 1136 m 1,26,-1
 761 921 l 1,27,-1
 946 921 l 1,28,-1
 852 1136 l 1,26,-1
EndSplineSet
Validated: 3073
EndChar

StartChar: Adieresis
Encoding: 196 196 134
Width: 1767
GlyphClass: 2
Flags: W
HStem: 0 21G<5 349.469 1369.24 1762> 621 300<761 946> 1491 20G<727.311 1039.69> 1574 356<573.756 802.334 966.756 1195.47>
VStem: 5 335<0 335> 515 347<1632.56 1870.19> 908 347<1632.56 1870.19> 1379 383<0 383>
DStem2: 5 0 340 0 0.435981 0.899956<146.054 833.105 1158.46 1296.79> 1030 1511 852 1136 0.435981 -0.899956<259.879 494.351>
LayerCount: 2
Fore
SplineSet
1255 1754 m 0,0,1
 1255 1675 1255 1675 1204 1624.5 c 128,-1,2
 1153 1574 1153 1574 1081 1574 c 0,3,4
 1007 1574 1007 1574 957 1627 c 0,5,6
 908 1680 908 1680 908 1752 c 128,-1,7
 908 1824 908 1824 957 1876 c 0,8,9
 1008 1930 1008 1930 1081 1930 c 0,10,11
 1150 1930 1150 1930 1204 1878 c 0,12,13
 1255 1829 1255 1829 1255 1754 c 0,0,1
862 1754 m 0,14,15
 862 1675 862 1675 810.5 1624.5 c 128,-1,16
 759 1574 759 1574 688 1574 c 0,17,18
 614 1574 614 1574 564 1627 c 0,19,20
 515 1679 515 1679 515 1752 c 0,21,22
 515 1824 515 1824 564 1876 c 0,23,24
 615 1930 615 1930 688 1930 c 0,25,26
 757 1930 757 1930 811 1878 c 0,27,28
 862 1829 862 1829 862 1754 c 0,14,15
5 0 m 1,29,-1
 737 1511 l 1,30,-1
 1030 1511 l 1,31,-1
 1762 0 l 1,32,-1
 1379 0 l 1,33,-1
 1076 621 l 1,34,-1
 634 621 l 1,35,-1
 340 0 l 1,36,-1
 5 0 l 1,29,-1
852 1136 m 1,37,-1
 761 921 l 1,38,-1
 946 921 l 1,39,-1
 852 1136 l 1,37,-1
EndSplineSet
Validated: 3073
EndChar

StartChar: Aring
Encoding: 197 197 135
Width: 1767
GlyphClass: 2
Flags: W
HStem: 0 21G<5 349.469 1369.24 1762> 621 300<761 946> 1491 20G<727.311 1039.69> 1529 139<829.181 953.447> 1827 139<829.665 953.208>
VStem: 5 335<0 335> 667 147<1684.89 1810.69> 969 142<1683.96 1810.78> 1379 383<0 383>
DStem2: 5 0 340 0 0.435981 0.899956<146.054 833.105 1158.46 1296.79> 1030 1511 852 1136 0.435981 -0.899956<259.879 494.351>
LayerCount: 2
Fore
SplineSet
969 1745 m 0,0,1
 969 1781 969 1781 947 1804 c 128,-1,2
 925 1827 925 1827 892 1827 c 0,3,4
 860 1827 860 1827 836 1803 c 0,5,6
 814 1780 814 1780 814 1748 c 0,7,8
 814 1715 814 1715 836 1692 c 0,9,10
 859 1668 859 1668 892 1668 c 0,11,12
 926 1668 926 1668 947.5 1692 c 128,-1,13
 969 1716 969 1716 969 1745 c 0,0,1
1111 1742 m 0,14,15
 1111 1659 1111 1659 1049 1594 c 128,-1,16
 987 1529 987 1529 889 1529 c 0,17,18
 793 1529 793 1529 730 1595 c 0,19,20
 667 1664 667 1664 667 1747 c 0,21,22
 667 1834 667 1834 730 1900 c 0,23,24
 795 1966 795 1966 889 1966 c 0,25,26
 982 1966 982 1966 1048 1902 c 0,27,28
 1111 1840 1111 1840 1111 1742 c 0,14,15
5 0 m 1,29,-1
 737 1511 l 1,30,-1
 1030 1511 l 1,31,-1
 1762 0 l 1,32,-1
 1379 0 l 1,33,-1
 1076 621 l 1,34,-1
 634 621 l 1,35,-1
 340 0 l 1,36,-1
 5 0 l 1,29,-1
852 1136 m 1,37,-1
 761 921 l 1,38,-1
 946 921 l 1,39,-1
 852 1136 l 1,37,-1
EndSplineSet
Validated: 3073
EndChar

StartChar: AE
Encoding: 198 198 136
Width: 2820
GlyphClass: 2
Flags: W
HStem: -20 273<1706.82 2143.25> 621 300<761 946 1544 2306> 1258 273<1834.7 2275.57> 1491 20G<727.311 1039.7>
VStem: 5 335<0 335>
LayerCount: 2
Fore
SplineSet
852 1136 m 1,0,-1
 761 921 l 1,1,-1
 946 921 l 1,2,-1
 852 1136 l 1,0,-1
5 0 m 1,3,-1
 737 1511 l 1,4,-1
 1030 1511 l 1,5,-1
 1242 1074 l 1,6,7
 1322 1213 1322 1213 1465 1328 c 0,8,9
 1717 1531 1717 1531 2085 1531 c 0,10,11
 2434 1531 2434 1531 2656 1323 c 0,12,13
 2704 1278 2704 1278 2740 1225 c 1,14,-1
 2442 1048 l 1,15,16
 2417 1098 2417 1098 2379 1138 c 0,17,18
 2265 1258 2265 1258 2085 1258 c 0,19,20
 1832 1258 1832 1258 1685 1120 c 0,21,22
 1591 1032 1591 1032 1544 921 c 1,23,-1
 2306 921 l 1,24,-1
 2306 621 l 1,25,-1
 1502 621 l 1,26,27
 1516 467 1516 467 1608 372 c 0,28,29
 1723 253 1723 253 1902 253 c 0,30,31
 2139 253 2139 253 2302 391 c 0,32,33
 2407 480 2407 480 2453 608 c 1,34,-1
 2729 411 l 1,35,36
 2651 287 2651 287 2522 183 c 0,37,38
 2270 -20 2270 -20 1902 -20 c 0,39,40
 1793 -20 1793 -20 1697 0 c 1,41,-1
 1379 0 l 1,42,-1
 1076 621 l 1,43,-1
 634 621 l 1,44,-1
 340 0 l 1,45,-1
 5 0 l 1,3,-1
EndSplineSet
Validated: 3073
EndChar

StartChar: Ccedilla
Encoding: 199 199 137
Width: 1781
GlyphClass: 2
Flags: W
HStem: -410 21G<848.69 967> -16 269<668.609 779.754 1041 1103.25> 1258 273<796.174 1236.57>
VStem: 100 360<467.612 917.395> 780 279<-165.945 -14.7126>
LayerCount: 2
Fore
SplineSet
1690 411 m 1,0,1
 1612 286 1612 286 1483 183 c 0,2,3
 1294 31 1294 31 1041 -7 c 1,4,5
 1059 -67 1059 -67 1059 -135 c 0,6,7
 1059 -306 1059 -306 875 -410 c 1,8,-1
 629 -223 l 1,9,10
 780 -174 780 -174 780 -72 c 0,11,12
 780 -41 780 -41 773 -16 c 1,13,14
 484 8 484 8 292 188 c 128,-1,15
 100 368 100 368 100 676 c 0,16,17
 100 1066 100 1066 426 1328 c 0,18,19
 679 1531 679 1531 1046 1531 c 0,20,21
 1395 1531 1395 1531 1617 1323 c 0,22,23
 1665 1278 1665 1278 1701 1225 c 1,24,-1
 1403 1048 l 1,25,26
 1378 1098 1378 1098 1340 1138 c 0,27,28
 1226 1258 1226 1258 1046 1258 c 0,29,30
 794 1258 794 1258 646 1120 c 0,31,32
 460 946 460 946 460 682 c 0,33,34
 460 485 460 485 569 372 c 0,35,36
 684 253 684 253 863 253 c 0,37,38
 1100 253 1100 253 1263 391 c 0,39,40
 1368 480 1368 480 1414 608 c 1,41,-1
 1690 411 l 1,0,1
EndSplineSet
Validated: 3073
EndChar

StartChar: Egrave
Encoding: 200 200 138
Width: 1781
GlyphClass: 2
Flags: W
HStem: -20 273<672.469 1104.25> 621 300<505 1267> 1258 273<795.928 1236.57>
VStem: 100 1167<628.8 918.156>
LayerCount: 2
Fore
SplineSet
1156 1559 m 1,0,-1
 738 1696 l 1,1,-1
 869 1966 l 1,2,-1
 1255 1760 l 1,3,-1
 1156 1559 l 1,0,-1
1690 411 m 1,4,5
 1612 287 1612 287 1483 183 c 0,6,7
 1231 -20 1231 -20 863 -20 c 0,8,9
 513 -20 513 -20 292 188 c 0,10,11
 100 369 100 369 100 676 c 0,12,13
 100 1066 100 1066 426 1328 c 0,14,15
 679 1531 679 1531 1046 1531 c 0,16,17
 1395 1531 1395 1531 1617 1323 c 0,18,19
 1665 1278 1665 1278 1701 1225 c 1,20,-1
 1403 1048 l 1,21,22
 1378 1098 1378 1098 1340 1138 c 0,23,24
 1226 1258 1226 1258 1046 1258 c 0,25,26
 793 1258 793 1258 646 1120 c 0,27,28
 552 1032 552 1032 505 921 c 1,29,-1
 1267 921 l 1,30,-1
 1267 621 l 1,31,-1
 463 621 l 1,32,33
 477 467 477 467 569 372 c 0,34,35
 684 253 684 253 863 253 c 0,36,37
 1100 253 1100 253 1263 391 c 0,38,39
 1368 480 1368 480 1414 608 c 1,40,-1
 1690 411 l 1,4,5
EndSplineSet
Validated: 3073
EndChar

StartChar: Eacute
Encoding: 201 201 139
Width: 1781
GlyphClass: 2
Flags: W
HStem: -20 273<672.469 1104.25> 621 300<505 1267> 1258 273<795.928 1236.57>
VStem: 100 1167<628.8 918.156>
LayerCount: 2
Fore
SplineSet
929 1559 m 1,0,-1
 830 1760 l 1,1,-1
 1216 1966 l 1,2,-1
 1347 1696 l 1,3,-1
 929 1559 l 1,0,-1
1690 411 m 1,4,5
 1612 287 1612 287 1483 183 c 0,6,7
 1231 -20 1231 -20 863 -20 c 0,8,9
 513 -20 513 -20 292 188 c 0,10,11
 100 369 100 369 100 676 c 0,12,13
 100 1066 100 1066 426 1328 c 0,14,15
 679 1531 679 1531 1046 1531 c 0,16,17
 1395 1531 1395 1531 1617 1323 c 0,18,19
 1665 1278 1665 1278 1701 1225 c 1,20,-1
 1403 1048 l 1,21,22
 1378 1098 1378 1098 1340 1138 c 0,23,24
 1226 1258 1226 1258 1046 1258 c 0,25,26
 793 1258 793 1258 646 1120 c 0,27,28
 552 1032 552 1032 505 921 c 1,29,-1
 1267 921 l 1,30,-1
 1267 621 l 1,31,-1
 463 621 l 1,32,33
 477 467 477 467 569 372 c 0,34,35
 684 253 684 253 863 253 c 0,36,37
 1100 253 1100 253 1263 391 c 0,38,39
 1368 480 1368 480 1414 608 c 1,40,-1
 1690 411 l 1,4,5
EndSplineSet
Validated: 3073
EndChar

StartChar: Ecircumflex
Encoding: 202 202 140
Width: 1781
GlyphClass: 2
Flags: W
HStem: -20 273<672.469 1104.25> 621 300<505 1267> 1258 273<795.928 1236.57> 1684 282<907 1189>
VStem: 100 1167<628.8 918.156>
LayerCount: 2
Fore
SplineSet
817 1559 m 1,0,-1
 718 1760 l 1,1,-1
 1048 1966 l 1,2,-1
 1378 1760 l 1,3,-1
 1279 1559 l 1,4,-1
 1048 1684 l 1,5,-1
 817 1559 l 1,0,-1
1690 411 m 1,6,7
 1612 287 1612 287 1483 183 c 0,8,9
 1231 -20 1231 -20 863 -20 c 0,10,11
 513 -20 513 -20 292 188 c 0,12,13
 100 369 100 369 100 676 c 0,14,15
 100 1066 100 1066 426 1328 c 0,16,17
 679 1531 679 1531 1046 1531 c 0,18,19
 1395 1531 1395 1531 1617 1323 c 0,20,21
 1665 1278 1665 1278 1701 1225 c 1,22,-1
 1403 1048 l 1,23,24
 1378 1098 1378 1098 1340 1138 c 0,25,26
 1226 1258 1226 1258 1046 1258 c 0,27,28
 793 1258 793 1258 646 1120 c 0,29,30
 552 1032 552 1032 505 921 c 1,31,-1
 1267 921 l 1,32,-1
 1267 621 l 1,33,-1
 463 621 l 1,34,35
 477 467 477 467 569 372 c 0,36,37
 684 253 684 253 863 253 c 0,38,39
 1100 253 1100 253 1263 391 c 0,40,41
 1368 480 1368 480 1414 608 c 1,42,-1
 1690 411 l 1,6,7
EndSplineSet
Validated: 3073
EndChar

StartChar: Edieresis
Encoding: 203 203 141
Width: 1781
GlyphClass: 2
Flags: W
HStem: -20 273<672.469 1104.25> 621 300<505 1267> 1258 273<795.928 1236.57> 1574 356<731.756 960.334 1124.76 1353.47>
VStem: 100 1167<628.8 918.156> 673 347<1632.56 1870.19> 1066 347<1632.56 1870.19>
LayerCount: 2
Fore
SplineSet
1413 1754 m 0,0,1
 1413 1675 1413 1675 1362 1624.5 c 128,-1,2
 1311 1574 1311 1574 1239 1574 c 0,3,4
 1165 1574 1165 1574 1115 1627 c 0,5,6
 1066 1680 1066 1680 1066 1752 c 128,-1,7
 1066 1824 1066 1824 1115 1876 c 0,8,9
 1166 1930 1166 1930 1239 1930 c 0,10,11
 1308 1930 1308 1930 1362 1878 c 0,12,13
 1413 1829 1413 1829 1413 1754 c 0,0,1
1020 1754 m 0,14,15
 1020 1675 1020 1675 968.5 1624.5 c 128,-1,16
 917 1574 917 1574 846 1574 c 0,17,18
 772 1574 772 1574 722 1627 c 0,19,20
 673 1679 673 1679 673 1752 c 0,21,22
 673 1824 673 1824 722 1876 c 0,23,24
 773 1930 773 1930 846 1930 c 0,25,26
 915 1930 915 1930 969 1878 c 0,27,28
 1020 1829 1020 1829 1020 1754 c 0,14,15
1690 411 m 1,29,30
 1612 287 1612 287 1483 183 c 0,31,32
 1231 -20 1231 -20 863 -20 c 0,33,34
 513 -20 513 -20 292 188 c 0,35,36
 100 369 100 369 100 676 c 0,37,38
 100 1066 100 1066 426 1328 c 0,39,40
 679 1531 679 1531 1046 1531 c 0,41,42
 1395 1531 1395 1531 1617 1323 c 0,43,44
 1665 1278 1665 1278 1701 1225 c 1,45,-1
 1403 1048 l 1,46,47
 1378 1098 1378 1098 1340 1138 c 0,48,49
 1226 1258 1226 1258 1046 1258 c 0,50,51
 793 1258 793 1258 646 1120 c 0,52,53
 552 1032 552 1032 505 921 c 1,54,-1
 1267 921 l 1,55,-1
 1267 621 l 1,56,-1
 463 621 l 1,57,58
 477 467 477 467 569 372 c 0,59,60
 684 253 684 253 863 253 c 0,61,62
 1100 253 1100 253 1263 391 c 0,63,64
 1368 480 1368 480 1414 608 c 1,65,-1
 1690 411 l 1,29,30
EndSplineSet
Validated: 3073
EndChar

StartChar: Igrave
Encoding: 204 204 142
Width: 750
GlyphClass: 2
Flags: W
HStem: 0 21G<200 550> 1491 20<30 50.5859>
VStem: 200 350<0 1400.25>
LayerCount: 2
Fore
SplineSet
200 0 m 1,0,-1
 200 1250 l 2,1,2
 200 1430 200 1430 30 1491 c 1,3,-1
 30 1511 l 1,4,-1
 414 1511 l 1,5,6
 550 1430 550 1430 550 1250 c 2,7,-1
 550 0 l 1,8,-1
 200 0 l 1,0,-1
424 1559 m 1,9,-1
 6 1696 l 1,10,-1
 137 1966 l 1,11,-1
 523 1760 l 1,12,-1
 424 1559 l 1,9,-1
EndSplineSet
Validated: 1
EndChar

StartChar: Iacute
Encoding: 205 205 143
Width: 750
GlyphClass: 2
Flags: W
HStem: 0 21G<200 550> 1491 20<30 50.5859>
VStem: 200 350<0 1400.25>
LayerCount: 2
Fore
SplineSet
200 0 m 1,0,-1
 200 1250 l 2,1,2
 200 1430 200 1430 30 1491 c 1,3,-1
 30 1511 l 1,4,-1
 414 1511 l 1,5,6
 550 1430 550 1430 550 1250 c 2,7,-1
 550 0 l 1,8,-1
 200 0 l 1,0,-1
327 1559 m 1,9,-1
 228 1760 l 1,10,-1
 614 1966 l 1,11,-1
 745 1696 l 1,12,-1
 327 1559 l 1,9,-1
EndSplineSet
Validated: 1
EndChar

StartChar: Icircumflex
Encoding: 206 206 144
Width: 750
GlyphClass: 2
Flags: W
HStem: 0 21G<200 550> 1491 20<30 50.5859> 1684 282<234 516>
VStem: 200 350<0 1400.25>
LayerCount: 2
Fore
SplineSet
200 0 m 1,0,-1
 200 1250 l 2,1,2
 200 1430 200 1430 30 1491 c 1,3,-1
 30 1511 l 1,4,-1
 414 1511 l 1,5,6
 550 1430 550 1430 550 1250 c 2,7,-1
 550 0 l 1,8,-1
 200 0 l 1,0,-1
144 1559 m 1,9,-1
 45 1760 l 1,10,-1
 375 1966 l 1,11,-1
 705 1760 l 1,12,-1
 606 1559 l 1,13,-1
 375 1684 l 1,14,-1
 144 1559 l 1,9,-1
EndSplineSet
Validated: 1
EndChar

StartChar: Idieresis
Encoding: 207 207 145
Width: 750
GlyphClass: 2
Flags: W
HStem: 0 21G<200 550> 1491 20<30 50.5859> 1574 356<63.7559 292.334 456.756 685.471>
VStem: 5 347<1632.56 1870.19> 200 350<0 1400.25> 398 347<1632.56 1870.19>
LayerCount: 2
Fore
SplineSet
200 0 m 1,0,-1
 200 1250 l 2,1,2
 200 1430 200 1430 30 1491 c 1,3,-1
 30 1511 l 1,4,-1
 414 1511 l 1,5,6
 550 1430 550 1430 550 1250 c 2,7,-1
 550 0 l 1,8,-1
 200 0 l 1,0,-1
745 1754 m 0,9,10
 745 1675 745 1675 694 1624.5 c 128,-1,11
 643 1574 643 1574 571 1574 c 0,12,13
 497 1574 497 1574 447 1627 c 0,14,15
 398 1680 398 1680 398 1752 c 128,-1,16
 398 1824 398 1824 447 1876 c 0,17,18
 498 1930 498 1930 571 1930 c 0,19,20
 640 1930 640 1930 694 1878 c 0,21,22
 745 1829 745 1829 745 1754 c 0,9,10
352 1754 m 0,23,24
 352 1675 352 1675 300.5 1624.5 c 128,-1,25
 249 1574 249 1574 178 1574 c 0,26,27
 104 1574 104 1574 54 1627 c 0,28,29
 5 1679 5 1679 5 1752 c 0,30,31
 5 1824 5 1824 54 1876 c 0,32,33
 105 1930 105 1930 178 1930 c 0,34,35
 247 1930 247 1930 301 1878 c 0,36,37
 352 1829 352 1829 352 1754 c 0,23,24
EndSplineSet
Validated: 1
EndChar

StartChar: Eth
Encoding: 208 208 146
Width: 1792
GlyphClass: 2
Flags: W
HStem: -20 258<654.883 961.008> 0 21G<200 550> 621 300<90 200 550 1012> 1257 274<704.33 1133.84> 1491 20<30 50.5859>
VStem: 200 350<0 621 921 1123> 1342 350<611.223 1048.55>
LayerCount: 2
Fore
SplineSet
200 0 m 1,0,-1
 200 621 l 1,1,-1
 90 621 l 1,2,-1
 90 921 l 1,3,-1
 200 921 l 1,4,-1
 200 1250 l 2,5,6
 200 1430 200 1430 30 1491 c 1,7,-1
 30 1511 l 1,8,-1
 414 1511 l 1,9,10
 476 1474 476 1474 510 1417 c 1,11,12
 538 1434 538 1434 571 1447 c 0,13,14
 784 1531 784 1531 949 1531 c 0,15,16
 1293 1531 1293 1531 1503 1320 c 0,17,18
 1692 1130 1692 1130 1692 835 c 0,19,20
 1692 495 1692 495 1406 236 c 0,21,22
 1123 -20 1123 -20 778 -20 c 0,23,24
 669 -20 669 -20 628 63 c 0,25,26
 607 106 607 106 607 153 c 0,27,28
 607 202 607 202 631 258 c 1,29,30
 677 238 677 238 742 238 c 0,31,32
 965 238 965 238 1139 397 c 0,33,34
 1342 582 1342 582 1342 831 c 0,35,36
 1342 1021 1342 1021 1240 1135 c 0,37,38
 1130 1257 1130 1257 930 1257 c 0,39,40
 771 1257 771 1257 679 1199 c 0,41,42
 550 1118 550 1118 550 994 c 2,43,-1
 550 921 l 1,44,-1
 1012 921 l 1,45,-1
 1012 621 l 1,46,-1
 550 621 l 1,47,-1
 550 0 l 1,48,-1
 200 0 l 1,0,-1
EndSplineSet
Validated: 1
EndChar

StartChar: Ntilde
Encoding: 209 209 147
Width: 1746
GlyphClass: 2
Flags: W
HStem: 0 21G<200 550 855 1354> 1251 280<733.104 1097.81> 1491 20<30 50.5859> 1608 230<876.436 1167.19> 1670 230<633.885 946.576>
VStem: 200 350<0 1081.26> 1286 360<528.76 1035.74>
LayerCount: 2
Fore
SplineSet
200 0 m 1,0,-1
 200 1250 l 2,1,2
 200 1430 200 1430 30 1491 c 1,3,-1
 30 1511 l 1,4,-1
 414 1511 l 1,5,6
 488 1467 488 1467 522 1393 c 1,7,8
 586 1437 586 1437 661 1469 c 0,9,10
 808 1531 808 1531 942 1531 c 0,11,12
 1252 1531 1252 1531 1457 1317 c 0,13,14
 1646 1120 1646 1120 1646 824 c 0,15,16
 1646 559 1646 559 1518 333 c 0,17,18
 1432 181 1432 181 1276 0 c 1,19,-1
 855 0 l 1,20,21
 1076 160 1076 160 1204 414 c 0,22,23
 1286 577 1286 577 1286 795 c 0,24,25
 1286 1003 1286 1003 1191 1123 c 0,26,27
 1090 1251 1090 1251 936 1251 c 0,28,29
 778 1251 778 1251 673 1170 c 0,30,31
 550 1075 550 1075 550 910 c 2,32,-1
 550 0 l 1,33,-1
 200 0 l 1,0,-1
1188 1670 m 1,34,35
 1123 1608 1123 1608 1054 1608 c 0,36,37
 988 1608 988 1608 898 1645 c 0,38,39
 837 1670 837 1670 746 1670 c 0,40,41
 670 1670 670 1670 616 1607 c 1,42,-1
 616 1837 l 1,43,44
 667 1900 667 1900 746 1900 c 0,45,46
 827 1900 827 1900 903 1870 c 0,47,48
 987 1838 987 1838 1054 1838 c 0,49,50
 1120 1838 1120 1838 1188 1900 c 1,51,-1
 1188 1670 l 1,34,35
EndSplineSet
Validated: 1
EndChar

StartChar: Ograve
Encoding: 210 210 148
Width: 1909
GlyphClass: 2
Flags: W
HStem: -20 273<672.469 1104.25> 1258 273<796.174 1236.29>
VStem: 100 360<463.768 917.395> 1449 360<584.163 1042.03>
LayerCount: 2
Fore
SplineSet
1156 1559 m 1,0,-1
 738 1696 l 1,1,-1
 869 1966 l 1,2,-1
 1255 1760 l 1,3,-1
 1156 1559 l 1,0,-1
863 -20 m 0,4,5
 513 -20 513 -20 292 188 c 0,6,7
 100 369 100 369 100 676 c 0,8,9
 100 1066 100 1066 426 1328 c 0,10,11
 679 1531 679 1531 1046 1531 c 0,12,13
 1396 1531 1396 1531 1617 1323 c 0,14,15
 1809 1142 1809 1142 1809 835 c 0,16,17
 1809 446 1809 446 1483 183 c 0,18,19
 1231 -20 1231 -20 863 -20 c 0,4,5
863 253 m 0,20,21
 1100 253 1100 253 1263 391 c 0,22,23
 1449 548 1449 548 1449 829 c 0,24,25
 1449 1022 1449 1022 1340 1138 c 0,26,27
 1224 1258 1224 1258 1046 1258 c 0,28,29
 794 1258 794 1258 646 1120 c 0,30,31
 460 946 460 946 460 682 c 0,32,33
 460 485 460 485 569 372 c 0,34,35
 684 253 684 253 863 253 c 0,20,21
EndSplineSet
Validated: 3073
EndChar

StartChar: Oacute
Encoding: 211 211 149
Width: 1909
GlyphClass: 2
Flags: W
HStem: -20 273<672.469 1104.25> 1258 273<796.174 1236.29>
VStem: 100 360<463.768 917.395> 1449 360<584.163 1042.03>
LayerCount: 2
Fore
SplineSet
929 1559 m 1,0,-1
 830 1760 l 1,1,-1
 1216 1966 l 1,2,-1
 1347 1696 l 1,3,-1
 929 1559 l 1,0,-1
863 -20 m 0,4,5
 513 -20 513 -20 292 188 c 0,6,7
 100 369 100 369 100 676 c 0,8,9
 100 1066 100 1066 426 1328 c 0,10,11
 679 1531 679 1531 1046 1531 c 0,12,13
 1396 1531 1396 1531 1617 1323 c 0,14,15
 1809 1142 1809 1142 1809 835 c 0,16,17
 1809 446 1809 446 1483 183 c 0,18,19
 1231 -20 1231 -20 863 -20 c 0,4,5
863 253 m 0,20,21
 1100 253 1100 253 1263 391 c 0,22,23
 1449 548 1449 548 1449 829 c 0,24,25
 1449 1022 1449 1022 1340 1138 c 0,26,27
 1224 1258 1224 1258 1046 1258 c 0,28,29
 794 1258 794 1258 646 1120 c 0,30,31
 460 946 460 946 460 682 c 0,32,33
 460 485 460 485 569 372 c 0,34,35
 684 253 684 253 863 253 c 0,20,21
EndSplineSet
Validated: 3073
EndChar

StartChar: Ocircumflex
Encoding: 212 212 150
Width: 1909
GlyphClass: 2
Flags: W
HStem: -20 273<672.469 1104.25> 1258 273<796.174 1236.29> 1684 282<907 1189>
VStem: 100 360<463.768 917.395> 1449 360<584.163 1042.03>
LayerCount: 2
Fore
SplineSet
817 1559 m 1,0,-1
 718 1760 l 1,1,-1
 1048 1966 l 1,2,-1
 1378 1760 l 1,3,-1
 1279 1559 l 1,4,-1
 1048 1684 l 1,5,-1
 817 1559 l 1,0,-1
863 -20 m 0,6,7
 513 -20 513 -20 292 188 c 0,8,9
 100 369 100 369 100 676 c 0,10,11
 100 1066 100 1066 426 1328 c 0,12,13
 679 1531 679 1531 1046 1531 c 0,14,15
 1396 1531 1396 1531 1617 1323 c 0,16,17
 1809 1142 1809 1142 1809 835 c 0,18,19
 1809 446 1809 446 1483 183 c 0,20,21
 1231 -20 1231 -20 863 -20 c 0,6,7
863 253 m 0,22,23
 1100 253 1100 253 1263 391 c 0,24,25
 1449 548 1449 548 1449 829 c 0,26,27
 1449 1022 1449 1022 1340 1138 c 0,28,29
 1224 1258 1224 1258 1046 1258 c 0,30,31
 794 1258 794 1258 646 1120 c 0,32,33
 460 946 460 946 460 682 c 0,34,35
 460 485 460 485 569 372 c 0,36,37
 684 253 684 253 863 253 c 0,22,23
EndSplineSet
Validated: 3073
EndChar

StartChar: Otilde
Encoding: 213 213 151
Width: 1909
GlyphClass: 2
Flags: W
HStem: -20 273<672.469 1104.25> 1258 273<796.174 1236.29> 1608 230<1034.44 1325.19> 1670 230<791.885 1104.58>
VStem: 100 360<463.768 917.395> 1449 360<584.163 1042.03>
LayerCount: 2
Fore
SplineSet
1346 1670 m 1,0,1
 1281 1608 1281 1608 1212 1608 c 0,2,3
 1146 1608 1146 1608 1056 1645 c 0,4,5
 995 1670 995 1670 904 1670 c 0,6,7
 828 1670 828 1670 774 1607 c 1,8,-1
 774 1837 l 1,9,10
 825 1900 825 1900 904 1900 c 0,11,12
 985 1900 985 1900 1061 1870 c 0,13,14
 1145 1838 1145 1838 1212 1838 c 0,15,16
 1278 1838 1278 1838 1346 1900 c 1,17,-1
 1346 1670 l 1,0,1
863 -20 m 0,18,19
 513 -20 513 -20 292 188 c 0,20,21
 100 369 100 369 100 676 c 0,22,23
 100 1066 100 1066 426 1328 c 0,24,25
 679 1531 679 1531 1046 1531 c 0,26,27
 1396 1531 1396 1531 1617 1323 c 0,28,29
 1809 1142 1809 1142 1809 835 c 0,30,31
 1809 446 1809 446 1483 183 c 0,32,33
 1231 -20 1231 -20 863 -20 c 0,18,19
863 253 m 0,34,35
 1100 253 1100 253 1263 391 c 0,36,37
 1449 548 1449 548 1449 829 c 0,38,39
 1449 1022 1449 1022 1340 1138 c 0,40,41
 1224 1258 1224 1258 1046 1258 c 0,42,43
 794 1258 794 1258 646 1120 c 0,44,45
 460 946 460 946 460 682 c 0,46,47
 460 485 460 485 569 372 c 0,48,49
 684 253 684 253 863 253 c 0,34,35
EndSplineSet
Validated: 3073
EndChar

StartChar: Odieresis
Encoding: 214 214 152
Width: 1909
GlyphClass: 2
Flags: W
HStem: -20 273<672.469 1104.25> 1258 273<796.174 1236.29> 1574 356<731.756 960.334 1124.76 1353.47>
VStem: 100 360<463.768 917.395> 673 347<1632.56 1870.19> 1066 347<1632.56 1870.19> 1449 360<584.163 1042.03>
LayerCount: 2
Fore
SplineSet
1413 1754 m 0,0,1
 1413 1675 1413 1675 1362 1624.5 c 128,-1,2
 1311 1574 1311 1574 1239 1574 c 0,3,4
 1165 1574 1165 1574 1115 1627 c 0,5,6
 1066 1680 1066 1680 1066 1752 c 128,-1,7
 1066 1824 1066 1824 1115 1876 c 0,8,9
 1166 1930 1166 1930 1239 1930 c 0,10,11
 1308 1930 1308 1930 1362 1878 c 0,12,13
 1413 1829 1413 1829 1413 1754 c 0,0,1
1020 1754 m 0,14,15
 1020 1675 1020 1675 968.5 1624.5 c 128,-1,16
 917 1574 917 1574 846 1574 c 0,17,18
 772 1574 772 1574 722 1627 c 0,19,20
 673 1679 673 1679 673 1752 c 0,21,22
 673 1824 673 1824 722 1876 c 0,23,24
 773 1930 773 1930 846 1930 c 0,25,26
 915 1930 915 1930 969 1878 c 0,27,28
 1020 1829 1020 1829 1020 1754 c 0,14,15
863 -20 m 0,29,30
 513 -20 513 -20 292 188 c 0,31,32
 100 369 100 369 100 676 c 0,33,34
 100 1066 100 1066 426 1328 c 0,35,36
 679 1531 679 1531 1046 1531 c 0,37,38
 1396 1531 1396 1531 1617 1323 c 0,39,40
 1809 1142 1809 1142 1809 835 c 0,41,42
 1809 446 1809 446 1483 183 c 0,43,44
 1231 -20 1231 -20 863 -20 c 0,29,30
863 253 m 0,45,46
 1100 253 1100 253 1263 391 c 0,47,48
 1449 548 1449 548 1449 829 c 0,49,50
 1449 1022 1449 1022 1340 1138 c 0,51,52
 1224 1258 1224 1258 1046 1258 c 0,53,54
 794 1258 794 1258 646 1120 c 0,55,56
 460 946 460 946 460 682 c 0,57,58
 460 485 460 485 569 372 c 0,59,60
 684 253 684 253 863 253 c 0,45,46
EndSplineSet
Validated: 3073
EndChar

StartChar: multiply
Encoding: 215 215 153
Width: 1243
GlyphClass: 2
Flags: W
DStem2: 362 1242 150 1030 0.707107 -0.707107<0 366.988 666.802 1033.79> 151 512 363 300 0.707107 0.707107<0 366.281 666.095 1032.38>
LayerCount: 2
Fore
SplineSet
363 300 m 1,0,-1
 151 512 l 1,1,-1
 410 771 l 1,2,-1
 150 1030 l 1,3,-1
 362 1242 l 1,4,-1
 622 983 l 1,5,-1
 881 1242 l 1,6,-1
 1093 1030 l 1,7,-1
 834 771 l 1,8,-1
 1093 511 l 1,9,-1
 881 299 l 1,10,-1
 622 559 l 1,11,-1
 363 300 l 1,0,-1
EndSplineSet
Validated: 3073
EndChar

StartChar: Oslash
Encoding: 216 216 154
Width: 1909
GlyphClass: 2
Flags: W
HStem: -20 273<775.323 1104.25> 0 21G<260 600> 1258 273<796.174 1133.68> 1491 20G<1309 1650>
VStem: 100 360<467.758 917.395> 1449 360<584.163 1042.39>
DStem2: 542 403 773 261 0.574298 0.818646<16.4152 1034.53>
LayerCount: 2
Fore
SplineSet
863 253 m 0,0,1
 1100 253 1100 253 1263 391 c 0,2,3
 1449 548 1449 548 1449 829 c 0,4,5
 1449 997 1449 997 1366 1107 c 1,6,-1
 773 261 l 1,7,8
 816 253 816 253 863 253 c 0,0,1
260 0 m 1,9,-1
 355 135 l 1,10,11
 322 160 322 160 292 188 c 0,12,13
 100 367 100 367 100 676 c 0,14,15
 100 1066 100 1066 426 1328 c 0,16,17
 679 1531 679 1531 1046 1531 c 0,18,19
 1188 1531 1188 1531 1309 1497 c 1,20,-1
 1319 1511 l 1,21,-1
 1650 1511 l 1,22,-1
 1555 1375 l 1,23,24
 1587 1351 1587 1351 1617 1323 c 0,25,26
 1809 1144 1809 1144 1809 835 c 0,27,28
 1809 446 1809 446 1483 183 c 0,29,30
 1231 -20 1231 -20 863 -20 c 0,31,32
 721 -20 721 -20 600 14 c 1,33,-1
 590 0 l 1,34,-1
 260 0 l 1,9,-1
542 403 m 1,35,-1
 1136 1250 l 1,36,37
 1093 1258 1093 1258 1046 1258 c 0,38,39
 794 1258 794 1258 646 1120 c 0,40,41
 460 946 460 946 460 682 c 0,42,43
 460 511 460 511 542 403 c 1,35,-1
EndSplineSet
Validated: 3073
EndChar

StartChar: Ugrave
Encoding: 217 217 155
Width: 1746
GlyphClass: 2
Flags: W
HStem: -20 280<648.186 1012.9> 0 20<1695.41 1716> 1491 20G<392 891 1196 1546>
VStem: 100 360<475.258 982.24> 1196 350<429.74 1511>
LayerCount: 2
Fore
SplineSet
1716 0 m 1,0,-1
 1332 0 l 1,1,2
 1258 44 1258 44 1224 118 c 1,3,4
 1160 74 1160 74 1085 42 c 0,5,6
 938 -20 938 -20 804 -20 c 0,7,8
 494 -20 494 -20 289 194 c 0,9,10
 100 391 100 391 100 687 c 0,11,12
 100 952 100 952 228 1178 c 0,13,14
 314 1330 314 1330 470 1511 c 1,15,-1
 891 1511 l 1,16,17
 670 1351 670 1351 542 1097 c 0,18,19
 460 934 460 934 460 716 c 0,20,21
 460 508 460 508 555 388 c 0,22,23
 656 260 656 260 810 260 c 0,24,25
 968 260 968 260 1073 341 c 0,26,27
 1196 436 1196 436 1196 601 c 2,28,-1
 1196 1511 l 1,29,-1
 1546 1511 l 1,30,-1
 1546 261 l 2,31,32
 1546 81 1546 81 1716 20 c 1,33,-1
 1716 0 l 1,0,-1
963 1559 m 1,34,-1
 545 1696 l 1,35,-1
 676 1966 l 1,36,-1
 1062 1760 l 1,37,-1
 963 1559 l 1,34,-1
EndSplineSet
Validated: 1
EndChar

StartChar: Uacute
Encoding: 218 218 156
Width: 1746
GlyphClass: 2
Flags: W
HStem: -20 280<648.186 1012.9> 0 20<1695.41 1716> 1491 20G<392 891 1196 1546>
VStem: 100 360<475.258 982.24> 1196 350<429.74 1511>
LayerCount: 2
Fore
SplineSet
1716 0 m 1,0,-1
 1332 0 l 1,1,2
 1258 44 1258 44 1224 118 c 1,3,4
 1160 74 1160 74 1085 42 c 0,5,6
 938 -20 938 -20 804 -20 c 0,7,8
 494 -20 494 -20 289 194 c 0,9,10
 100 391 100 391 100 687 c 0,11,12
 100 952 100 952 228 1178 c 0,13,14
 314 1330 314 1330 470 1511 c 1,15,-1
 891 1511 l 1,16,17
 670 1351 670 1351 542 1097 c 0,18,19
 460 934 460 934 460 716 c 0,20,21
 460 508 460 508 555 388 c 0,22,23
 656 260 656 260 810 260 c 0,24,25
 968 260 968 260 1073 341 c 0,26,27
 1196 436 1196 436 1196 601 c 2,28,-1
 1196 1511 l 1,29,-1
 1546 1511 l 1,30,-1
 1546 261 l 2,31,32
 1546 81 1546 81 1716 20 c 1,33,-1
 1716 0 l 1,0,-1
880 1559 m 1,34,-1
 781 1760 l 1,35,-1
 1167 1966 l 1,36,-1
 1298 1696 l 1,37,-1
 880 1559 l 1,34,-1
EndSplineSet
Validated: 1
EndChar

StartChar: Ucircumflex
Encoding: 219 219 157
Width: 1746
GlyphClass: 2
Flags: W
HStem: -20 280<648.186 1012.9> 0 20<1695.41 1716> 1491 20G<392 891 1196 1546> 1684 282<767 1049>
VStem: 100 360<475.258 982.24> 1196 350<429.74 1511>
LayerCount: 2
Fore
SplineSet
1716 0 m 1,0,-1
 1332 0 l 1,1,2
 1258 44 1258 44 1224 118 c 1,3,4
 1160 74 1160 74 1085 42 c 0,5,6
 938 -20 938 -20 804 -20 c 0,7,8
 494 -20 494 -20 289 194 c 0,9,10
 100 391 100 391 100 687 c 0,11,12
 100 952 100 952 228 1178 c 0,13,14
 314 1330 314 1330 470 1511 c 1,15,-1
 891 1511 l 1,16,17
 670 1351 670 1351 542 1097 c 0,18,19
 460 934 460 934 460 716 c 0,20,21
 460 508 460 508 555 388 c 0,22,23
 656 260 656 260 810 260 c 0,24,25
 968 260 968 260 1073 341 c 0,26,27
 1196 436 1196 436 1196 601 c 2,28,-1
 1196 1511 l 1,29,-1
 1546 1511 l 1,30,-1
 1546 261 l 2,31,32
 1546 81 1546 81 1716 20 c 1,33,-1
 1716 0 l 1,0,-1
677 1559 m 1,34,-1
 578 1760 l 1,35,-1
 908 1966 l 1,36,-1
 1238 1760 l 1,37,-1
 1139 1559 l 1,38,-1
 908 1684 l 1,39,-1
 677 1559 l 1,34,-1
EndSplineSet
Validated: 1
EndChar

StartChar: Udieresis
Encoding: 220 220 158
Width: 1746
GlyphClass: 2
Flags: W
HStem: -20 280<648.186 1012.9> 0 20<1695.41 1716> 1491 20G<392 891 1196 1546> 1574 356<589.756 818.334 982.756 1211.47>
VStem: 100 360<475.258 982.24> 531 347<1632.56 1870.19> 924 347<1632.56 1870.19> 1196 350<429.74 1511>
LayerCount: 2
Fore
SplineSet
1716 0 m 1,0,-1
 1332 0 l 1,1,2
 1258 44 1258 44 1224 118 c 1,3,4
 1160 74 1160 74 1085 42 c 0,5,6
 938 -20 938 -20 804 -20 c 0,7,8
 494 -20 494 -20 289 194 c 0,9,10
 100 391 100 391 100 687 c 0,11,12
 100 952 100 952 228 1178 c 0,13,14
 314 1330 314 1330 470 1511 c 1,15,-1
 891 1511 l 1,16,17
 670 1351 670 1351 542 1097 c 0,18,19
 460 934 460 934 460 716 c 0,20,21
 460 508 460 508 555 388 c 0,22,23
 656 260 656 260 810 260 c 0,24,25
 968 260 968 260 1073 341 c 0,26,27
 1196 436 1196 436 1196 601 c 2,28,-1
 1196 1511 l 1,29,-1
 1546 1511 l 1,30,-1
 1546 261 l 2,31,32
 1546 81 1546 81 1716 20 c 1,33,-1
 1716 0 l 1,0,-1
1271 1754 m 0,34,35
 1271 1675 1271 1675 1220 1624.5 c 128,-1,36
 1169 1574 1169 1574 1097 1574 c 0,37,38
 1023 1574 1023 1574 973 1627 c 0,39,40
 924 1680 924 1680 924 1752 c 128,-1,41
 924 1824 924 1824 973 1876 c 0,42,43
 1024 1930 1024 1930 1097 1930 c 0,44,45
 1166 1930 1166 1930 1220 1878 c 0,46,47
 1271 1829 1271 1829 1271 1754 c 0,34,35
878 1754 m 0,48,49
 878 1675 878 1675 826.5 1624.5 c 128,-1,50
 775 1574 775 1574 704 1574 c 0,51,52
 630 1574 630 1574 580 1627 c 0,53,54
 531 1679 531 1679 531 1752 c 0,55,56
 531 1824 531 1824 580 1876 c 0,57,58
 631 1930 631 1930 704 1930 c 0,59,60
 773 1930 773 1930 827 1878 c 0,61,62
 878 1829 878 1829 878 1754 c 0,48,49
EndSplineSet
Validated: 1
EndChar

StartChar: Yacute
Encoding: 221 221 159
Width: 1608
GlyphClass: 2
Flags: W
HStem: 0 21G<621 971> 1491 20G<5 409.499 869 1327>
VStem: 5 393<1118 1511> 621 350<0 422.812> 1148 360<849.879 1232.92>
DStem2: 398 1511 5 1511 0.4951 -0.868836<0 985.08>
LayerCount: 2
Fore
SplineSet
621 0 m 1,0,-1
 621 430 l 1,1,-1
 5 1511 l 1,2,-1
 398 1511 l 1,3,-1
 889 657 l 1,4,5
 993 718 993 718 1053 781 c 0,6,7
 1148 881 1148 881 1148 1046 c 0,8,9
 1148 1168 1148 1168 1083 1270 c 0,10,11
 994 1406 994 1406 869 1511 c 1,12,-1
 1284 1511 l 1,13,14
 1370 1440 1370 1440 1426 1343 c 0,15,16
 1508 1203 1508 1203 1508 1049 c 0,17,18
 1508 865 1508 865 1382 706 c 0,19,20
 1224 510 1224 510 971 406 c 1,21,-1
 971 0 l 1,22,-1
 621 0 l 1,0,-1
758 1559 m 1,23,-1
 659 1760 l 1,24,-1
 1045 1966 l 1,25,-1
 1176 1696 l 1,26,-1
 758 1559 l 1,23,-1
EndSplineSet
Validated: 1
EndChar

StartChar: Thorn
Encoding: 222 222 160
Width: 1600
GlyphClass: 2
Flags: W
HStem: 0 21G<200 550> 118 259<679.24 935.465> 1057 274<745.673 1042.32> 1491 20<30 50.5859>
VStem: 200 350<0 858.782 1218 1400.25> 1139 361<584.678 955.939>
LayerCount: 2
Fore
SplineSet
200 0 m 1,0,-1
 200 1250 l 2,1,2
 200 1430 200 1430 30 1491 c 1,3,-1
 30 1511 l 1,4,-1
 414 1511 l 1,5,6
 550 1430 550 1430 550 1250 c 2,7,-1
 550 1218 l 1,8,9
 593 1245 593 1245 642 1268 c 0,10,11
 778 1331 778 1331 928 1331 c 0,12,13
 1177 1331 1177 1331 1353 1166 c 0,14,15
 1500 1028 1500 1028 1500 809 c 0,16,17
 1500 473 1500 473 1227 264 c 0,18,19
 1036 118 1036 118 802 118 c 0,20,21
 694 118 694 118 652 201 c 0,22,23
 631 243 631 243 631 291 c 0,24,25
 631 340 631 340 655 396 c 1,26,27
 706 377 706 377 768 377 c 0,28,29
 907 377 907 377 1016 482 c 0,30,31
 1139 601 1139 601 1139 761 c 0,32,33
 1139 893 1139 893 1086 968 c 0,34,35
 1023 1057 1023 1057 907 1057 c 0,36,37
 775 1057 775 1057 670 957 c 0,38,39
 550 843 550 843 550 669 c 2,40,-1
 550 0 l 1,41,-1
 200 0 l 1,0,-1
EndSplineSet
Validated: 1
EndChar

StartChar: germandbls
Encoding: 223 223 161
Width: 1476
GlyphClass: 2
Flags: W
HStem: -20 259<636.24 873.58> 0 21G<200 550> 801 233<620 839.404> 1258 273<661.509 863.73>
VStem: 200 350<0 1137.49> 883 329<1080.46 1241.11> 1016 360<385.768 712.909>
LayerCount: 2
Fore
SplineSet
200 0 m 25,0,-1
 200 920 l 18,1,2
 200 1223 200 1223 426 1400 c 0,3,4
 592 1531 592 1531 817 1531 c 0,5,6
 985 1531 985 1531 1101 1431 c 0,7,8
 1212 1335 1212 1335 1212 1195 c 0,9,10
 1212 1065 1212 1065 1120 977 c 1,11,12
 1202 937 1202 937 1262 869 c 0,13,14
 1376 741 1376 741 1376 570 c 0,15,16
 1376 312 1376 312 1158 131 c 0,17,18
 976 -20 976 -20 759 -20 c 0,19,20
 651 -20 651 -20 609 63 c 0,21,22
 588 105 588 105 588 153 c 0,23,24
 588 202 588 202 612 258 c 1,25,26
 663 239 663 239 725 239 c 0,27,28
 845 239 845 239 934 334 c 0,29,30
 1016 422 1016 422 1016 559 c 0,31,32
 1016 698 1016 698 925 756 c 0,33,34
 856 800 856 800 695 800 c 9,35,-1
 620 801 l 25,36,-1
 620 1034 l 25,37,-1
 695 1034 l 17,38,39
 786 1034 786 1034 843 1081 c 0,40,41
 883 1113 883 1113 883 1166 c 0,42,43
 883 1214 883 1214 855 1237 c 0,44,45
 831 1258 831 1258 789 1258 c 0,46,47
 704 1258 704 1258 633 1192 c 0,48,49
 550 1115 550 1115 550 913 c 10,50,-1
 550 0 l 25,51,-1
 200 0 l 25,0,-1
EndSplineSet
Validated: 3073
EndChar

StartChar: agrave
Encoding: 224 224 162
Width: 1447
GlyphClass: 2
Flags: W
HStem: -20 274<538.206 764.352> 0 20<1396.41 1417> 846 274<627.239 879.881>
VStem: 100 360<330.506 677.239> 897 350<110.75 819.34>
LayerCount: 2
Fore
SplineSet
1417 0 m 1,0,-1
 1033 0 l 1,1,2
 897 81 897 81 897 261 c 2,3,-1
 897 761 l 2,4,5
 897 799 897 799 876 820 c 24,6,7
 850 846 850 846 805 846 c 0,8,9
 674 846 674 846 583 771 c 0,10,11
 460 670 460 670 460 500 c 0,12,13
 460 379 460 379 508 325 c 0,14,15
 571 254 571 254 658 254 c 0,16,17
 776 254 776 254 849 364 c 1,18,19
 853 321 853 321 853 283 c 0,20,21
 853 197 853 197 831 133 c 0,22,23
 778 -20 778 -20 646 -20 c 0,24,25
 391 -20 391 -20 246 136 c 0,26,27
 100 293 100 293 100 495 c 0,28,29
 100 758 100 758 356 966 c 0,30,31
 545 1120 545 1120 822 1120 c 0,32,33
 980 1120 980 1120 1099 1032 c 0,34,35
 1247 924 1247 924 1247 728 c 2,36,-1
 1247 261 l 2,37,38
 1247 81 1247 81 1417 20 c 1,39,-1
 1417 0 l 1,0,-1
932 1144 m 1,40,-1
 514 1281 l 1,41,-1
 645 1551 l 1,42,-1
 1031 1345 l 1,43,-1
 932 1144 l 1,40,-1
EndSplineSet
Validated: 1
EndChar

StartChar: aacute
Encoding: 225 225 163
Width: 1447
GlyphClass: 2
Flags: W
HStem: -20 274<538.206 764.352> 0 20<1396.41 1417> 846 274<627.239 879.881>
VStem: 100 360<330.506 677.239> 897 350<110.75 819.34>
LayerCount: 2
Fore
SplineSet
1417 0 m 1,0,-1
 1033 0 l 1,1,2
 897 81 897 81 897 261 c 2,3,-1
 897 761 l 2,4,5
 897 799 897 799 876 820 c 24,6,7
 850 846 850 846 805 846 c 0,8,9
 674 846 674 846 583 771 c 0,10,11
 460 670 460 670 460 500 c 0,12,13
 460 379 460 379 508 325 c 0,14,15
 571 254 571 254 658 254 c 0,16,17
 776 254 776 254 849 364 c 1,18,19
 853 321 853 321 853 283 c 0,20,21
 853 197 853 197 831 133 c 0,22,23
 778 -20 778 -20 646 -20 c 0,24,25
 391 -20 391 -20 246 136 c 0,26,27
 100 293 100 293 100 495 c 0,28,29
 100 758 100 758 356 966 c 0,30,31
 545 1120 545 1120 822 1120 c 0,32,33
 980 1120 980 1120 1099 1032 c 0,34,35
 1247 924 1247 924 1247 728 c 2,36,-1
 1247 261 l 2,37,38
 1247 81 1247 81 1417 20 c 1,39,-1
 1417 0 l 1,0,-1
720 1144 m 1,40,-1
 621 1345 l 1,41,-1
 1007 1551 l 1,42,-1
 1138 1281 l 1,43,-1
 720 1144 l 1,40,-1
EndSplineSet
Validated: 1
EndChar

StartChar: acircumflex
Encoding: 226 226 164
Width: 1447
GlyphClass: 2
Flags: W
HStem: -20 274<538.206 764.352> 0 20<1396.41 1417> 846 274<627.239 879.881> 1249 282<683 965>
VStem: 100 360<330.506 677.239> 897 350<110.75 819.34>
LayerCount: 2
Fore
SplineSet
1417 0 m 1,0,-1
 1033 0 l 1,1,2
 897 81 897 81 897 261 c 2,3,-1
 897 761 l 2,4,5
 897 799 897 799 876 820 c 24,6,7
 850 846 850 846 805 846 c 0,8,9
 674 846 674 846 583 771 c 0,10,11
 460 670 460 670 460 500 c 0,12,13
 460 379 460 379 508 325 c 0,14,15
 571 254 571 254 658 254 c 0,16,17
 776 254 776 254 849 364 c 1,18,19
 853 321 853 321 853 283 c 0,20,21
 853 197 853 197 831 133 c 0,22,23
 778 -20 778 -20 646 -20 c 0,24,25
 391 -20 391 -20 246 136 c 0,26,27
 100 293 100 293 100 495 c 0,28,29
 100 758 100 758 356 966 c 0,30,31
 545 1120 545 1120 822 1120 c 0,32,33
 980 1120 980 1120 1099 1032 c 0,34,35
 1247 924 1247 924 1247 728 c 2,36,-1
 1247 261 l 2,37,38
 1247 81 1247 81 1417 20 c 1,39,-1
 1417 0 l 1,0,-1
593 1124 m 1,40,-1
 494 1325 l 1,41,-1
 824 1531 l 1,42,-1
 1154 1325 l 1,43,-1
 1055 1124 l 1,44,-1
 824 1249 l 1,45,-1
 593 1124 l 1,40,-1
EndSplineSet
Validated: 1
EndChar

StartChar: atilde
Encoding: 227 227 165
Width: 1447
GlyphClass: 2
Flags: W
HStem: -20 274<538.206 764.352> 0 20<1396.41 1417> 846 274<627.239 879.881> 1189 230<810.436 1101.19> 1251 230<567.885 880.576>
VStem: 100 360<330.506 677.239> 897 350<110.75 819.34>
LayerCount: 2
Fore
SplineSet
1417 0 m 1,0,-1
 1033 0 l 1,1,2
 897 81 897 81 897 261 c 2,3,-1
 897 761 l 2,4,5
 897 799 897 799 876 820 c 24,6,7
 850 846 850 846 805 846 c 0,8,9
 674 846 674 846 583 771 c 0,10,11
 460 670 460 670 460 500 c 0,12,13
 460 379 460 379 508 325 c 0,14,15
 571 254 571 254 658 254 c 0,16,17
 776 254 776 254 849 364 c 1,18,19
 853 321 853 321 853 283 c 0,20,21
 853 197 853 197 831 133 c 0,22,23
 778 -20 778 -20 646 -20 c 0,24,25
 391 -20 391 -20 246 136 c 0,26,27
 100 293 100 293 100 495 c 0,28,29
 100 758 100 758 356 966 c 0,30,31
 545 1120 545 1120 822 1120 c 0,32,33
 980 1120 980 1120 1099 1032 c 0,34,35
 1247 924 1247 924 1247 728 c 2,36,-1
 1247 261 l 2,37,38
 1247 81 1247 81 1417 20 c 1,39,-1
 1417 0 l 1,0,-1
1122 1251 m 1,40,41
 1057 1189 1057 1189 988 1189 c 0,42,43
 922 1189 922 1189 832 1226 c 0,44,45
 771 1251 771 1251 680 1251 c 0,46,47
 604 1251 604 1251 550 1188 c 1,48,-1
 550 1418 l 1,49,50
 601 1481 601 1481 680 1481 c 0,51,52
 761 1481 761 1481 837 1451 c 0,53,54
 921 1419 921 1419 988 1419 c 0,55,56
 1054 1419 1054 1419 1122 1481 c 1,57,-1
 1122 1251 l 1,40,41
EndSplineSet
Validated: 1
EndChar

StartChar: adieresis
Encoding: 228 228 166
Width: 1447
GlyphClass: 2
Flags: W
HStem: -20 274<538.206 764.352> 0 20<1396.41 1417> 846 274<627.239 879.881> 1150 356<508.756 737.334 901.756 1130.47>
VStem: 100 360<330.506 677.239> 450 347<1208.56 1446.19> 843 347<1208.56 1446.19> 897 350<110.75 819.34>
LayerCount: 2
Fore
SplineSet
1417 0 m 1,0,-1
 1033 0 l 1,1,2
 897 81 897 81 897 261 c 2,3,-1
 897 761 l 2,4,5
 897 799 897 799 876 820 c 24,6,7
 850 846 850 846 805 846 c 0,8,9
 674 846 674 846 583 771 c 0,10,11
 460 670 460 670 460 500 c 0,12,13
 460 379 460 379 508 325 c 0,14,15
 571 254 571 254 658 254 c 0,16,17
 776 254 776 254 849 364 c 1,18,19
 853 321 853 321 853 283 c 0,20,21
 853 197 853 197 831 133 c 0,22,23
 778 -20 778 -20 646 -20 c 0,24,25
 391 -20 391 -20 246 136 c 0,26,27
 100 293 100 293 100 495 c 0,28,29
 100 758 100 758 356 966 c 0,30,31
 545 1120 545 1120 822 1120 c 0,32,33
 980 1120 980 1120 1099 1032 c 0,34,35
 1247 924 1247 924 1247 728 c 2,36,-1
 1247 261 l 2,37,38
 1247 81 1247 81 1417 20 c 1,39,-1
 1417 0 l 1,0,-1
1190 1330 m 0,40,41
 1190 1251 1190 1251 1139 1200.5 c 128,-1,42
 1088 1150 1088 1150 1016 1150 c 0,43,44
 942 1150 942 1150 892 1203 c 0,45,46
 843 1256 843 1256 843 1328 c 128,-1,47
 843 1400 843 1400 892 1452 c 0,48,49
 943 1506 943 1506 1016 1506 c 0,50,51
 1085 1506 1085 1506 1139 1454 c 0,52,53
 1190 1405 1190 1405 1190 1330 c 0,40,41
797 1330 m 0,54,55
 797 1251 797 1251 745.5 1200.5 c 128,-1,56
 694 1150 694 1150 623 1150 c 0,57,58
 549 1150 549 1150 499 1203 c 0,59,60
 450 1255 450 1255 450 1328 c 0,61,62
 450 1400 450 1400 499 1452 c 0,63,64
 550 1506 550 1506 623 1506 c 0,65,66
 692 1506 692 1506 746 1454 c 0,67,68
 797 1405 797 1405 797 1330 c 0,54,55
EndSplineSet
Validated: 1
EndChar

StartChar: aring
Encoding: 229 229 167
Width: 1447
GlyphClass: 2
Flags: W
HStem: -20 274<538.206 764.352> 0 20<1396.41 1417> 846 274<627.239 879.881> 1140 139<760.181 884.447> 1438 139<760.665 884.208>
VStem: 100 360<330.506 677.239> 598 147<1295.89 1421.69> 897 350<110.75 819.34> 900 142<1294.96 1421.78>
LayerCount: 2
Fore
SplineSet
1417 0 m 1,0,-1
 1033 0 l 1,1,2
 897 81 897 81 897 261 c 2,3,-1
 897 761 l 2,4,5
 897 799 897 799 876 820 c 24,6,7
 850 846 850 846 805 846 c 0,8,9
 674 846 674 846 583 771 c 0,10,11
 460 670 460 670 460 500 c 0,12,13
 460 379 460 379 508 325 c 0,14,15
 571 254 571 254 658 254 c 0,16,17
 776 254 776 254 849 364 c 1,18,19
 853 321 853 321 853 283 c 0,20,21
 853 197 853 197 831 133 c 0,22,23
 778 -20 778 -20 646 -20 c 0,24,25
 391 -20 391 -20 246 136 c 0,26,27
 100 293 100 293 100 495 c 0,28,29
 100 758 100 758 356 966 c 0,30,31
 545 1120 545 1120 822 1120 c 0,32,33
 980 1120 980 1120 1099 1032 c 0,34,35
 1247 924 1247 924 1247 728 c 2,36,-1
 1247 261 l 2,37,38
 1247 81 1247 81 1417 20 c 1,39,-1
 1417 0 l 1,0,-1
900 1356 m 0,40,41
 900 1392 900 1392 878 1415 c 128,-1,42
 856 1438 856 1438 823 1438 c 0,43,44
 791 1438 791 1438 767 1414 c 0,45,46
 745 1391 745 1391 745 1359 c 0,47,48
 745 1326 745 1326 767 1303 c 0,49,50
 790 1279 790 1279 823 1279 c 0,51,52
 857 1279 857 1279 878.5 1303 c 128,-1,53
 900 1327 900 1327 900 1356 c 0,40,41
1042 1353 m 0,54,55
 1042 1270 1042 1270 980 1205 c 128,-1,56
 918 1140 918 1140 820 1140 c 0,57,58
 724 1140 724 1140 661 1206 c 0,59,60
 598 1275 598 1275 598 1358 c 0,61,62
 598 1445 598 1445 661 1511 c 0,63,64
 726 1577 726 1577 820 1577 c 0,65,66
 913 1577 913 1577 979 1513 c 0,67,68
 1042 1451 1042 1451 1042 1353 c 0,54,55
EndSplineSet
Validated: 1
EndChar

StartChar: ae
Encoding: 230 230 168
Width: 2147
GlyphClass: 2
Flags: W
HStem: -20 274<538.206 764.352 1344.1 1664.72> 434 250<1311 1693> 846 274<627.239 880.204 1424.21 1751.09>
VStem: 100 360<330.506 677.239>
LayerCount: 2
Fore
SplineSet
1033 0 m 1,0,1
 897 81 897 81 897 261 c 2,2,-1
 897 761 l 2,3,4
 897 799 897 799 876 820 c 0,5,6
 850 846 850 846 805 846 c 0,7,8
 674 846 674 846 583 771 c 0,9,10
 460 670 460 670 460 500 c 0,11,12
 460 379 460 379 508 325 c 0,13,14
 571 254 571 254 658 254 c 0,15,16
 776 254 776 254 849 364 c 1,17,18
 853 321 853 321 853 283 c 0,19,20
 853 197 853 197 831 133 c 0,21,22
 778 -20 778 -20 646 -20 c 0,23,24
 391 -20 391 -20 246 136 c 0,25,26
 100 293 100 293 100 495 c 0,27,28
 100 758 100 758 356 966 c 0,29,30
 545 1120 545 1120 822 1120 c 0,31,32
 982 1120 982 1120 1099 1032 c 0,33,34
 1135 1005 1135 1005 1162 974 c 1,35,36
 1354 1120 1354 1120 1621 1120 c 0,37,38
 1893 1120 1893 1120 2067 942 c 1,39,-1
 1802 742 l 1,40,41
 1742 847 1742 847 1602 847 c 0,42,43
 1461 847 1461 847 1375 763 c 0,44,45
 1337 726 1337 726 1311 684 c 1,46,-1
 1693 684 l 1,47,-1
 1693 434 l 1,48,-1
 1264 434 l 1,49,50
 1277 362 1277 362 1322 317 c 0,51,52
 1385 254 1385 254 1488 254 c 0,53,54
 1627 254 1627 254 1717 337 c 0,55,56
 1780 395 1780 395 1808 469 c 1,57,-1
 2059 249 l 1,58,59
 2008 189 2008 189 1938 134 c 0,60,61
 1742 -20 1742 -20 1471 -20 c 0,62,63
 1353 -20 1353 -20 1247 0 c 1,64,-1
 1033 0 l 1,0,1
EndSplineSet
Validated: 1
EndChar

StartChar: ccedilla
Encoding: 231 231 169
Width: 1348
GlyphClass: 2
Flags: W
HStem: -410 21G<625.69 744> 847 273<629.049 950.709>
VStem: 100 360<340.509 668.974> 557 279<-165.945 -10.3612>
LayerCount: 2
Fore
SplineSet
1260 249 m 1,0,1
 1209 189 1209 189 1139 134 c 0,2,3
 998 23 998 23 818 -8 c 1,4,5
 836 -68 836 -68 836 -135 c 0,6,7
 836 -306 836 -306 652 -410 c 1,8,-1
 406 -223 l 1,9,10
 557 -174 557 -174 557 -72 c 0,11,12
 557 -37 557 -37 548 -10 c 1,13,14
 374 20 374 20 248 136 c 0,15,16
 100 272 100 272 100 503 c 0,17,18
 100 767 100 767 356 968 c 0,19,20
 550 1120 550 1120 822 1120 c 128,-1,21
 1094 1120 1094 1120 1268 942 c 1,22,-1
 1003 742 l 1,23,24
 943 847 943 847 803 847 c 128,-1,25
 663 847 663 847 576 763 c 0,26,27
 460 651 460 651 460 493 c 0,28,29
 460 380 460 380 523 317 c 128,-1,30
 586 254 586 254 689 254 c 0,31,32
 828 254 828 254 918 337 c 0,33,34
 981 395 981 395 1009 469 c 1,35,-1
 1260 249 l 1,0,1
EndSplineSet
Validated: 3073
EndChar

StartChar: egrave
Encoding: 232 232 170
Width: 1348
GlyphClass: 2
Flags: W
HStem: -20 274<546.77 865.717> 434 250<512 894> 847 273<628.847 950.709>
VStem: 100 794<440.152 677.056>
LayerCount: 2
Fore
SplineSet
1260 249 m 1,0,1
 1209 189 1209 189 1139 134 c 0,2,3
 943 -20 943 -20 672 -20 c 0,4,5
 417 -20 417 -20 248 136 c 0,6,7
 100 273 100 273 100 503 c 0,8,9
 100 767 100 767 356 968 c 0,10,11
 550 1120 550 1120 822 1120 c 128,-1,12
 1094 1120 1094 1120 1268 942 c 1,13,-1
 1003 742 l 1,14,15
 943 847 943 847 803 847 c 0,16,17
 662 847 662 847 576 763 c 0,18,19
 538 726 538 726 512 684 c 1,20,-1
 894 684 l 1,21,-1
 894 434 l 1,22,-1
 465 434 l 1,23,24
 478 362 478 362 523 317 c 0,25,26
 586 254 586 254 689 254 c 0,27,28
 828 254 828 254 918 337 c 0,29,30
 981 395 981 395 1009 469 c 1,31,-1
 1260 249 l 1,0,1
932 1144 m 1,32,-1
 514 1281 l 1,33,-1
 645 1551 l 1,34,-1
 1031 1345 l 1,35,-1
 932 1144 l 1,32,-1
EndSplineSet
Validated: 1
EndChar

StartChar: eacute
Encoding: 233 233 171
Width: 1348
GlyphClass: 2
Flags: W
HStem: -20 274<546.77 865.717> 434 250<512 894> 847 273<628.847 950.709>
VStem: 100 794<440.152 677.056>
LayerCount: 2
Fore
SplineSet
1260 249 m 1,0,1
 1209 189 1209 189 1139 134 c 0,2,3
 943 -20 943 -20 672 -20 c 0,4,5
 417 -20 417 -20 248 136 c 0,6,7
 100 273 100 273 100 503 c 0,8,9
 100 767 100 767 356 968 c 0,10,11
 550 1120 550 1120 822 1120 c 128,-1,12
 1094 1120 1094 1120 1268 942 c 1,13,-1
 1003 742 l 1,14,15
 943 847 943 847 803 847 c 0,16,17
 662 847 662 847 576 763 c 0,18,19
 538 726 538 726 512 684 c 1,20,-1
 894 684 l 1,21,-1
 894 434 l 1,22,-1
 465 434 l 1,23,24
 478 362 478 362 523 317 c 0,25,26
 586 254 586 254 689 254 c 0,27,28
 828 254 828 254 918 337 c 0,29,30
 981 395 981 395 1009 469 c 1,31,-1
 1260 249 l 1,0,1
720 1144 m 1,32,-1
 621 1345 l 1,33,-1
 1007 1551 l 1,34,-1
 1138 1281 l 1,35,-1
 720 1144 l 1,32,-1
EndSplineSet
Validated: 1
EndChar

StartChar: ecircumflex
Encoding: 234 234 172
Width: 1348
GlyphClass: 2
Flags: W
HStem: -20 274<546.77 865.717> 434 250<512 894> 847 273<628.847 950.709> 1249 282<683 965>
VStem: 100 794<440.152 677.056>
LayerCount: 2
Fore
SplineSet
1260 249 m 1,0,1
 1209 189 1209 189 1139 134 c 0,2,3
 943 -20 943 -20 672 -20 c 0,4,5
 417 -20 417 -20 248 136 c 0,6,7
 100 273 100 273 100 503 c 0,8,9
 100 767 100 767 356 968 c 0,10,11
 550 1120 550 1120 822 1120 c 128,-1,12
 1094 1120 1094 1120 1268 942 c 1,13,-1
 1003 742 l 1,14,15
 943 847 943 847 803 847 c 0,16,17
 662 847 662 847 576 763 c 0,18,19
 538 726 538 726 512 684 c 1,20,-1
 894 684 l 1,21,-1
 894 434 l 1,22,-1
 465 434 l 1,23,24
 478 362 478 362 523 317 c 0,25,26
 586 254 586 254 689 254 c 0,27,28
 828 254 828 254 918 337 c 0,29,30
 981 395 981 395 1009 469 c 1,31,-1
 1260 249 l 1,0,1
593 1124 m 1,32,-1
 494 1325 l 1,33,-1
 824 1531 l 1,34,-1
 1154 1325 l 1,35,-1
 1055 1124 l 1,36,-1
 824 1249 l 1,37,-1
 593 1124 l 1,32,-1
EndSplineSet
Validated: 1
EndChar

StartChar: edieresis
Encoding: 235 235 173
Width: 1348
GlyphClass: 2
Flags: W
HStem: -20 274<546.77 865.717> 434 250<512 894> 847 273<628.847 950.709> 1150 356<508.756 737.334 901.756 1130.47>
VStem: 100 794<440.152 677.056> 450 347<1208.56 1446.19> 843 347<1208.56 1446.19>
LayerCount: 2
Fore
SplineSet
1260 249 m 1,0,1
 1209 189 1209 189 1139 134 c 0,2,3
 943 -20 943 -20 672 -20 c 0,4,5
 417 -20 417 -20 248 136 c 0,6,7
 100 273 100 273 100 503 c 0,8,9
 100 767 100 767 356 968 c 0,10,11
 550 1120 550 1120 822 1120 c 128,-1,12
 1094 1120 1094 1120 1268 942 c 1,13,-1
 1003 742 l 1,14,15
 943 847 943 847 803 847 c 0,16,17
 662 847 662 847 576 763 c 0,18,19
 538 726 538 726 512 684 c 1,20,-1
 894 684 l 1,21,-1
 894 434 l 1,22,-1
 465 434 l 1,23,24
 478 362 478 362 523 317 c 0,25,26
 586 254 586 254 689 254 c 0,27,28
 828 254 828 254 918 337 c 0,29,30
 981 395 981 395 1009 469 c 1,31,-1
 1260 249 l 1,0,1
1190 1330 m 0,32,33
 1190 1251 1190 1251 1139 1200.5 c 128,-1,34
 1088 1150 1088 1150 1016 1150 c 0,35,36
 942 1150 942 1150 892 1203 c 0,37,38
 843 1256 843 1256 843 1328 c 128,-1,39
 843 1400 843 1400 892 1452 c 0,40,41
 943 1506 943 1506 1016 1506 c 0,42,43
 1085 1506 1085 1506 1139 1454 c 0,44,45
 1190 1405 1190 1405 1190 1330 c 0,32,33
797 1330 m 0,46,47
 797 1251 797 1251 745.5 1200.5 c 128,-1,48
 694 1150 694 1150 623 1150 c 0,49,50
 549 1150 549 1150 499 1203 c 0,51,52
 450 1255 450 1255 450 1328 c 0,53,54
 450 1400 450 1400 499 1452 c 0,55,56
 550 1506 550 1506 623 1506 c 0,57,58
 692 1506 692 1506 746 1454 c 0,59,60
 797 1405 797 1405 797 1330 c 0,46,47
EndSplineSet
Validated: 1
EndChar

StartChar: igrave
Encoding: 236 236 174
Width: 750
GlyphClass: 2
Flags: W
HStem: 0 20<699.414 720> 1080 20<30 50.5859>
VStem: 200 350<110.75 988.75>
LayerCount: 2
Fore
SplineSet
720 0 m 1,0,-1
 336 0 l 1,1,2
 200 81 200 81 200 261 c 2,3,-1
 200 839 l 2,4,5
 200 1018 200 1018 30 1080 c 1,6,-1
 30 1100 l 1,7,-1
 414 1100 l 1,8,9
 550 1019 550 1019 550 839 c 2,10,-1
 550 261 l 2,11,12
 550 81 550 81 720 20 c 1,13,-1
 720 0 l 1,0,-1
423 1144 m 1,14,-1
 5 1281 l 1,15,-1
 136 1551 l 1,16,-1
 522 1345 l 1,17,-1
 423 1144 l 1,14,-1
EndSplineSet
Validated: 1
EndChar

StartChar: iacute
Encoding: 237 237 175
Width: 750
GlyphClass: 2
Flags: W
HStem: 0 20<699.414 720> 1080 20<30 50.5859>
VStem: 200 350<110.75 988.75>
LayerCount: 2
Fore
SplineSet
720 0 m 1,0,-1
 336 0 l 1,1,2
 200 81 200 81 200 261 c 2,3,-1
 200 839 l 2,4,5
 200 1018 200 1018 30 1080 c 1,6,-1
 30 1100 l 1,7,-1
 414 1100 l 1,8,9
 550 1019 550 1019 550 839 c 2,10,-1
 550 261 l 2,11,12
 550 81 550 81 720 20 c 1,13,-1
 720 0 l 1,0,-1
327 1144 m 1,14,-1
 228 1345 l 1,15,-1
 614 1551 l 1,16,-1
 745 1281 l 1,17,-1
 327 1144 l 1,14,-1
EndSplineSet
Validated: 1
EndChar

StartChar: icircumflex
Encoding: 238 238 176
Width: 750
GlyphClass: 2
Flags: W
HStem: 0 20<699.414 720> 1080 20<30 50.5859> 1249 282<234 516>
VStem: 200 350<110.75 988.75>
LayerCount: 2
Fore
SplineSet
720 0 m 1,0,-1
 336 0 l 1,1,2
 200 81 200 81 200 261 c 2,3,-1
 200 839 l 2,4,5
 200 1018 200 1018 30 1080 c 1,6,-1
 30 1100 l 1,7,-1
 414 1100 l 1,8,9
 550 1019 550 1019 550 839 c 2,10,-1
 550 261 l 2,11,12
 550 81 550 81 720 20 c 1,13,-1
 720 0 l 1,0,-1
144 1124 m 1,14,-1
 45 1325 l 1,15,-1
 375 1531 l 1,16,-1
 705 1325 l 1,17,-1
 606 1124 l 1,18,-1
 375 1249 l 1,19,-1
 144 1124 l 1,14,-1
EndSplineSet
Validated: 1
EndChar

StartChar: idieresis
Encoding: 239 239 177
Width: 750
GlyphClass: 2
Flags: W
HStem: 0 20<699.414 720> 1080 20<30 50.5859> 1150 356<63.7559 292.334 456.756 685.471>
VStem: 5 347<1208.56 1446.19> 200 350<110.75 988.75> 398 347<1208.56 1446.19>
LayerCount: 2
Fore
SplineSet
720 0 m 1,0,-1
 336 0 l 1,1,2
 200 81 200 81 200 261 c 2,3,-1
 200 839 l 2,4,5
 200 1018 200 1018 30 1080 c 1,6,-1
 30 1100 l 1,7,-1
 414 1100 l 1,8,9
 550 1019 550 1019 550 839 c 2,10,-1
 550 261 l 2,11,12
 550 81 550 81 720 20 c 1,13,-1
 720 0 l 1,0,-1
745 1330 m 0,14,15
 745 1251 745 1251 694 1200.5 c 128,-1,16
 643 1150 643 1150 571 1150 c 0,17,18
 497 1150 497 1150 447 1203 c 0,19,20
 398 1256 398 1256 398 1328 c 128,-1,21
 398 1400 398 1400 447 1452 c 0,22,23
 498 1506 498 1506 571 1506 c 0,24,25
 640 1506 640 1506 694 1454 c 0,26,27
 745 1405 745 1405 745 1330 c 0,14,15
352 1330 m 0,28,29
 352 1251 352 1251 300.5 1200.5 c 128,-1,30
 249 1150 249 1150 178 1150 c 0,31,32
 104 1150 104 1150 54 1203 c 0,33,34
 5 1255 5 1255 5 1328 c 0,35,36
 5 1400 5 1400 54 1452 c 0,37,38
 105 1506 105 1506 178 1506 c 0,39,40
 247 1506 247 1506 301 1454 c 0,41,42
 352 1405 352 1405 352 1330 c 0,28,29
EndSplineSet
Validated: 1
EndChar

StartChar: eth
Encoding: 240 240 178
Width: 1474
GlyphClass: 2
Flags: W
HStem: -20 273<523.579 792.396> 718 268<556.894 759.179> 1511 20G<582 676.5 1160.91 1220.33>
VStem: 100 360<317.784 622.374> 964 360<450.952 985.655>
LayerCount: 2
Fore
SplineSet
582 1531 m 1,0,1
 771 1505 771 1505 923 1416 c 1,2,-1
 1211 1531 l 1,3,-1
 1308 1323 l 1,4,-1
 1127 1250 l 1,5,6
 1152 1223 1152 1223 1177 1190 c 0,7,8
 1324 996 1324 996 1324 728 c 0,9,10
 1324 352 1324 352 1069 136 c 0,11,12
 884 -20 884 -20 622 -20 c 0,13,14
 373 -20 373 -20 236 118 c 0,15,16
 100 255 100 255 100 454 c 0,17,18
 100 682 100 682 297 848 c 0,19,20
 461 986 461 986 644 986 c 0,21,22
 800 986 800 986 800 804 c 0,23,24
 800 735 800 735 771 702 c 1,25,26
 738 718 738 718 711 718 c 0,27,28
 610 718 610 718 544 665 c 0,29,30
 460 597 460 597 460 470 c 0,31,32
 460 375 460 375 499 323 c 0,33,34
 551 253 551 253 641 253 c 0,35,36
 757 253 757 253 848 342 c 0,37,38
 964 454 964 454 964 720 c 0,39,40
 964 952 964 952 865 1084 c 0,41,42
 847 1108 847 1108 825 1130 c 1,43,-1
 566 1027 l 1,44,-1
 469 1235 l 1,45,-1
 582 1282 l 1,46,-1
 582 1531 l 1,0,1
EndSplineSet
Validated: 3073
EndChar

StartChar: ntilde
Encoding: 241 241 179
Width: 1453
GlyphClass: 2
Flags: W
HStem: 0 21G<200 550 719 1147> 832 288<661.028 921.104> 1080 20<30 50.5859> 1189 230<810.436 1101.19> 1251 230<567.885 880.576>
VStem: 200 350<0 720.116> 992 361<354.168 753.487>
LayerCount: 2
Fore
SplineSet
200 0 m 1,0,-1
 200 839 l 2,1,2
 200 1019 200 1019 30 1080 c 1,3,-1
 30 1100 l 1,4,-1
 414 1100 l 1,5,6
 480 1061 480 1061 513 999 c 1,7,8
 558 1042 558 1042 616 1076 c 0,9,10
 690 1120 690 1120 810 1120 c 0,11,12
 1057 1120 1057 1120 1210 966 c 0,13,14
 1353 822 1353 822 1353 608 c 0,15,16
 1353 442 1353 442 1284 294 c 0,17,18
 1204 121 1204 121 1090 0 c 1,19,-1
 719 0 l 1,20,21
 874 157 874 157 946 326 c 0,22,23
 992 434 992 434 992 572 c 0,24,25
 992 697 992 697 936 771 c 0,26,27
 888 832 888 832 794 832 c 0,28,29
 710 832 710 832 638 770 c 0,30,31
 550 694 550 694 550 564 c 2,32,-1
 550 0 l 1,33,-1
 200 0 l 1,0,-1
1122 1251 m 1,34,35
 1057 1189 1057 1189 988 1189 c 0,36,37
 922 1189 922 1189 832 1226 c 0,38,39
 771 1251 771 1251 680 1251 c 0,40,41
 604 1251 604 1251 550 1188 c 1,42,-1
 550 1418 l 1,43,44
 601 1481 601 1481 680 1481 c 0,45,46
 761 1481 761 1481 837 1451 c 0,47,48
 921 1419 921 1419 988 1419 c 0,49,50
 1054 1419 1054 1419 1122 1481 c 1,51,-1
 1122 1251 l 1,34,35
EndSplineSet
Validated: 1
EndChar

StartChar: ograve
Encoding: 242 242 180
Width: 1494
GlyphClass: 2
Flags: W
HStem: -20 274<546.77 865.912> 847 273<629.454 951.108>
VStem: 100 360<340.743 669.688> 1034 360<430.402 763.138>
LayerCount: 2
Fore
SplineSet
932 1144 m 1,0,-1
 514 1281 l 1,1,-1
 645 1551 l 1,2,-1
 1031 1345 l 1,3,-1
 932 1144 l 1,0,-1
672 -20 m 0,4,5
 417 -20 417 -20 248 136 c 0,6,7
 100 273 100 273 100 503 c 0,8,9
 100 767 100 767 356 968 c 0,10,11
 550 1120 550 1120 822 1120 c 0,12,13
 1077 1120 1077 1120 1246 964 c 0,14,15
 1394 827 1394 827 1394 597 c 0,16,17
 1394 334 1394 334 1139 134 c 0,18,19
 943 -20 943 -20 672 -20 c 0,4,5
689 254 m 0,20,21
 829 254 829 254 918 337 c 0,22,23
 1034 445 1034 445 1034 607 c 0,24,25
 1034 721 1034 721 971 785 c 0,26,27
 910 847 910 847 803 847 c 0,28,29
 665 847 665 847 576 763 c 0,30,31
 460 654 460 654 460 493 c 0,32,33
 460 380 460 380 523 317 c 128,-1,34
 586 254 586 254 689 254 c 0,20,21
EndSplineSet
Validated: 3073
EndChar

StartChar: oacute
Encoding: 243 243 181
Width: 1494
GlyphClass: 2
Flags: W
HStem: -20 274<546.77 865.912> 847 273<629.454 951.108>
VStem: 100 360<340.743 669.688> 1034 360<430.402 763.138>
LayerCount: 2
Fore
SplineSet
720 1144 m 1,0,-1
 621 1345 l 1,1,-1
 1007 1551 l 1,2,-1
 1138 1281 l 1,3,-1
 720 1144 l 1,0,-1
672 -20 m 0,4,5
 417 -20 417 -20 248 136 c 0,6,7
 100 273 100 273 100 503 c 0,8,9
 100 767 100 767 356 968 c 0,10,11
 550 1120 550 1120 822 1120 c 0,12,13
 1077 1120 1077 1120 1246 964 c 0,14,15
 1394 827 1394 827 1394 597 c 0,16,17
 1394 334 1394 334 1139 134 c 0,18,19
 943 -20 943 -20 672 -20 c 0,4,5
689 254 m 0,20,21
 829 254 829 254 918 337 c 0,22,23
 1034 445 1034 445 1034 607 c 0,24,25
 1034 721 1034 721 971 785 c 0,26,27
 910 847 910 847 803 847 c 0,28,29
 665 847 665 847 576 763 c 0,30,31
 460 654 460 654 460 493 c 0,32,33
 460 380 460 380 523 317 c 128,-1,34
 586 254 586 254 689 254 c 0,20,21
EndSplineSet
Validated: 3073
EndChar

StartChar: ocircumflex
Encoding: 244 244 182
Width: 1494
GlyphClass: 2
Flags: W
HStem: -20 274<546.77 865.912> 847 273<629.454 951.108> 1249 282<683 965>
VStem: 100 360<340.743 669.688> 1034 360<430.402 763.138>
LayerCount: 2
Fore
SplineSet
593 1124 m 1,0,-1
 494 1325 l 1,1,-1
 824 1531 l 1,2,-1
 1154 1325 l 1,3,-1
 1055 1124 l 1,4,-1
 824 1249 l 1,5,-1
 593 1124 l 1,0,-1
672 -20 m 0,6,7
 417 -20 417 -20 248 136 c 0,8,9
 100 273 100 273 100 503 c 0,10,11
 100 767 100 767 356 968 c 0,12,13
 550 1120 550 1120 822 1120 c 0,14,15
 1077 1120 1077 1120 1246 964 c 0,16,17
 1394 827 1394 827 1394 597 c 0,18,19
 1394 334 1394 334 1139 134 c 0,20,21
 943 -20 943 -20 672 -20 c 0,6,7
689 254 m 0,22,23
 829 254 829 254 918 337 c 0,24,25
 1034 445 1034 445 1034 607 c 0,26,27
 1034 721 1034 721 971 785 c 0,28,29
 910 847 910 847 803 847 c 0,30,31
 665 847 665 847 576 763 c 0,32,33
 460 654 460 654 460 493 c 0,34,35
 460 380 460 380 523 317 c 128,-1,36
 586 254 586 254 689 254 c 0,22,23
EndSplineSet
Validated: 3073
EndChar

StartChar: otilde
Encoding: 245 245 183
Width: 1494
GlyphClass: 2
Flags: W
HStem: -20 274<546.77 865.912> 847 273<629.454 951.108> 1189 230<810.436 1101.19> 1251 230<567.885 880.576>
VStem: 100 360<340.743 669.688> 1034 360<430.402 763.138>
LayerCount: 2
Fore
SplineSet
1122 1251 m 1,0,1
 1057 1189 1057 1189 988 1189 c 0,2,3
 922 1189 922 1189 832 1226 c 0,4,5
 771 1251 771 1251 680 1251 c 0,6,7
 604 1251 604 1251 550 1188 c 1,8,-1
 550 1418 l 1,9,10
 601 1481 601 1481 680 1481 c 0,11,12
 761 1481 761 1481 837 1451 c 0,13,14
 921 1419 921 1419 988 1419 c 0,15,16
 1054 1419 1054 1419 1122 1481 c 1,17,-1
 1122 1251 l 1,0,1
672 -20 m 0,18,19
 417 -20 417 -20 248 136 c 0,20,21
 100 273 100 273 100 503 c 0,22,23
 100 767 100 767 356 968 c 0,24,25
 550 1120 550 1120 822 1120 c 0,26,27
 1077 1120 1077 1120 1246 964 c 0,28,29
 1394 827 1394 827 1394 597 c 0,30,31
 1394 334 1394 334 1139 134 c 0,32,33
 943 -20 943 -20 672 -20 c 0,18,19
689 254 m 0,34,35
 829 254 829 254 918 337 c 0,36,37
 1034 445 1034 445 1034 607 c 0,38,39
 1034 721 1034 721 971 785 c 0,40,41
 910 847 910 847 803 847 c 0,42,43
 665 847 665 847 576 763 c 0,44,45
 460 654 460 654 460 493 c 0,46,47
 460 380 460 380 523 317 c 128,-1,48
 586 254 586 254 689 254 c 0,34,35
EndSplineSet
Validated: 3073
EndChar

StartChar: odieresis
Encoding: 246 246 184
Width: 1494
GlyphClass: 2
Flags: W
HStem: -20 274<546.77 865.912> 847 273<629.454 951.108> 1150 356<508.756 737.334 901.756 1130.47>
VStem: 100 360<340.743 669.688> 450 347<1208.56 1446.19> 843 347<1208.56 1446.19> 1034 360<430.402 763.138>
LayerCount: 2
Fore
SplineSet
1190 1330 m 0,0,1
 1190 1251 1190 1251 1139 1200.5 c 128,-1,2
 1088 1150 1088 1150 1016 1150 c 0,3,4
 942 1150 942 1150 892 1203 c 0,5,6
 843 1256 843 1256 843 1328 c 128,-1,7
 843 1400 843 1400 892 1452 c 0,8,9
 943 1506 943 1506 1016 1506 c 0,10,11
 1085 1506 1085 1506 1139 1454 c 0,12,13
 1190 1405 1190 1405 1190 1330 c 0,0,1
797 1330 m 0,14,15
 797 1251 797 1251 745.5 1200.5 c 128,-1,16
 694 1150 694 1150 623 1150 c 0,17,18
 549 1150 549 1150 499 1203 c 0,19,20
 450 1255 450 1255 450 1328 c 0,21,22
 450 1400 450 1400 499 1452 c 0,23,24
 550 1506 550 1506 623 1506 c 0,25,26
 692 1506 692 1506 746 1454 c 0,27,28
 797 1405 797 1405 797 1330 c 0,14,15
672 -20 m 0,29,30
 417 -20 417 -20 248 136 c 0,31,32
 100 273 100 273 100 503 c 0,33,34
 100 767 100 767 356 968 c 0,35,36
 550 1120 550 1120 822 1120 c 0,37,38
 1077 1120 1077 1120 1246 964 c 0,39,40
 1394 827 1394 827 1394 597 c 0,41,42
 1394 334 1394 334 1139 134 c 0,43,44
 943 -20 943 -20 672 -20 c 0,29,30
689 254 m 0,45,46
 829 254 829 254 918 337 c 0,47,48
 1034 445 1034 445 1034 607 c 0,49,50
 1034 721 1034 721 971 785 c 0,51,52
 910 847 910 847 803 847 c 0,53,54
 665 847 665 847 576 763 c 0,55,56
 460 654 460 654 460 493 c 0,57,58
 460 380 460 380 523 317 c 128,-1,59
 586 254 586 254 689 254 c 0,45,46
EndSplineSet
Validated: 3073
EndChar

StartChar: divide
Encoding: 247 247 185
Width: 1333
GlyphClass: 2
Flags: W
HStem: 99 405<539.108 791.67> 621 300<150 1183> 1036 405<539.108 790.69>
VStem: 465 402<175.109 427.875 1112.11 1364.88>
LayerCount: 2
Fore
SplineSet
150 621 m 1,0,-1
 150 921 l 1,1,-1
 1183 921 l 1,2,-1
 1183 621 l 1,3,-1
 150 621 l 1,0,-1
867 1233 m 0,4,5
 867 1156 867 1156 811 1096 c 128,-1,6
 755 1036 755 1036 666 1036 c 0,7,8
 581 1036 581 1036 522 1097 c 0,9,10
 465 1156 465 1156 465 1238 c 0,11,12
 465 1321 465 1321 522 1380 c 0,13,14
 581 1441 581 1441 666 1441 c 0,15,16
 748 1441 748 1441 808 1382 c 0,17,18
 867 1324 867 1324 867 1233 c 0,4,5
867 296 m 0,19,20
 867 219 867 219 811 159 c 128,-1,21
 755 99 755 99 666 99 c 0,22,23
 581 99 581 99 522 160 c 0,24,25
 465 219 465 219 465 301 c 0,26,27
 465 384 465 384 522 443 c 0,28,29
 581 504 581 504 666 504 c 0,30,31
 749 504 749 504 809 445 c 0,32,33
 867 387 867 387 867 296 c 0,19,20
EndSplineSet
Validated: 3073
EndChar

StartChar: oslash
Encoding: 248 248 186
Width: 1494
GlyphClass: 2
Flags: W
HStem: -20 274<678 864.703> 847 273<629.938 817>
VStem: 100 360<370.555 669.688> 1034 360<430.402 727.786>
DStem2: 486 369 678 254 0.569614 0.821913<14.8459 581.416>
LayerCount: 2
Fore
SplineSet
689 254 m 0,0,1
 829 254 829 254 918 337 c 0,2,3
 1034 445 1034 445 1034 607 c 0,4,5
 1034 679 1034 679 1009 731 c 1,6,-1
 678 254 l 1,7,8
 683 254 683 254 689 254 c 0,0,1
230 0 m 1,9,-1
 296 96 l 1,10,11
 271 114 271 114 248 136 c 0,12,13
 100 278 100 278 100 503 c 0,14,15
 100 767 100 767 356 968 c 0,16,17
 550 1120 550 1120 822 1120 c 0,18,19
 913 1120 913 1120 994 1100 c 1,20,-1
 1266 1100 l 1,21,-1
 1199 1003 l 1,22,23
 1223 985 1223 985 1246 964 c 0,24,25
 1394 829 1394 829 1394 597 c 0,26,27
 1394 334 1394 334 1139 134 c 0,28,29
 943 -20 943 -20 672 -20 c 0,30,31
 581 -20 581 -20 500 -0 c 1,32,-1
 230 0 l 1,9,-1
486 369 m 1,33,-1
 817 847 l 1,34,35
 810 847 810 847 803 847 c 0,36,37
 665 847 665 847 576 763 c 0,38,39
 460 654 460 654 460 493 c 0,40,41
 460 421 460 421 486 369 c 1,33,-1
EndSplineSet
Validated: 3073
EndChar

StartChar: ugrave
Encoding: 249 249 187
Width: 1453
GlyphClass: 2
Flags: W
HStem: -20 288<531.896 791.972> 0 20<1402.41 1423> 1080 20G<306 734 903 1253>
VStem: 100 361<346.513 745.832> 903 350<379.884 1100>
LayerCount: 2
Fore
SplineSet
1423 0 m 1,0,-1
 1039 0 l 1,1,2
 973 39 973 39 940 101 c 1,3,4
 895 58 895 58 837 24 c 0,5,6
 763 -20 763 -20 643 -20 c 0,7,8
 396 -20 396 -20 243 134 c 0,9,10
 100 278 100 278 100 492 c 0,11,12
 100 658 100 658 169 806 c 0,13,14
 249 979 249 979 363 1100 c 1,15,-1
 734 1100 l 1,16,17
 579 943 579 943 507 774 c 0,18,19
 461 666 461 666 461 528 c 0,20,21
 461 403 461 403 517 329 c 0,22,23
 565 268 565 268 659 268 c 0,24,25
 743 268 743 268 815 330 c 0,26,27
 903 406 903 406 903 536 c 2,28,-1
 903 1100 l 1,29,-1
 1253 1100 l 1,30,-1
 1253 261 l 2,31,32
 1253 81 1253 81 1423 20 c 1,33,-1
 1423 0 l 1,0,-1
809 1144 m 1,34,-1
 391 1281 l 1,35,-1
 522 1551 l 1,36,-1
 908 1345 l 1,37,-1
 809 1144 l 1,34,-1
EndSplineSet
Validated: 1
EndChar

StartChar: uacute
Encoding: 250 250 188
Width: 1453
GlyphClass: 2
Flags: W
HStem: -20 288<531.896 791.972> 0 20<1402.41 1423> 1080 20G<306 734 903 1253>
VStem: 100 361<346.513 745.832> 903 350<379.884 1100>
LayerCount: 2
Fore
SplineSet
1423 0 m 1,0,-1
 1039 0 l 1,1,2
 973 39 973 39 940 101 c 1,3,4
 895 58 895 58 837 24 c 0,5,6
 763 -20 763 -20 643 -20 c 0,7,8
 396 -20 396 -20 243 134 c 0,9,10
 100 278 100 278 100 492 c 0,11,12
 100 658 100 658 169 806 c 0,13,14
 249 979 249 979 363 1100 c 1,15,-1
 734 1100 l 1,16,17
 579 943 579 943 507 774 c 0,18,19
 461 666 461 666 461 528 c 0,20,21
 461 403 461 403 517 329 c 0,22,23
 565 268 565 268 659 268 c 0,24,25
 743 268 743 268 815 330 c 0,26,27
 903 406 903 406 903 536 c 2,28,-1
 903 1100 l 1,29,-1
 1253 1100 l 1,30,-1
 1253 261 l 2,31,32
 1253 81 1253 81 1423 20 c 1,33,-1
 1423 0 l 1,0,-1
720 1144 m 1,34,-1
 621 1345 l 1,35,-1
 1007 1551 l 1,36,-1
 1138 1281 l 1,37,-1
 720 1144 l 1,34,-1
EndSplineSet
Validated: 1
EndChar

StartChar: ucircumflex
Encoding: 251 251 189
Width: 1453
GlyphClass: 2
Flags: W
HStem: -20 288<531.896 791.972> 0 20<1402.41 1423> 1080 20G<306 734 903 1253> 1249 282<625 907>
VStem: 100 361<346.513 745.832> 903 350<379.884 1100>
LayerCount: 2
Fore
SplineSet
1423 0 m 1,0,-1
 1039 0 l 1,1,2
 973 39 973 39 940 101 c 1,3,4
 895 58 895 58 837 24 c 0,5,6
 763 -20 763 -20 643 -20 c 0,7,8
 396 -20 396 -20 243 134 c 0,9,10
 100 278 100 278 100 492 c 0,11,12
 100 658 100 658 169 806 c 0,13,14
 249 979 249 979 363 1100 c 1,15,-1
 734 1100 l 1,16,17
 579 943 579 943 507 774 c 0,18,19
 461 666 461 666 461 528 c 0,20,21
 461 403 461 403 517 329 c 0,22,23
 565 268 565 268 659 268 c 0,24,25
 743 268 743 268 815 330 c 0,26,27
 903 406 903 406 903 536 c 2,28,-1
 903 1100 l 1,29,-1
 1253 1100 l 1,30,-1
 1253 261 l 2,31,32
 1253 81 1253 81 1423 20 c 1,33,-1
 1423 0 l 1,0,-1
535 1124 m 1,34,-1
 436 1325 l 1,35,-1
 766 1531 l 1,36,-1
 1096 1325 l 1,37,-1
 997 1124 l 1,38,-1
 766 1249 l 1,39,-1
 535 1124 l 1,34,-1
EndSplineSet
Validated: 1
EndChar

StartChar: udieresis
Encoding: 252 252 190
Width: 1453
GlyphClass: 2
Flags: W
HStem: -20 288<531.896 791.972> 0 20<1402.41 1423> 1080 20G<306 734 903 1253> 1150 356<459.756 688.334 852.756 1081.47>
VStem: 100 361<346.513 745.832> 401 347<1208.56 1446.19> 794 347<1208.56 1446.19> 903 350<379.884 1100>
LayerCount: 2
Fore
SplineSet
1423 0 m 1,0,-1
 1039 0 l 1,1,2
 973 39 973 39 940 101 c 1,3,4
 895 58 895 58 837 24 c 0,5,6
 763 -20 763 -20 643 -20 c 0,7,8
 396 -20 396 -20 243 134 c 0,9,10
 100 278 100 278 100 492 c 0,11,12
 100 658 100 658 169 806 c 0,13,14
 249 979 249 979 363 1100 c 1,15,-1
 734 1100 l 1,16,17
 579 943 579 943 507 774 c 0,18,19
 461 666 461 666 461 528 c 0,20,21
 461 403 461 403 517 329 c 0,22,23
 565 268 565 268 659 268 c 0,24,25
 743 268 743 268 815 330 c 0,26,27
 903 406 903 406 903 536 c 2,28,-1
 903 1100 l 1,29,-1
 1253 1100 l 1,30,-1
 1253 261 l 2,31,32
 1253 81 1253 81 1423 20 c 1,33,-1
 1423 0 l 1,0,-1
1141 1330 m 0,34,35
 1141 1251 1141 1251 1090 1200.5 c 128,-1,36
 1039 1150 1039 1150 967 1150 c 0,37,38
 893 1150 893 1150 843 1203 c 0,39,40
 794 1256 794 1256 794 1328 c 128,-1,41
 794 1400 794 1400 843 1452 c 0,42,43
 894 1506 894 1506 967 1506 c 0,44,45
 1036 1506 1036 1506 1090 1454 c 0,46,47
 1141 1405 1141 1405 1141 1330 c 0,34,35
748 1330 m 0,48,49
 748 1251 748 1251 696.5 1200.5 c 128,-1,50
 645 1150 645 1150 574 1150 c 0,51,52
 500 1150 500 1150 450 1203 c 0,53,54
 401 1255 401 1255 401 1328 c 0,55,56
 401 1400 401 1400 450 1452 c 0,57,58
 501 1506 501 1506 574 1506 c 0,59,60
 643 1506 643 1506 697 1454 c 0,61,62
 748 1405 748 1405 748 1330 c 0,48,49
EndSplineSet
Validated: 1
EndChar

StartChar: yacute
Encoding: 253 253 191
Width: 1453
GlyphClass: 2
Flags: W
HStem: -410 273<420.335 726.049> -20 288<531.739 782.407> 1080 20G<306 734 903 1253>
VStem: 100 361<346.221 745.832> 903 350<379.884 1100>
LayerCount: 2
Fore
SplineSet
102 -236 m 1,0,1
 348 -27 l 1,2,3
 441 -137 441 -137 549 -137 c 0,4,5
 704 -137 704 -137 796 -35 c 0,6,7
 854 29 854 29 881 124 c 1,8,9
 835 63 835 63 793 32 c 0,10,11
 724 -20 724 -20 601 -20 c 0,12,13
 396 -20 396 -20 243 134 c 0,14,15
 100 278 100 278 100 492 c 0,16,17
 100 658 100 658 169 806 c 0,18,19
 249 979 249 979 363 1100 c 1,20,-1
 734 1100 l 1,21,22
 579 943 579 943 507 774 c 0,23,24
 461 666 461 666 461 528 c 0,25,26
 461 400 461 400 517 329 c 0,27,28
 565 268 565 268 659 268 c 0,29,30
 743 268 743 268 815 330 c 0,31,32
 903 406 903 406 903 536 c 2,33,-1
 903 1100 l 1,34,-1
 1253 1100 l 1,35,-1
 1253 300 l 2,36,37
 1253 -1 1253 -1 1042 -196 c 0,38,39
 812 -409 812 -409 532 -410 c 0,40,41
 288 -410 288 -410 102 -236 c 1,0,1
720 1144 m 1,42,-1
 621 1345 l 1,43,-1
 1007 1551 l 1,44,-1
 1138 1281 l 1,45,-1
 720 1144 l 1,42,-1
EndSplineSet
Validated: 1
EndChar

StartChar: thorn
Encoding: 254 254 192
Width: 1447
GlyphClass: 2
Flags: W
HStem: -410 21G<200 550> -20 274<636.453 841.295> 846 274<646.495 908.97> 1491 20<30 50.5859>
VStem: 200 350<-410 740.422 1055 1400.25> 987 360<407.34 767.381>
LayerCount: 2
Fore
SplineSet
200 -410 m 1,0,-1
 200 1250 l 2,1,2
 200 1430 200 1430 30 1491 c 1,3,-1
 30 1511 l 1,4,-1
 414 1511 l 1,5,6
 550 1430 550 1430 550 1250 c 2,7,-1
 550 1055 l 1,8,9
 647 1120 647 1120 775 1120 c 0,10,11
 1037 1120 1037 1120 1201 964 c 0,12,13
 1347 825 1347 825 1347 605 c 0,14,15
 1347 315 1347 315 1101 124 c 0,16,17
 916 -20 916 -20 752 -20 c 0,18,19
 595 -20 595 -20 595 168 c 0,20,21
 595 237 595 237 624 270 c 1,22,23
 657 254 657 254 684 254 c 0,24,25
 798 254 798 254 879 326 c 0,26,27
 987 422 987 422 987 598 c 0,28,29
 987 720 987 720 934 780 c 0,30,31
 876 846 876 846 773 846 c 0,32,33
 676 846 676 846 618 773 c 0,34,35
 550 688 550 688 550 583 c 2,36,-1
 550 -410 l 1,37,-1
 200 -410 l 1,0,-1
EndSplineSet
Validated: 1
EndChar

StartChar: ydieresis
Encoding: 255 255 193
Width: 1453
GlyphClass: 2
Flags: W
HStem: -410 273<420.335 726.049> -20 288<531.739 782.407> 1080 20G<306 734 903 1253> 1150 356<459.756 688.334 852.756 1081.47>
VStem: 100 361<346.221 745.832> 401 347<1208.56 1446.19> 794 347<1208.56 1446.19> 903 350<379.884 1100>
LayerCount: 2
Fore
SplineSet
102 -236 m 1,0,1
 348 -27 l 1,2,3
 441 -137 441 -137 549 -137 c 0,4,5
 704 -137 704 -137 796 -35 c 0,6,7
 854 29 854 29 881 124 c 1,8,9
 835 63 835 63 793 32 c 0,10,11
 724 -20 724 -20 601 -20 c 0,12,13
 396 -20 396 -20 243 134 c 0,14,15
 100 278 100 278 100 492 c 0,16,17
 100 658 100 658 169 806 c 0,18,19
 249 979 249 979 363 1100 c 1,20,-1
 734 1100 l 1,21,22
 579 943 579 943 507 774 c 0,23,24
 461 666 461 666 461 528 c 0,25,26
 461 400 461 400 517 329 c 0,27,28
 565 268 565 268 659 268 c 0,29,30
 743 268 743 268 815 330 c 0,31,32
 903 406 903 406 903 536 c 2,33,-1
 903 1100 l 1,34,-1
 1253 1100 l 1,35,-1
 1253 300 l 2,36,37
 1253 -1 1253 -1 1042 -196 c 0,38,39
 812 -409 812 -409 532 -410 c 0,40,41
 288 -410 288 -410 102 -236 c 1,0,1
1141 1330 m 0,42,43
 1141 1251 1141 1251 1090 1200.5 c 128,-1,44
 1039 1150 1039 1150 967 1150 c 0,45,46
 893 1150 893 1150 843 1203 c 0,47,48
 794 1256 794 1256 794 1328 c 128,-1,49
 794 1400 794 1400 843 1452 c 0,50,51
 894 1506 894 1506 967 1506 c 0,52,53
 1036 1506 1036 1506 1090 1454 c 0,54,55
 1141 1405 1141 1405 1141 1330 c 0,42,43
748 1330 m 0,56,57
 748 1251 748 1251 696.5 1200.5 c 128,-1,58
 645 1150 645 1150 574 1150 c 0,59,60
 500 1150 500 1150 450 1203 c 0,61,62
 401 1255 401 1255 401 1328 c 0,63,64
 401 1400 401 1400 450 1452 c 0,65,66
 501 1506 501 1506 574 1506 c 0,67,68
 643 1506 643 1506 697 1454 c 0,69,70
 748 1405 748 1405 748 1330 c 0,56,57
EndSplineSet
Validated: 1
EndChar

StartChar: Amacron
Encoding: 256 256 194
Width: 1767
GlyphClass: 2
Flags: W
HStem: 0 21G<5 349.469 1369.24 1762> 621 300<761 946> 1491 20G<727.311 1039.69> 1638 230<610 1172>
VStem: 5 335<0 335> 1379 383<0 383>
DStem2: 5 0 340 0 0.435981 0.899956<146.054 833.105 1158.46 1296.79> 1030 1511 852 1136 0.435981 -0.899956<259.879 494.351>
LayerCount: 2
Fore
SplineSet
610 1638 m 1,0,-1
 610 1868 l 1,1,-1
 1172 1868 l 1,2,-1
 1172 1638 l 1,3,-1
 610 1638 l 1,0,-1
5 0 m 1,4,-1
 737 1511 l 1,5,-1
 1030 1511 l 1,6,-1
 1762 0 l 1,7,-1
 1379 0 l 1,8,-1
 1076 621 l 1,9,-1
 634 621 l 1,10,-1
 340 0 l 1,11,-1
 5 0 l 1,4,-1
852 1136 m 1,12,-1
 761 921 l 1,13,-1
 946 921 l 1,14,-1
 852 1136 l 1,12,-1
EndSplineSet
Validated: 3073
EndChar

StartChar: amacron
Encoding: 257 257 195
Width: 1447
GlyphClass: 2
Flags: W
HStem: -20 274<538.206 764.352> 0 20<1396.41 1417> 846 274<627.239 879.881> 1219 230<538 1100>
VStem: 100 360<330.506 677.239> 897 350<110.75 819.34>
LayerCount: 2
Fore
SplineSet
1417 0 m 1,0,-1
 1033 0 l 1,1,2
 897 81 897 81 897 261 c 2,3,-1
 897 761 l 2,4,5
 897 799 897 799 876 820 c 24,6,7
 850 846 850 846 805 846 c 0,8,9
 674 846 674 846 583 771 c 0,10,11
 460 670 460 670 460 500 c 0,12,13
 460 379 460 379 508 325 c 0,14,15
 571 254 571 254 658 254 c 0,16,17
 776 254 776 254 849 364 c 1,18,19
 853 321 853 321 853 283 c 0,20,21
 853 197 853 197 831 133 c 0,22,23
 778 -20 778 -20 646 -20 c 0,24,25
 391 -20 391 -20 246 136 c 0,26,27
 100 293 100 293 100 495 c 0,28,29
 100 758 100 758 356 966 c 0,30,31
 545 1120 545 1120 822 1120 c 0,32,33
 980 1120 980 1120 1099 1032 c 0,34,35
 1247 924 1247 924 1247 728 c 2,36,-1
 1247 261 l 2,37,38
 1247 81 1247 81 1417 20 c 1,39,-1
 1417 0 l 1,0,-1
538 1219 m 1,40,-1
 538 1449 l 1,41,-1
 1100 1449 l 1,42,-1
 1100 1219 l 1,43,-1
 538 1219 l 1,40,-1
EndSplineSet
Validated: 1
EndChar

StartChar: Abreve
Encoding: 258 258 196
Width: 1767
GlyphClass: 2
Flags: W
HStem: 0 21G<5 349.469 1369.24 1762> 621 300<761 946> 1491 20G<727.311 1039.69> 1603 230<650.293 1120.93> 1671 230<605 835 937 1167>
VStem: 5 335<0 335> 1379 383<0 383>
DStem2: 5 0 340 0 0.435981 0.899956<146.054 833.105 1158.46 1296.79> 1030 1511 852 1136 0.435981 -0.899956<259.879 494.351>
LayerCount: 2
Fore
SplineSet
605 1901 m 1,0,1
 721 1833 721 1833 888 1833 c 0,2,3
 1048 1833 1048 1833 1167 1901 c 1,4,-1
 1167 1671 l 1,5,6
 1048 1603 1048 1603 888 1603 c 0,7,8
 721 1603 721 1603 605 1671 c 1,9,-1
 605 1901 l 1,0,1
5 0 m 1,10,-1
 737 1511 l 1,11,-1
 1030 1511 l 1,12,-1
 1762 0 l 1,13,-1
 1379 0 l 1,14,-1
 1076 621 l 1,15,-1
 634 621 l 1,16,-1
 340 0 l 1,17,-1
 5 0 l 1,10,-1
852 1136 m 1,18,-1
 761 921 l 1,19,-1
 946 921 l 1,20,-1
 852 1136 l 1,18,-1
EndSplineSet
Validated: 3073
EndChar

StartChar: abreve
Encoding: 259 259 197
Width: 1447
GlyphClass: 2
Flags: W
HStem: -20 274<538.206 764.352> 0 20<1396.41 1417> 846 274<627.239 879.881> 1213 230<587.293 1057.93> 1281 230<542 772 874 1104>
VStem: 100 360<330.506 677.239> 897 350<110.75 819.34>
LayerCount: 2
Fore
SplineSet
1417 0 m 1,0,-1
 1033 0 l 1,1,2
 897 81 897 81 897 261 c 2,3,-1
 897 761 l 2,4,5
 897 799 897 799 876 820 c 24,6,7
 850 846 850 846 805 846 c 0,8,9
 674 846 674 846 583 771 c 0,10,11
 460 670 460 670 460 500 c 0,12,13
 460 379 460 379 508 325 c 0,14,15
 571 254 571 254 658 254 c 0,16,17
 776 254 776 254 849 364 c 1,18,19
 853 321 853 321 853 283 c 0,20,21
 853 197 853 197 831 133 c 0,22,23
 778 -20 778 -20 646 -20 c 0,24,25
 391 -20 391 -20 246 136 c 0,26,27
 100 293 100 293 100 495 c 0,28,29
 100 758 100 758 356 966 c 0,30,31
 545 1120 545 1120 822 1120 c 0,32,33
 980 1120 980 1120 1099 1032 c 0,34,35
 1247 924 1247 924 1247 728 c 2,36,-1
 1247 261 l 2,37,38
 1247 81 1247 81 1417 20 c 1,39,-1
 1417 0 l 1,0,-1
542 1511 m 1,40,41
 658 1443 658 1443 825 1443 c 0,42,43
 985 1443 985 1443 1104 1511 c 1,44,-1
 1104 1281 l 1,45,46
 985 1213 985 1213 825 1213 c 0,47,48
 658 1213 658 1213 542 1281 c 1,49,-1
 542 1511 l 1,40,41
EndSplineSet
Validated: 1
EndChar

StartChar: Aogonek
Encoding: 260 260 198
Width: 1767
GlyphClass: 2
Flags: W
HStem: -410 21G<1179 1297.31> 0 21G<5 349.469> 621 300<761 946> 1491 20G<727.311 1039.69>
VStem: 5 335<0 335> 1087 279<-165.945 -1.41724>
DStem2: 1030 1511 852 1136 0.435981 -0.899956<259.879 494.351 821.016 1274.69>
LayerCount: 2
Fore
SplineSet
852 1136 m 1,0,-1
 761 921 l 1,1,-1
 946 921 l 1,2,-1
 852 1136 l 1,0,-1
5 0 m 1,3,-1
 737 1511 l 1,4,-1
 1030 1511 l 1,5,-1
 1762 0 l 1,6,-1
 1379 -0 l 1,7,8
 1366 -31 1366 -31 1366 -72 c 0,9,10
 1366 -174 1366 -174 1517 -223 c 1,11,-1
 1271 -410 l 1,12,13
 1087 -306 1087 -306 1087 -135 c 0,14,15
 1087 81 1087 81 1273 217 c 1,16,-1
 1076 621 l 1,17,-1
 634 621 l 1,18,-1
 340 0 l 1,19,-1
 5 0 l 1,3,-1
EndSplineSet
Validated: 3073
EndChar

StartChar: aogonek
Encoding: 261 261 199
Width: 1447
GlyphClass: 2
Flags: W
HStem: -410 21G<993 1111.31> -20 274<538.206 764.352> 0 20<1396.41 1417> 846 274<627.239 881.879>
VStem: 100 360<330.506 677.239> 897 350<110.75 819.34> 901 279<-165.945 -1.89697>
LayerCount: 2
Fore
SplineSet
1417 0 m 1,0,-1
 1194 0 l 1,1,2
 1180 -30 1180 -30 1180 -72 c 0,3,4
 1180 -174 1180 -174 1331 -223 c 1,5,-1
 1085 -410 l 1,6,7
 901 -306 901 -306 901 -135 c 0,8,9
 901 -16 901 -16 964 77 c 1,10,11
 897 126 897 126 897 261 c 2,12,-1
 897 761 l 2,13,14
 897 799 897 799 876 820 c 24,15,16
 850 846 850 846 805 846 c 0,17,18
 674 846 674 846 583 771 c 0,19,20
 460 670 460 670 460 500 c 0,21,22
 460 379 460 379 508 325 c 0,23,24
 571 254 571 254 658 254 c 0,25,26
 776 254 776 254 849 364 c 1,27,28
 853 321 853 321 853 283 c 0,29,30
 853 197 853 197 831 133 c 0,31,32
 778 -20 778 -20 646 -20 c 0,33,34
 391 -20 391 -20 246 136 c 0,35,36
 100 293 100 293 100 495 c 0,37,38
 100 758 100 758 356 966 c 0,39,40
 545 1120 545 1120 822 1120 c 0,41,42
 978 1120 978 1120 1099 1032 c 0,43,44
 1247 924 1247 924 1247 728 c 2,45,-1
 1247 261 l 2,46,47
 1247 81 1247 81 1417 20 c 1,48,-1
 1417 0 l 1,0,-1
EndSplineSet
Validated: 1
EndChar

StartChar: Cacute
Encoding: 262 262 200
Width: 1781
GlyphClass: 2
Flags: W
HStem: -20 273<672.469 1104.25> 1258 273<796.174 1236.57>
VStem: 100 360<463.768 917.395>
LayerCount: 2
Fore
SplineSet
929 1559 m 1,0,-1
 830 1760 l 1,1,-1
 1216 1966 l 1,2,-1
 1347 1696 l 1,3,-1
 929 1559 l 1,0,-1
1690 411 m 1,4,5
 1612 287 1612 287 1483 183 c 0,6,7
 1231 -20 1231 -20 863 -20 c 0,8,9
 513 -20 513 -20 292 188 c 0,10,11
 100 369 100 369 100 676 c 0,12,13
 100 1066 100 1066 426 1328 c 0,14,15
 679 1531 679 1531 1046 1531 c 0,16,17
 1395 1531 1395 1531 1617 1323 c 0,18,19
 1665 1278 1665 1278 1701 1225 c 9,20,-1
 1403 1048 l 17,21,22
 1378 1098 1378 1098 1340 1138 c 0,23,24
 1226 1258 1226 1258 1046 1258 c 0,25,26
 794 1258 794 1258 646 1120 c 0,27,28
 460 946 460 946 460 682 c 0,29,30
 460 485 460 485 569 372 c 0,31,32
 684 253 684 253 863 253 c 0,33,34
 1100 253 1100 253 1263 391 c 0,35,36
 1368 480 1368 480 1414 608 c 1,37,-1
 1690 411 l 1,4,5
EndSplineSet
Validated: 3073
EndChar

StartChar: cacute
Encoding: 263 263 201
Width: 1348
GlyphClass: 2
Flags: W
HStem: -20 274<546.77 865.717> 847 273<629.049 950.709>
VStem: 100 360<340.743 668.974>
LayerCount: 2
Fore
SplineSet
720 1144 m 1,0,-1
 621 1345 l 1,1,-1
 1007 1551 l 1,2,-1
 1138 1281 l 1,3,-1
 720 1144 l 1,0,-1
1260 249 m 17,4,5
 1209 189 1209 189 1139 134 c 0,6,7
 943 -20 943 -20 672 -20 c 0,8,9
 417 -20 417 -20 248 136 c 0,10,11
 100 273 100 273 100 503 c 0,12,13
 100 767 100 767 356 968 c 0,14,15
 550 1120 550 1120 822 1120 c 128,-1,16
 1094 1120 1094 1120 1268 942 c 1,17,-1
 1003 742 l 1,18,19
 943 847 943 847 803 847 c 128,-1,20
 663 847 663 847 576 763 c 0,21,22
 460 651 460 651 460 493 c 0,23,24
 460 380 460 380 523 317 c 128,-1,25
 586 254 586 254 689 254 c 0,26,27
 828 254 828 254 918 337 c 0,28,29
 981 395 981 395 1009 469 c 9,30,-1
 1260 249 l 17,4,5
EndSplineSet
Validated: 3073
EndChar

StartChar: Ccircumflex
Encoding: 264 264 202
Width: 1781
GlyphClass: 2
Flags: W
HStem: -20 273<672.469 1104.25> 1258 273<796.174 1236.57> 1684 282<907 1189>
VStem: 100 360<463.768 917.395>
LayerCount: 2
Fore
SplineSet
817 1559 m 1,0,-1
 718 1760 l 1,1,-1
 1048 1966 l 1,2,-1
 1378 1760 l 1,3,-1
 1279 1559 l 1,4,-1
 1048 1684 l 1,5,-1
 817 1559 l 1,0,-1
1690 411 m 1,6,7
 1612 287 1612 287 1483 183 c 0,8,9
 1231 -20 1231 -20 863 -20 c 0,10,11
 513 -20 513 -20 292 188 c 0,12,13
 100 369 100 369 100 676 c 0,14,15
 100 1066 100 1066 426 1328 c 0,16,17
 679 1531 679 1531 1046 1531 c 0,18,19
 1395 1531 1395 1531 1617 1323 c 0,20,21
 1665 1278 1665 1278 1701 1225 c 9,22,-1
 1403 1048 l 17,23,24
 1378 1098 1378 1098 1340 1138 c 0,25,26
 1226 1258 1226 1258 1046 1258 c 0,27,28
 794 1258 794 1258 646 1120 c 0,29,30
 460 946 460 946 460 682 c 0,31,32
 460 485 460 485 569 372 c 0,33,34
 684 253 684 253 863 253 c 0,35,36
 1100 253 1100 253 1263 391 c 0,37,38
 1368 480 1368 480 1414 608 c 1,39,-1
 1690 411 l 1,6,7
EndSplineSet
Validated: 3073
EndChar

StartChar: ccircumflex
Encoding: 265 265 203
Width: 1348
GlyphClass: 2
Flags: W
HStem: -20 274<546.77 865.717> 847 273<629.049 950.709> 1249 282<683 965>
VStem: 100 360<340.743 668.974>
LayerCount: 2
Fore
SplineSet
593 1124 m 1,0,-1
 494 1325 l 1,1,-1
 824 1531 l 1,2,-1
 1154 1325 l 1,3,-1
 1055 1124 l 1,4,-1
 824 1249 l 1,5,-1
 593 1124 l 1,0,-1
1260 249 m 17,6,7
 1209 189 1209 189 1139 134 c 0,8,9
 943 -20 943 -20 672 -20 c 0,10,11
 417 -20 417 -20 248 136 c 0,12,13
 100 273 100 273 100 503 c 0,14,15
 100 767 100 767 356 968 c 0,16,17
 550 1120 550 1120 822 1120 c 128,-1,18
 1094 1120 1094 1120 1268 942 c 1,19,-1
 1003 742 l 1,20,21
 943 847 943 847 803 847 c 128,-1,22
 663 847 663 847 576 763 c 0,23,24
 460 651 460 651 460 493 c 0,25,26
 460 380 460 380 523 317 c 128,-1,27
 586 254 586 254 689 254 c 0,28,29
 828 254 828 254 918 337 c 0,30,31
 981 395 981 395 1009 469 c 9,32,-1
 1260 249 l 17,6,7
EndSplineSet
Validated: 3073
EndChar

StartChar: Cdotaccent
Encoding: 266 266 204
Width: 1781
GlyphClass: 2
Flags: W
HStem: -20 273<672.469 1104.25> 1258 273<796.174 1236.57> 1610 356<931.756 1160.47>
VStem: 100 360<463.768 917.395> 873 347<1668.56 1906.19>
LayerCount: 2
Fore
SplineSet
1220 1790 m 0,0,1
 1220 1711 1220 1711 1169 1660.5 c 128,-1,2
 1118 1610 1118 1610 1046 1610 c 0,3,4
 972 1610 972 1610 922 1663 c 0,5,6
 873 1716 873 1716 873 1788 c 128,-1,7
 873 1860 873 1860 922 1912 c 0,8,9
 973 1966 973 1966 1046 1966 c 0,10,11
 1115 1966 1115 1966 1169 1914 c 0,12,13
 1220 1865 1220 1865 1220 1790 c 0,0,1
1690 411 m 1,14,15
 1612 287 1612 287 1483 183 c 0,16,17
 1231 -20 1231 -20 863 -20 c 0,18,19
 513 -20 513 -20 292 188 c 0,20,21
 100 369 100 369 100 676 c 0,22,23
 100 1066 100 1066 426 1328 c 0,24,25
 679 1531 679 1531 1046 1531 c 0,26,27
 1395 1531 1395 1531 1617 1323 c 0,28,29
 1665 1278 1665 1278 1701 1225 c 9,30,-1
 1403 1048 l 17,31,32
 1378 1098 1378 1098 1340 1138 c 0,33,34
 1226 1258 1226 1258 1046 1258 c 0,35,36
 794 1258 794 1258 646 1120 c 0,37,38
 460 946 460 946 460 682 c 0,39,40
 460 485 460 485 569 372 c 0,41,42
 684 253 684 253 863 253 c 0,43,44
 1100 253 1100 253 1263 391 c 0,45,46
 1368 480 1368 480 1414 608 c 1,47,-1
 1690 411 l 1,14,15
EndSplineSet
Validated: 3073
EndChar

StartChar: cdotaccent
Encoding: 267 267 205
Width: 1348
GlyphClass: 2
Flags: W
HStem: -20 274<546.77 865.717> 847 273<629.049 950.709> 1175 356<707.756 936.471>
VStem: 100 360<340.743 668.974> 649 347<1233.56 1471.19>
LayerCount: 2
Fore
SplineSet
996 1355 m 0,0,1
 996 1276 996 1276 945 1225.5 c 128,-1,2
 894 1175 894 1175 822 1175 c 0,3,4
 748 1175 748 1175 698 1228 c 0,5,6
 649 1281 649 1281 649 1353 c 128,-1,7
 649 1425 649 1425 698 1477 c 0,8,9
 749 1531 749 1531 822 1531 c 0,10,11
 891 1531 891 1531 945 1479 c 0,12,13
 996 1430 996 1430 996 1355 c 0,0,1
1260 249 m 17,14,15
 1209 189 1209 189 1139 134 c 0,16,17
 943 -20 943 -20 672 -20 c 0,18,19
 417 -20 417 -20 248 136 c 0,20,21
 100 273 100 273 100 503 c 0,22,23
 100 767 100 767 356 968 c 0,24,25
 550 1120 550 1120 822 1120 c 128,-1,26
 1094 1120 1094 1120 1268 942 c 1,27,-1
 1003 742 l 1,28,29
 943 847 943 847 803 847 c 128,-1,30
 663 847 663 847 576 763 c 0,31,32
 460 651 460 651 460 493 c 0,33,34
 460 380 460 380 523 317 c 128,-1,35
 586 254 586 254 689 254 c 0,36,37
 828 254 828 254 918 337 c 0,38,39
 981 395 981 395 1009 469 c 9,40,-1
 1260 249 l 17,14,15
EndSplineSet
Validated: 3073
EndChar

StartChar: Ccaron
Encoding: 268 268 206
Width: 1781
GlyphClass: 2
Flags: W
HStem: -20 273<672.469 1104.25> 1258 273<796.174 1236.57> 1575 266<912 1178>
VStem: 100 360<463.768 917.395>
LayerCount: 2
Fore
SplineSet
1276 1966 m 1,0,-1
 1375 1765 l 1,1,-1
 1045 1575 l 1,2,-1
 715 1765 l 1,3,-1
 814 1966 l 1,4,-1
 1045 1841 l 1,5,-1
 1276 1966 l 1,0,-1
1690 411 m 1,6,7
 1612 287 1612 287 1483 183 c 0,8,9
 1231 -20 1231 -20 863 -20 c 0,10,11
 513 -20 513 -20 292 188 c 0,12,13
 100 369 100 369 100 676 c 0,14,15
 100 1066 100 1066 426 1328 c 0,16,17
 679 1531 679 1531 1046 1531 c 0,18,19
 1395 1531 1395 1531 1617 1323 c 0,20,21
 1665 1278 1665 1278 1701 1225 c 9,22,-1
 1403 1048 l 17,23,24
 1378 1098 1378 1098 1340 1138 c 0,25,26
 1226 1258 1226 1258 1046 1258 c 0,27,28
 794 1258 794 1258 646 1120 c 0,29,30
 460 946 460 946 460 682 c 0,31,32
 460 485 460 485 569 372 c 0,33,34
 684 253 684 253 863 253 c 0,35,36
 1100 253 1100 253 1263 391 c 0,37,38
 1368 480 1368 480 1414 608 c 1,39,-1
 1690 411 l 1,6,7
EndSplineSet
Validated: 3073
EndChar

StartChar: ccaron
Encoding: 269 269 207
Width: 1348
GlyphClass: 2
Flags: W
HStem: -20 274<546.77 865.717> 847 273<629.049 950.709> 1140 266<690 956> 1511 20G<582.149 628.96 1017.04 1063.85>
VStem: 100 360<340.743 668.974>
LayerCount: 2
Fore
SplineSet
1054 1531 m 1,0,-1
 1153 1330 l 1,1,-1
 823 1140 l 1,2,-1
 493 1330 l 1,3,-1
 592 1531 l 1,4,-1
 823 1406 l 1,5,-1
 1054 1531 l 1,0,-1
1260 249 m 17,6,7
 1209 189 1209 189 1139 134 c 0,8,9
 943 -20 943 -20 672 -20 c 0,10,11
 417 -20 417 -20 248 136 c 0,12,13
 100 273 100 273 100 503 c 0,14,15
 100 767 100 767 356 968 c 0,16,17
 550 1120 550 1120 822 1120 c 128,-1,18
 1094 1120 1094 1120 1268 942 c 1,19,-1
 1003 742 l 1,20,21
 943 847 943 847 803 847 c 128,-1,22
 663 847 663 847 576 763 c 0,23,24
 460 651 460 651 460 493 c 0,25,26
 460 380 460 380 523 317 c 128,-1,27
 586 254 586 254 689 254 c 0,28,29
 828 254 828 254 918 337 c 0,30,31
 981 395 981 395 1009 469 c 9,32,-1
 1260 249 l 17,6,7
EndSplineSet
Validated: 3073
EndChar

StartChar: Dcaron
Encoding: 270 270 208
Width: 1792
GlyphClass: 2
Flags: W
HStem: -20 258<654.883 961.008> 0 21G<200 550> 1257 274<704.33 1133.84> 1491 20<30 50.5859> 1575 266<818 1084>
VStem: 200 350<0 1123> 1342 350<611.223 1048.55>
LayerCount: 2
Fore
SplineSet
200 0 m 1,0,-1
 200 1250 l 2,1,2
 200 1430 200 1430 30 1491 c 1,3,-1
 30 1511 l 1,4,-1
 414 1511 l 1,5,6
 476 1474 476 1474 510 1417 c 1,7,8
 538 1434 538 1434 571 1447 c 0,9,10
 784 1531 784 1531 949 1531 c 0,11,12
 1293 1531 1293 1531 1503 1320 c 0,13,14
 1692 1130 1692 1130 1692 835 c 0,15,16
 1692 495 1692 495 1406 236 c 0,17,18
 1123 -20 1123 -20 778 -20 c 0,19,20
 669 -20 669 -20 628 63 c 0,21,22
 607 106 607 106 607 153 c 0,23,24
 607 202 607 202 631 258 c 1,25,26
 677 238 677 238 742 238 c 0,27,28
 965 238 965 238 1139 397 c 0,29,30
 1342 582 1342 582 1342 831 c 0,31,32
 1342 1021 1342 1021 1240 1135 c 0,33,34
 1130 1257 1130 1257 930 1257 c 0,35,36
 771 1257 771 1257 679 1199 c 0,37,38
 550 1118 550 1118 550 994 c 2,39,-1
 550 0 l 1,40,-1
 200 0 l 1,0,-1
1182 1966 m 1,41,-1
 1281 1765 l 1,42,-1
 951 1575 l 1,43,-1
 621 1765 l 1,44,-1
 720 1966 l 1,45,-1
 951 1841 l 1,46,-1
 1182 1966 l 1,41,-1
EndSplineSet
Validated: 1
EndChar

StartChar: dcaron
Encoding: 271 271 209
Width: 1579
GlyphClass: 2
Flags: W
HStem: -20 274<538.03 797.181> 0 20<1396.41 1417> 846 274<605.705 810.547> 1491 20<727 747.586>
VStem: 100 360<332.619 692.66> 897 350<355.922 1400.25>
LayerCount: 2
Fore
SplineSet
1417 0 m 1,0,-1
 1033 0 l 1,1,2
 979 32 979 32 947 79 c 1,3,4
 835 -20 835 -20 672 -20 c 0,5,6
 410 -20 410 -20 246 136 c 0,7,8
 100 275 100 275 100 495 c 0,9,10
 100 785 100 785 346 976 c 0,11,12
 531 1120 531 1120 695 1120 c 0,13,14
 852 1120 852 1120 852 932 c 0,15,16
 852 863 852 863 823 830 c 1,17,18
 790 846 790 846 763 846 c 0,19,20
 649 846 649 846 568 774 c 0,21,22
 460 678 460 678 460 502 c 0,23,24
 460 380 460 380 513 320 c 0,25,26
 571 254 571 254 674 254 c 0,27,28
 761 254 761 254 829 327 c 128,-1,29
 897 400 897 400 897 517 c 2,30,-1
 897 1250 l 2,31,32
 897 1430 897 1430 727 1491 c 1,33,-1
 727 1511 l 1,34,-1
 1111 1511 l 1,35,36
 1247 1430 1247 1430 1247 1250 c 2,37,-1
 1247 261 l 2,38,39
 1247 81 1247 81 1417 20 c 1,40,-1
 1417 0 l 1,0,-1
1484 1020 m 1,41,-1
 1272 1092 l 1,42,-1
 1399 1511 l 1,43,-1
 1683 1412 l 1,44,-1
 1484 1020 l 1,41,-1
EndSplineSet
Validated: 1
EndChar

StartChar: Dcroat
Encoding: 272 272 210
Width: 1792
GlyphClass: 2
Flags: W
HStem: -20 258<654.883 961.008> 0 21G<200 550> 621 300<90 200 550 1012> 1257 274<704.33 1133.84> 1491 20<30 50.5859>
VStem: 200 350<0 621 921 1123> 1342 350<611.223 1048.55>
LayerCount: 2
Fore
SplineSet
200 0 m 1,0,-1
 200 621 l 1,1,-1
 90 621 l 1,2,-1
 90 921 l 1,3,-1
 200 921 l 1,4,-1
 200 1250 l 2,5,6
 200 1430 200 1430 30 1491 c 1,7,-1
 30 1511 l 1,8,-1
 414 1511 l 1,9,10
 476 1474 476 1474 510 1417 c 1,11,12
 538 1434 538 1434 571 1447 c 0,13,14
 784 1531 784 1531 949 1531 c 0,15,16
 1293 1531 1293 1531 1503 1320 c 0,17,18
 1692 1130 1692 1130 1692 835 c 0,19,20
 1692 495 1692 495 1406 236 c 0,21,22
 1123 -20 1123 -20 778 -20 c 0,23,24
 669 -20 669 -20 628 63 c 0,25,26
 607 106 607 106 607 153 c 0,27,28
 607 202 607 202 631 258 c 1,29,30
 677 238 677 238 742 238 c 0,31,32
 965 238 965 238 1139 397 c 0,33,34
 1342 582 1342 582 1342 831 c 0,35,36
 1342 1021 1342 1021 1240 1135 c 0,37,38
 1130 1257 1130 1257 930 1257 c 0,39,40
 771 1257 771 1257 679 1199 c 0,41,42
 550 1118 550 1118 550 994 c 2,43,-1
 550 921 l 1,44,-1
 1012 921 l 1,45,-1
 1012 621 l 1,46,-1
 550 621 l 1,47,-1
 550 0 l 1,48,-1
 200 0 l 1,0,-1
EndSplineSet
Validated: 1
EndChar

StartChar: dcroat
Encoding: 273 273 211
Width: 1447
GlyphClass: 2
Flags: W
HStem: -20 274<538.03 797.181> 0 20<1396.41 1417> 846 274<605.705 810.547> 1176 230<685 850 1247 1357> 1491 20<727 751.36>
VStem: 100 360<332.619 692.66> 897 350<355.922 1176>
LayerCount: 2
Fore
SplineSet
1417 0 m 1,0,-1
 1033 0 l 1,1,2
 979 32 979 32 947 79 c 1,3,4
 835 -20 835 -20 672 -20 c 0,5,6
 410 -20 410 -20 246 136 c 0,7,8
 100 275 100 275 100 495 c 0,9,10
 100 785 100 785 346 976 c 0,11,12
 531 1120 531 1120 695 1120 c 0,13,14
 852 1120 852 1120 852 932 c 0,15,16
 852 863 852 863 823 830 c 1,17,18
 790 846 790 846 763 846 c 0,19,20
 649 846 649 846 568 774 c 0,21,22
 460 678 460 678 460 502 c 0,23,24
 460 380 460 380 513 320 c 0,25,26
 571 254 571 254 674 254 c 0,27,28
 761 254 761 254 829 327 c 128,-1,29
 897 400 897 400 897 517 c 2,30,-1
 897 1176 l 1,31,-1
 685 1176 l 1,32,-1
 685 1406 l 1,33,-1
 850 1406 l 1,34,35
 808 1462 808 1462 727 1491 c 1,36,-1
 727 1511 l 1,37,-1
 1111 1511 l 1,38,39
 1179 1471 1179 1471 1213 1406 c 1,40,-1
 1357 1406 l 1,41,-1
 1357 1176 l 1,42,-1
 1247 1176 l 1,43,-1
 1247 261 l 2,44,45
 1247 81 1247 81 1417 20 c 1,46,-1
 1417 0 l 1,0,-1
EndSplineSet
Validated: 1
EndChar

StartChar: Emacron
Encoding: 274 274 212
Width: 1781
GlyphClass: 2
Flags: W
HStem: -20 273<672.469 1104.25> 621 300<505 1267> 1258 273<795.928 1236.57> 1638 230<768 1330>
VStem: 100 1167<628.8 918.156>
LayerCount: 2
Fore
SplineSet
768 1638 m 1,0,-1
 768 1868 l 1,1,-1
 1330 1868 l 1,2,-1
 1330 1638 l 1,3,-1
 768 1638 l 1,0,-1
1690 411 m 1,4,5
 1612 287 1612 287 1483 183 c 0,6,7
 1231 -20 1231 -20 863 -20 c 0,8,9
 513 -20 513 -20 292 188 c 0,10,11
 100 369 100 369 100 676 c 0,12,13
 100 1066 100 1066 426 1328 c 0,14,15
 679 1531 679 1531 1046 1531 c 0,16,17
 1395 1531 1395 1531 1617 1323 c 0,18,19
 1665 1278 1665 1278 1701 1225 c 1,20,-1
 1403 1048 l 1,21,22
 1378 1098 1378 1098 1340 1138 c 0,23,24
 1226 1258 1226 1258 1046 1258 c 0,25,26
 793 1258 793 1258 646 1120 c 0,27,28
 552 1032 552 1032 505 921 c 1,29,-1
 1267 921 l 1,30,-1
 1267 621 l 1,31,-1
 463 621 l 1,32,33
 477 467 477 467 569 372 c 0,34,35
 684 253 684 253 863 253 c 0,36,37
 1100 253 1100 253 1263 391 c 0,38,39
 1368 480 1368 480 1414 608 c 1,40,-1
 1690 411 l 1,4,5
EndSplineSet
Validated: 3073
EndChar

StartChar: emacron
Encoding: 275 275 213
Width: 1348
GlyphClass: 2
Flags: W
HStem: -20 274<546.77 865.717> 434 250<512 894> 847 273<628.847 950.709> 1219 230<538 1100>
VStem: 100 794<440.152 677.056>
LayerCount: 2
Fore
SplineSet
1260 249 m 1,0,1
 1209 189 1209 189 1139 134 c 0,2,3
 943 -20 943 -20 672 -20 c 0,4,5
 417 -20 417 -20 248 136 c 0,6,7
 100 273 100 273 100 503 c 0,8,9
 100 767 100 767 356 968 c 0,10,11
 550 1120 550 1120 822 1120 c 128,-1,12
 1094 1120 1094 1120 1268 942 c 1,13,-1
 1003 742 l 1,14,15
 943 847 943 847 803 847 c 0,16,17
 662 847 662 847 576 763 c 0,18,19
 538 726 538 726 512 684 c 1,20,-1
 894 684 l 1,21,-1
 894 434 l 1,22,-1
 465 434 l 1,23,24
 478 362 478 362 523 317 c 0,25,26
 586 254 586 254 689 254 c 0,27,28
 828 254 828 254 918 337 c 0,29,30
 981 395 981 395 1009 469 c 1,31,-1
 1260 249 l 1,0,1
538 1219 m 1,32,-1
 538 1449 l 1,33,-1
 1100 1449 l 1,34,-1
 1100 1219 l 1,35,-1
 538 1219 l 1,32,-1
EndSplineSet
Validated: 1
EndChar

StartChar: Ebreve
Encoding: 276 276 214
Width: 1781
GlyphClass: 2
Flags: W
HStem: -20 273<672.469 1104.25> 621 300<505 1267> 1258 273<795.928 1236.57> 1603 230<808.293 1278.93> 1671 230<763 993 1095 1325>
VStem: 100 1167<628.8 918.156>
LayerCount: 2
Fore
SplineSet
763 1901 m 1,0,1
 879 1833 879 1833 1046 1833 c 0,2,3
 1206 1833 1206 1833 1325 1901 c 1,4,-1
 1325 1671 l 1,5,6
 1206 1603 1206 1603 1046 1603 c 0,7,8
 879 1603 879 1603 763 1671 c 1,9,-1
 763 1901 l 1,0,1
1690 411 m 1,10,11
 1612 287 1612 287 1483 183 c 0,12,13
 1231 -20 1231 -20 863 -20 c 0,14,15
 513 -20 513 -20 292 188 c 0,16,17
 100 369 100 369 100 676 c 0,18,19
 100 1066 100 1066 426 1328 c 0,20,21
 679 1531 679 1531 1046 1531 c 0,22,23
 1395 1531 1395 1531 1617 1323 c 0,24,25
 1665 1278 1665 1278 1701 1225 c 1,26,-1
 1403 1048 l 1,27,28
 1378 1098 1378 1098 1340 1138 c 0,29,30
 1226 1258 1226 1258 1046 1258 c 0,31,32
 793 1258 793 1258 646 1120 c 0,33,34
 552 1032 552 1032 505 921 c 1,35,-1
 1267 921 l 1,36,-1
 1267 621 l 1,37,-1
 463 621 l 1,38,39
 477 467 477 467 569 372 c 0,40,41
 684 253 684 253 863 253 c 0,42,43
 1100 253 1100 253 1263 391 c 0,44,45
 1368 480 1368 480 1414 608 c 1,46,-1
 1690 411 l 1,10,11
EndSplineSet
Validated: 3073
EndChar

StartChar: ebreve
Encoding: 277 277 215
Width: 1348
GlyphClass: 2
Flags: W
HStem: -20 274<546.77 865.717> 434 250<512 894> 847 273<628.847 950.709> 1213 230<587.293 1057.93> 1281 230<542 772 874 1104>
VStem: 100 794<440.152 677.056>
LayerCount: 2
Fore
SplineSet
1260 249 m 1,0,1
 1209 189 1209 189 1139 134 c 0,2,3
 943 -20 943 -20 672 -20 c 0,4,5
 417 -20 417 -20 248 136 c 0,6,7
 100 273 100 273 100 503 c 0,8,9
 100 767 100 767 356 968 c 0,10,11
 550 1120 550 1120 822 1120 c 128,-1,12
 1094 1120 1094 1120 1268 942 c 1,13,-1
 1003 742 l 1,14,15
 943 847 943 847 803 847 c 0,16,17
 662 847 662 847 576 763 c 0,18,19
 538 726 538 726 512 684 c 1,20,-1
 894 684 l 1,21,-1
 894 434 l 1,22,-1
 465 434 l 1,23,24
 478 362 478 362 523 317 c 0,25,26
 586 254 586 254 689 254 c 0,27,28
 828 254 828 254 918 337 c 0,29,30
 981 395 981 395 1009 469 c 1,31,-1
 1260 249 l 1,0,1
542 1511 m 1,32,33
 658 1443 658 1443 825 1443 c 0,34,35
 985 1443 985 1443 1104 1511 c 1,36,-1
 1104 1281 l 1,37,38
 985 1213 985 1213 825 1213 c 0,39,40
 658 1213 658 1213 542 1281 c 1,41,-1
 542 1511 l 1,32,33
EndSplineSet
Validated: 1
EndChar

